<svg width="228" height="719" viewBox="0 0 228 719" fill="none" xmlns="http://www.w3.org/2000/svg">
<g opacity="0.4" clip-path="url(#clip0_108_2674)">
<path d="M-430 0H289V719H-430V0Z" fill="url(#paint0_linear_108_2674)"/>
<path d="M258.081 0.0715369C260.058 87.4048 256.478 174.66 255.273 261.94C255.097 274.573 255.692 287.225 254.92 299.851C253.768 288.26 252.459 276.02 252.466 264.396C252.466 264.252 253.866 262.602 253.866 261.94C253.958 174.627 253.964 87.3655 251.759 0.0715369C227.673 -0.105278 203.574 0.117378 179.488 0.0715369C178.408 12.4158 177.819 71.223 176.68 74.8444C174.782 80.8954 168.289 75.4338 165.455 73.7901C163.262 72.5197 156.684 68.2761 156.331 66.0692C151.016 64.0653 143.869 56.161 139.49 51.3281C123.062 33.1948 121.982 25.7555 125.458 0.0780855C116.805 0.0715369 108.152 0.0846342 99.4932 0.0780855C97.0322 3.2542 88.4254 12.2324 87.5615 14.8192C85.5456 20.8702 88.3338 27.7332 85.4539 33.7776C86.5863 32.1863 102.779 17.6744 108.257 8.50625C108.842 19.5037 109.426 30.5033 110.011 41.5051C115.836 46.4297 118.291 55.3097 124.744 62.5657C125.543 63.4628 127.951 65.8335 128.953 66.7765C131.767 69.4352 136.525 71.9761 139.477 74.4974C145.453 79.6053 151.324 83.6328 157.018 89.2385C158.975 91.1703 160.808 92.7355 162.634 94.8572C164.421 96.9332 165.972 98.9371 167.543 101.177C171.234 106.435 174.677 110.581 176.667 116.972C175.992 130.862 174.841 144.85 174.559 158.746C174.899 162.394 177.197 167.783 177.367 171.032C178.12 185.53 171.732 296.629 168.243 306.53C168.047 307.081 167.307 306.878 166.842 306.884C166.594 310.826 166.489 314.893 166.142 318.822C165.874 321.815 166.463 334.952 165.442 345.148C165.429 345.272 164.054 347.126 164.041 347.257C163.046 357.27 162.595 367.459 161.233 377.446C158.596 396.87 150.362 441.499 145.793 460.287C134.843 505.349 115.221 579.788 71.0612 600.35C66.2244 594.234 60.8378 590.534 53.5204 587.711C51.4128 588.065 60.6872 600.508 52.1197 601.051C44.7368 601.516 50.4965 591.693 46.1571 578.936C14.2235 538.112 3.78406 498.918 1.2511 447.648C6.19266 442.599 3.33246 469.036 6.86682 478.185C6.74246 476.986 6.10757 467.982 6.51337 467.654C10.6237 468.728 10.087 469.979 15.2838 470.464C-2.69559 463.044 18.5826 458.958 19.4923 470.464C23.0529 469.855 24.2114 468.394 26.8621 466.253C31.411 466.456 36.0842 465.225 40.1945 463.444C41.7719 464.576 47.0603 466.096 48.965 466.253C43.5914 458.041 50.2871 462.036 59.8429 462.042C60.1637 462.042 64.0318 460.045 66.159 460.641C69.3333 461.525 68.777 468.106 49.6718 466.259C57.6765 471.164 63.5671 461.931 65.1117 472.225C65.6681 473.136 66.231 471.191 67.2193 471.171C72.5928 471.079 73.568 470.366 73.8822 470.47C77.5802 471.629 73.5746 479.285 66.5124 474.681C64.6143 480.496 67.324 482.402 62.6508 483.81C57.2314 485.441 56.1253 469.553 40.5479 488.721C46.7593 485.021 50.1954 480.509 51.4259 480.3C56.8714 479.37 58.7434 486.606 61.9505 485.919C68.2469 480.3 77.9598 481.341 78.791 481.007C79.5895 480.686 84.1907 470.411 92.8237 477.497C103.119 485.938 85.2118 487.53 84.7536 488.381C82.921 491.78 86.8546 496.292 90.0159 497.857C105.194 505.381 123.285 495.172 125.098 495.048C129.764 494.72 132.081 502.172 132.814 488.728C99.7485 489.141 107.806 475.362 133.515 485.919L134.568 484.864C148.019 430.497 159.95 375.416 164.041 319.53C155.788 284.114 159.466 261.855 150.709 221.24C150.152 218.667 150.12 213.893 150.008 211.064C148.719 207.894 139.058 191.162 138.784 190.003C138.581 189.152 138.613 173.311 138.784 172.453C138.947 171.627 141.323 169.224 141.591 168.242C143.686 160.567 146.35 153.062 148.608 145.426C138.718 147.581 141.002 140.475 133.875 135.25C133.05 130.692 140.106 117.385 137.383 111.733C136.179 120.914 133.502 129.585 132.474 138.76C132.121 139.65 129.044 141.693 128.966 141.916C123.926 156.644 120.536 169.944 118.441 185.445C122.912 195.982 123.304 207.757 126.158 218.791C127.343 224.508 126.007 230.35 126.158 235.995C126.367 243.918 126.23 251.934 126.158 259.865C126.073 269.471 124.934 321.894 123.35 326.209C123.121 326.831 122.283 326.052 121.243 327.264C125.929 328.017 122.107 333.603 121.943 335.685C121.459 342.031 121.635 348.619 121.243 354.991C120.176 356.484 120.163 355.547 118.435 355.344C121.825 359.686 118.219 357.047 114.927 358.854C118.232 359.116 119.338 358.684 119.489 358.854C120.287 359.778 117.865 382.181 117.034 383.078C115.797 384.407 113.205 381.86 112.125 384.833C120.326 383.163 115.359 392.259 114.933 400.629C114.089 401.729 110.09 399.142 103.001 397.472C105.187 398.448 107.014 400.065 109.664 399.581C112.243 403.562 113.951 414.944 112.119 418.886C111.359 420.523 110.227 416.692 107.91 418.533C113.807 421.06 107.668 429.443 107.21 435.029C96.2403 435.461 90.1206 422.855 85.4605 414.315C85.539 413.457 84.7929 413.654 84.7602 413.615C78.3656 414.531 72.4815 406.49 67.9196 402.384C67.1342 401.676 66.532 400.949 65.8121 400.275C65.1837 399.692 58.7368 401.441 60.1964 387.636V385.881C40.6658 372.332 40.7574 346.425 39.1473 325.155C38.8528 321.298 39.8672 320.486 39.8476 320.243C39.7363 318.77 39.2717 316.982 39.1473 315.332C38.1394 301.776 37.1249 288.181 36.3394 274.612C36.1758 271.763 35.7897 269.013 35.6391 266.191C34.533 245.372 32.6611 224.587 32.8313 203.71C32.2684 188.517 32.5237 173.265 32.131 158.078C24.8201 161.169 30.1543 163.278 30.0234 164.745C29.9056 166.094 26.8752 166.415 25.8149 169.656C24.3946 173.992 27.065 197.521 19.8523 196.683C19.6298 196.657 16.7499 193.742 16.6976 193.526C14.806 185.825 20.3432 193.101 21.9598 191.071C22.7452 190.082 22.2609 187.488 21.6064 186.506C19.8916 183.9 19.008 188.458 13.5363 185.452C5.91122 193.814 11.0622 176.14 4.76584 179.486C6.34976 170.508 6.01596 163.92 3.36517 155.97C3.78406 167.607 2.44232 250.533 1.25766 256.368C4.09824 258.588 3.18192 280.427 1.25766 284.448C1.26419 285.149 1.2511 285.85 1.25766 286.557C1.44092 303.472 2.2067 320.564 1.95798 337.453C1.65036 358.2 -2.36835 390.786 -1.5502 408.363C-1.03967 419.332 4.41895 444.256 0.557312 435.042C-1.95599 429.056 -4.99292 407.151 -5.05838 400.288C-5.07147 398.756 -5.09109 397.642 -5.05838 396.077C-5.05838 395.907 -3.65771 393.091 -3.65771 392.921C-3.3501 383.353 -0.646973 348.233 -0.849884 345.882C-1.39313 339.7 -4.88165 340.197 -4.35803 336.406C-5.29401 336.026 -12.546 329.543 -12.7751 329.032C-14.4702 325.325 -14.3852 304.73 -14.8826 299.196C-15.9494 287.186 -17.6512 275.077 -18.3907 263.041C-18.4235 262.523 -16.9247 263.021 -16.9901 261.986C-17.553 252.641 -19.3529 243.021 -19.7979 233.552C-20.9695 208.497 -21.3557 183.166 -21.9055 158.078C-22.3767 158.072 -23.1818 157.908 -23.3062 158.432C-24.4057 163.036 -16.6694 172.793 -41.9008 188.968L-42.9546 187.914C-44.8068 171.588 -44.1327 155.138 -45.0621 138.773C-45.2453 135.525 -46.6591 123.534 -48.5703 122.624C-49.0939 115.008 -47.2089 107.365 -47.1696 99.808C-47.1041 88.7473 -45.5791 76.9335 -48.5703 66.4621C-46.1224 53.9476 -49.2509 44.8122 -49.2706 43.6465C-59.8671 32.4286 -72.3945 15.6312 -63.3033 0.117378C-64.0036 0.117378 -64.7039 0.117378 -65.4108 0.117378C-65.8101 2.9988 -67.3351 2.95951 -68.2187 0.117378C-70.7909 0.117378 -73.3631 0.117378 -75.9354 0.117378C-72.3944 15.5985 -75.2088 8.87297 -89.9681 0.117378C-95.5838 0.117378 -101.193 0.117378 -106.809 0.117378C-94.9685 9.67191 -83.9466 19.9861 -75.235 32.4155C-70.4571 39.2261 -67.2369 46.7375 -62.603 53.4761C-60.3122 56.8094 -48.1776 69.4418 -47.8699 70.6795C-48.1055 83.659 -49.0611 96.6712 -49.2706 109.644C-49.8138 142.44 -50.9396 175.157 -52.0784 207.933C-52.5889 222.701 -54.2906 237.468 -54.8863 252.163C-55.3771 264.265 -55.0761 276.505 -55.5866 288.672C-55.9858 298.05 -56.5815 307.395 -56.9872 316.753C-57.9101 338.043 -56.4636 359.765 -61.1957 380.642C-53.5772 391.153 -62.7011 387.708 -64.0036 389.417C-64.9985 390.727 -58.5123 392.096 -63.3033 396.084C-61.7063 396.071 -61.3921 396.477 -60.8489 394.682C-57.092 406.594 -62.1252 405.959 -63.3033 408.723C-62.4328 406.339 -56.6992 405.73 -59.7951 414.342C-61.1565 418.127 -61.4772 415.671 -62.603 415.743C-60.4824 421.82 -60.2533 427.557 -67.5118 422.763C-64.2 429.174 -59.8998 421.067 -60.4954 431.892C-59.1406 432.73 -59.0359 434.361 -59.0948 435.756C-59.6118 448.774 -67.911 501.4 -71.7268 513.685C-80.9947 543.508 -109.25 566.946 -127.511 591.261L-126.81 584.941C-132.884 593.795 -143.186 599.552 -138.742 589.152C-158.404 591.962 -158.639 598.438 -160.492 598.982C-160.93 599.113 -167.495 597.377 -169.616 598.281C-171.265 598.982 -166.624 603.297 -184.349 602.492C-215.471 613.887 -198.08 611.732 -200.836 618.287C-201.608 620.127 -214.135 619.492 -211.36 625.307C-210.352 627.416 -181.822 631.516 -185.396 621.797C-186.639 618.418 -195.501 621.496 -192.059 615.131C-179.944 626.493 -179.171 609.977 -168.202 611.621C-164.752 612.138 -162.619 620.953 -155.57 613.729C-140.221 618.366 -161.126 600.416 -142.938 613.729C-119.31 601.49 -138.657 617.796 -139.076 618.995C-141.314 625.373 -114.807 635.419 -115.219 626.015C-115.324 623.624 -126.915 618.844 -123.99 617.239C-112.208 626.899 -106.004 616.421 -96.6244 620.75C-93.6595 622.118 -91.3884 633.179 -84.6927 629.171C-84.4505 629.027 -84.1625 624.974 -81.8848 624.26C-81.3547 624.096 -77.0545 629.014 -77.6763 617.94C-69.3379 619.846 -68.6703 615.177 -67.8521 615.131C-65.1555 614.974 -66.9358 620.147 -64.3439 620.042C-63.9905 620.029 -59.7951 615.484 -58.7283 615.832C-54.0616 617.338 -66.6413 626.172 -43.9952 614.43C-41.5801 622.629 -36.0887 613.847 -32.0635 615.131C-29.7793 615.858 -33.0976 620.9 -32.0635 621.45C-29.0004 623.074 -21.4866 615.766 -20.8387 615.832C-19.8176 615.936 -15.9887 622.151 -15.2229 622.151C-14.1692 622.151 -13.927 616.814 -3.64462 617.587C-17.7428 607.619 -5.14346 607.502 0.21698 615.131C4.18988 610.985 1.80746 615.092 3.02484 615.832C3.39792 616.061 4.5433 612.983 5.83267 612.321C6.97153 611.739 7.83548 613.075 7.94022 613.022C12.3123 610.9 22.0253 601.13 19.1651 613.022C33.4531 606.087 35.3511 597.443 39.5138 603.893C41.7981 603.526 37.8383 596.965 37.7598 595.819C37.066 585.996 55.6148 602.047 42.6686 609.158C45.3564 609.508 48.0465 609.859 50.7387 610.213V611.614C30.5339 615.209 42.073 617.783 38.1066 619.335C36.4376 619.99 30.8612 619.355 29.6896 617.226C26.6789 626.316 24.5517 620.704 24.0739 620.737C21.626 620.913 20.0618 623.258 19.1651 622.845C18.36 622.472 18.2618 613.415 8.64053 631.267C0.184265 627.888 -2.08035 635.55 -3.2912 636.178C-4.52167 636.827 -14.8695 634.882 -23.64 653.028C-31.5006 650.166 -35.6895 660.998 -36.9723 660.749C-37.8821 660.572 -38.7068 651.037 -51.3585 663.905C-52.589 665.156 -53.3809 669.216 -54.5132 669.871C-58.4665 672.157 -63.8203 664.783 -67.4922 672.327C-68.3037 673.997 -62.8778 678.476 -76.616 678.647C-74.731 680.971 -72.0083 687.86 -71.7072 689.877C-69.8746 702.156 -85.5501 684.056 -95.9175 687.422C-104.171 690.1 -76.5506 701.619 -74.1682 698.653C-69.9858 710.002 -68.5132 694.128 -60.8358 705.673C-57.2491 703.191 -64.4618 699.642 -51.0116 694.442C-50.8937 698.587 -40.7947 711.639 -36.9789 709.89C-34.7732 708.875 -38.2224 697.664 -27.855 709.89C-26.7292 709.93 -26.5002 688.293 -16.6301 707.081C-14.0645 705.804 -8.52075 702.503 -6.10559 702.169C6.55264 700.408 -7.80078 708.03 -4.70493 709.89C24.2768 692.307 15.0024 709.163 16.3441 709.89C17.1688 710.342 24.6761 705.797 34.5854 711.292C34.4283 698.109 44.0365 713.544 46.5171 712.693C50.6078 711.292 42.0926 697.788 62.3039 719.013C64.6405 719.013 66.9836 719.013 69.3203 719.013C70.0206 719.013 70.7274 719.013 71.4278 719.013C143.934 718.96 216.441 719.052 288.948 719.013C288.994 671.738 288.883 624.469 288.948 577.194C278.358 561.006 267.997 533.292 263.69 514.36C259.861 497.516 254.429 447.687 254.567 430.811C254.625 423.352 254.567 414.649 258.075 417.472C258.278 445.906 262.008 473.764 267.199 501.721C278.842 496.239 266.924 507.582 275.269 512.605C280.714 515.879 284.674 512.585 288.955 513.305C289.092 342.208 288.856 171.136 288.955 0.0715369C278.666 0.0125987 268.37 0.143572 258.081 0.0715369Z" fill="url(#paint1_linear_108_2674)"/>
<path d="M37.0526 0.0720215C35.4032 2.82247 30.069 5.59256 29.3359 8.84726C28.3607 13.1825 30.5598 85.5193 30.7366 97.6606C31.0311 117.772 31.6136 137.928 32.1372 158.039C32.5299 173.226 32.2812 188.478 32.8375 203.671C42.1054 204.051 41.3396 236.434 44.7693 247.547C45.4718 246.962 46.1743 246.377 46.8768 245.792C48.5524 229.983 52.342 214.345 53.1928 198.406C57.8202 182.787 57.997 166.147 65.1246 151.366C65.8315 124.615 69.1367 97.726 69.3331 70.9812C69.3724 65.4476 70.2298 62.9132 69.3331 55.1858C67.2125 36.8887 56.2756 11.5977 41.2676 0.0720215C39.867 0.0720215 38.4598 0.0720215 37.0591 0.0720215H37.0526Z" fill="url(#paint2_linear_108_2674)"/>
<path d="M-25.3943 0.0720215C-24.6089 21.9643 -26.6772 47.3666 -24.694 68.8725C-24.5369 70.6014 -24.8053 72.4023 -24.694 74.1377C-16.5846 86.2593 -5.80483 95.8793 5.12551 105.381C5.51821 94.0195 8.14281 42.4093 6.17928 36.928L-23.9937 0.0720215C-24.4584 0.0720215 -24.9296 0.0720215 -25.3943 0.0720215Z" fill="url(#paint3_linear_108_2674)"/>
<path d="M142.304 0.0720378C139.104 6.19506 141.604 3.7524 141.604 4.63647C141.604 20.2354 140.282 35.7362 139.497 51.3221C143.875 56.155 151.022 64.0658 156.337 66.0632C156.206 60.8831 156.9 55.7948 157.037 50.6148C157.24 43.1231 158.117 35.6314 158.438 28.1463C158.844 18.8275 158.713 9.39737 159.138 0.0654891C153.523 0.0589404 147.914 0.0720378 142.298 0.0654891L142.304 0.0720378Z" fill="url(#paint4_linear_108_2674)"/>
<path d="M168.969 0.0720215C166.744 6.96779 163.903 13.8112 161.953 20.7855C161.18 23.5556 162.352 30.065 158.445 28.1593C158.117 35.6379 157.247 43.1296 157.044 50.6279C159.898 51.1321 157.679 45.2187 158.445 42.5534C158.739 41.5252 168.773 24.8915 168.269 23.5949C167.856 22.5275 165.396 24.9112 164.761 23.5949C164.204 22.4489 176.084 4.08637 178.093 1.83362C178.767 8.9193 174.991 17.1903 169.676 21.4928C168.271 38.9254 166.868 56.3602 165.468 73.7971C168.302 75.4409 174.794 80.9025 176.692 74.8515C177.831 71.23 178.42 12.4294 179.5 0.0785702C175.992 0.0785702 172.484 0.0785702 168.976 0.0785702L168.969 0.0720215Z" fill="url(#paint5_linear_108_2674)"/>
<path d="M125.464 0.0720634C121.988 25.7495 123.068 33.1888 139.497 51.3221C140.282 35.7362 141.598 20.2289 141.604 4.6365C141.604 3.75243 139.104 6.19509 142.304 0.0720634C136.689 0.0655147 131.08 0.0720634 125.464 0.0720634Z" fill="url(#paint6_linear_108_2674)"/>
<path d="M56.7009 0.0720215C64.0053 7.53752 70.1708 16.3586 74.2418 26.0507C74.9443 17.3933 75.6469 8.73375 76.3494 0.0720215C69.7977 0.0720215 63.2526 0.0720215 56.7009 0.0720215Z" fill="url(#paint7_linear_108_2674)"/>
<path d="M-9.25405 0.0720215C-5.05864 5.08177 4.82449 19.6068 7.58653 22.1869C8.28685 22.8418 8.11667 21.8922 8.98717 21.8333C8.99371 14.5446 9.08535 7.33452 9.6875 0.0720215C3.37147 0.0720215 -2.94457 0.0720215 -9.2606 0.0720215H-9.25405Z" fill="url(#paint8_linear_108_2674)"/>
<path d="M159.145 0.0720394C158.713 9.40392 158.85 18.834 158.445 28.1528C162.352 30.0585 161.181 23.5491 161.953 20.779C163.903 13.8046 166.744 6.96126 168.969 0.0654907C165.697 0.0654907 162.418 0.0654907 159.145 0.0654907V0.0720394Z" fill="url(#paint9_linear_108_2674)"/>
<path d="M86.8738 0.0720215C87.1094 4.9879 87.3429 9.9016 87.5741 14.8131C88.4315 12.2264 97.0449 3.24813 99.5059 0.0720215C95.2974 0.0720215 91.0888 0.0720215 86.8738 0.0720215Z" fill="url(#paint10_linear_108_2674)"/>
<path d="M-21.8862 158.033C-21.3364 183.121 -20.9502 208.451 -19.7787 233.507C-19.3336 242.976 -17.5337 252.596 -16.9708 261.941C-10.609 272.949 -3.02974 270.258 0.570075 259.132C0.740248 258.614 1.1395 256.97 1.27041 256.322C2.45507 250.494 3.79025 167.568 3.37791 155.924C3.18156 150.43 3.98008 144.863 2.6776 139.428L-22.2331 100.463C-23.1559 119.651 -22.2986 138.852 -21.8797 158.033H-21.8862Z" fill="url(#paint11_linear_108_2674)"/>
<path d="M156.337 113.102C154.779 129.389 152.39 132.644 148.62 145.4C146.362 153.036 143.698 160.548 141.604 168.216C141.336 169.198 138.96 171.602 138.796 172.427C138.626 173.285 138.593 189.126 138.796 189.977C139.071 191.136 148.738 207.875 150.021 211.038C150.132 213.874 150.165 218.641 150.721 221.215C153.058 221.156 159.112 227.501 162.653 231.044C163.36 203.383 159.793 175.799 159.145 148.203C158.87 136.376 158.209 124.202 159.145 112.395C158.211 112.631 157.275 112.864 156.337 113.096V113.102Z" fill="url(#paint12_linear_108_2674)"/>
<path d="M85.4667 33.7651C82.469 37.989 81.7163 42.4159 81.9585 47.8054C82.5999 61.9702 94.5578 75.179 106.516 81.505C106.103 79.5338 107.622 46.4957 110.024 41.486C109.439 30.4885 108.855 19.4889 108.27 8.48712C102.792 17.6618 86.599 32.1672 85.4667 33.7585V33.7651Z" fill="url(#paint13_linear_108_2674)"/>
<path d="M117.047 185.413H118.448C120.549 169.912 123.932 156.612 128.972 141.884C127.14 140.568 127.486 137.922 127.572 135.918C128.534 112.873 128.521 89.8218 128.972 66.7638C127.971 65.8143 125.556 63.4437 124.764 62.553C122.748 103.626 117.263 144.241 117.047 185.413Z" fill="url(#paint14_linear_108_2674)"/>
<path d="M128.972 141.884C129.051 141.661 132.127 139.611 132.48 138.727C133.514 129.553 136.185 120.882 137.389 111.701C139.006 99.3894 139.608 86.9076 139.497 74.4913C136.545 71.97 131.787 69.4292 128.972 66.7704C128.514 89.8283 128.534 112.88 127.571 135.925C127.486 137.928 127.146 140.574 128.972 141.89V141.884Z" fill="url(#paint15_linear_108_2674)"/>
<path d="M32.844 203.664C32.6738 224.541 34.5457 245.327 35.6518 266.145C38.9244 263.805 42.1991 261.465 45.476 259.125C45.3517 254.613 46.4055 250.245 46.8767 245.785C46.1742 246.37 45.4717 246.955 44.7692 247.54C41.3395 236.427 42.1053 204.037 32.8374 203.664H32.844Z" fill="url(#paint16_linear_108_2674)"/>
<path d="M168.969 148.203C169.584 162.008 170.697 175.806 171.077 189.624C174.264 189.676 170.841 197.659 173.885 193.835C174.192 182.152 174.356 170.423 174.585 158.734C174.86 144.837 176.012 130.849 176.692 116.96C174.703 110.568 171.26 106.423 167.568 101.164C167.935 116.842 168.275 132.532 168.969 148.203Z" fill="url(#paint17_linear_108_2674)"/>
<path d="M-16.9775 261.941C-16.9186 262.976 -18.4109 262.471 -18.3781 262.995C-17.6385 275.032 -15.9368 287.14 -14.87 299.151C-9.73204 295.457 -5.10467 291.128 -0.136927 287.212C-0.0780215 287.166 -0.352907 286.25 1.26374 286.512C1.25719 285.811 1.27028 285.11 1.26374 284.403C1.1721 276.014 0.818663 267.52 0.563404 259.132C-3.03641 270.251 -10.6156 272.949 -16.9775 261.941Z" fill="url(#paint18_linear_108_2674)"/>
<path d="M157.044 50.6148C156.9 55.7948 156.206 60.8766 156.344 66.0632C156.697 68.2766 163.275 72.5136 165.467 73.7841C166.872 56.3515 168.275 38.9167 169.676 21.4797C174.991 17.1772 178.767 8.91278 178.093 1.82056C176.084 4.07985 164.204 22.4358 164.761 23.5818C165.395 24.8981 167.856 22.5144 168.269 23.5818C168.773 24.8785 158.739 41.5121 158.445 42.5403C157.679 45.2056 159.891 51.1191 157.044 50.6148Z" fill="url(#paint19_linear_108_2674)"/>
<path d="M117.047 185.413C116.942 205.328 116.706 225.347 119.855 245.091L126.171 235.962C126.02 230.317 127.355 224.476 126.171 218.759C123.31 207.718 122.918 195.95 118.454 185.413H117.053H117.047Z" fill="url(#paint20_linear_108_2674)"/>
<path d="M36.3523 274.573C37.1377 288.142 38.1522 301.737 39.1601 315.293L43.3686 311.082C43.8006 296.099 44.154 281.129 44.7693 266.152C41.9636 268.959 39.1579 271.766 36.3523 274.573Z" fill="url(#paint21_linear_108_2674)"/>
<path d="M173.878 193.841C173.466 209.316 173.197 224.705 172.477 240.18C171.469 261.758 171.548 283.532 166.862 304.769V306.878C167.326 306.878 168.073 307.074 168.262 306.524C171.751 296.623 178.139 185.531 177.386 171.026C177.216 167.777 174.919 162.388 174.578 158.74C174.343 170.43 174.186 182.165 173.878 193.841Z" fill="url(#paint22_linear_108_2674)"/>
<path d="M119.855 245.091C121.013 252.373 122.172 266.374 126.171 259.832C126.243 251.902 126.38 243.886 126.171 235.962L119.855 245.091Z" fill="url(#paint23_linear_108_2674)"/>
<path d="M35.6518 266.152C35.8024 268.981 36.1885 271.731 36.3521 274.573C39.1578 271.766 41.9635 268.959 44.7692 266.152C45.0048 263.812 45.2382 261.472 45.4695 259.132C42.1969 261.472 38.9222 263.812 35.6453 266.152H35.6518Z" fill="url(#paint24_linear_108_2674)"/>
<path d="M39.1602 315.293C39.2845 316.943 39.7558 318.731 39.8605 320.205C40.563 319.737 41.2655 319.27 41.968 318.803C42.0204 315.817 43.2574 315.031 43.3687 311.082L39.1602 315.293Z" fill="url(#paint25_linear_108_2674)"/>
<path d="M81.2583 138.374C86.154 137.889 86.9591 161.216 88.975 171.72C89.6622 175.289 91.9334 184.778 93.1835 184.005C96.7178 155.931 101.751 128.033 103.708 99.7562C102.752 96.0824 86.2457 85.4538 82.6589 82.2057C80.0802 100.837 81.2452 119.717 81.2583 138.374Z" fill="url(#paint26_linear_108_2674)"/>
<path d="M81.2582 138.374C81.2582 143.822 82.6785 150.463 81.9586 156.278C69.8632 190.619 74.8637 227.816 77.0497 263.342C79.2161 261.07 80.3092 259.164 84.0661 259.132C87.2732 234.122 90.0352 209.041 93.1899 184.012C91.9398 184.784 89.6621 175.295 88.9814 171.726C86.9655 161.222 86.1605 137.889 81.2648 138.38L81.2582 138.374Z" fill="url(#paint27_linear_108_2674)"/>
<path d="M77.0498 263.342C77.4491 269.858 77.9007 276.492 78.4504 283.001C81.5725 286.145 82.8422 268.673 84.0662 259.132C80.3093 259.164 79.2162 261.07 77.0498 263.342Z" fill="url(#paint28_linear_108_2674)"/>
<path d="M159.145 148.203C159.793 175.799 163.36 203.383 162.653 231.044C165.212 233.598 167.307 236.715 170.37 238.765C171.024 222.413 173.132 206.028 171.07 189.624C170.691 175.806 169.584 162.008 168.963 148.203C163.674 147.208 165.703 144.988 159.138 148.203H159.145Z" fill="url(#paint29_linear_108_2674)"/>
<path d="M171.077 189.624C173.138 206.028 171.024 222.42 170.376 238.765C170.37 239.001 170.389 239.237 170.376 239.466L172.484 240.167C173.204 224.692 173.479 209.303 173.885 193.828C170.841 197.646 174.264 189.67 171.077 189.617V189.624Z" fill="url(#paint30_linear_108_2674)"/>
<path d="M-11.0083 332.85C-12.134 350.715 -7.31029 369.11 -7.14667 387.263L-4.69225 387.617C-4.59407 370.433 0.37367 346.681 -11.0083 332.857V332.85Z" fill="#3C3C3E"/>
<path d="M-0.136883 287.212V313.538C-16.6109 307.991 -0.621221 320.146 -0.136883 322.667L-0.837195 337.408C-1.08591 337.853 -3.69742 336.622 -4.34538 336.354C-4.86899 340.152 -1.38044 339.648 -0.837195 345.83C-0.627751 348.174 -3.33743 383.301 -3.64505 392.869C-3.64505 393.039 -5.04572 395.855 -5.04572 396.025V400.236C-4.98027 407.099 -1.94332 428.998 0.57 434.99C4.43162 444.204 -1.02046 419.286 -1.53753 408.311C-2.35567 390.734 1.66302 358.148 1.97064 337.401C2.21936 320.512 1.44705 303.42 1.27033 286.505C-0.352856 286.243 -0.0714257 287.16 -0.130332 287.206L-0.136883 287.212Z" fill="#B92126"/>
<path d="M1.27044 256.322C1.13954 256.971 0.740286 258.608 0.570113 259.132C0.825372 267.527 1.17881 276.021 1.27044 284.403C3.19471 280.376 4.11102 258.542 1.27044 256.322Z" fill="#992029"/>
<path d="M48.9843 466.24C49.2199 466.26 49.4555 466.221 49.6846 466.24C68.7897 468.094 69.3461 461.506 66.1717 460.622C64.0445 460.032 60.1829 462.023 59.8557 462.023C50.2998 462.023 43.6042 458.022 48.9777 466.234L48.9843 466.24Z" fill="#E42626"/>
<path d="M15.3032 470.451C16.4093 470.556 18.53 470.615 19.5117 470.451C18.6019 458.945 -2.67622 463.031 15.3032 470.451Z" fill="#E42626"/>
<path d="M85.8202 462.03C82.5934 461.512 76.5588 467.177 80.9113 469.05C85.3555 470.962 91.9726 463.012 85.8202 462.03Z" fill="#E42626"/>
<path d="M67.2254 471.152C67.5788 473.241 66.7738 473.896 66.5251 474.662C73.5872 479.266 77.5863 471.61 73.8949 470.451C73.5742 470.353 72.5989 471.06 67.232 471.152H67.2254Z" fill="#B92126"/>
<path d="M37.4059 460.622C26.7636 457.039 29.4536 467.583 38.1062 464.132C40.024 463.365 38.5775 461.015 37.4059 460.622Z" fill="#B92126"/>
<path d="M-101.18 455.003C-103.111 455.841 -102.594 460.17 -112.759 459.214C-122.347 471.898 -115.599 472.946 -102.934 468.342C-97.8227 492.245 -95.2308 478.539 -86.0938 480.281C-81.9639 481.067 -78.9793 490.398 -70.6539 484.492C-68.7886 485.906 -73.7497 506.842 -74.8624 510.47C-79.0906 505.644 -95.2046 502.893 -100.473 507.661C-100.493 508.119 -100.401 508.617 -100.473 509.062C-93.5945 522.533 -107.077 513.122 -109.597 500.287C-116.084 502.193 -97.4365 522.114 -94.8643 528.368C-88.5221 543.783 -100.159 534.111 -101.527 542.762C-114.434 549.972 -100.964 540.882 -116.26 541.36C-120.318 542.382 -117.582 551.779 -102.228 549.081C-95.6824 547.929 -87.4879 536.724 -98.7193 550.483C-108.21 547.621 -103.681 561.858 -114.86 551.183C-116.771 550.731 -121.856 553.213 -122.229 550.83C-122.314 550.286 -120.855 550.542 -120.829 550.476V549.075C-127.524 548.741 -125.954 546.743 -129.246 549.775C-127.564 551.74 -127.583 553.803 -122.229 555.041C-121.457 558.177 -126.091 554.091 -125.738 558.551C-125.122 566.278 -116.201 557.653 -120.829 569.782C-123.167 569.315 -125.506 568.847 -127.845 568.38C-124.127 562.192 -127.636 553.947 -132.054 557.496C-131.451 562.814 -134.312 554.693 -142.225 547.667C-148.999 548.027 -157.076 534.7 -158.712 544.157C-149.149 547.935 -155.21 550.856 -151.342 551.878C-148.168 552.722 -149.693 548.223 -147.48 549.422C-147.094 549.631 -144.489 555.656 -143.272 557.143C-141.42 559.402 -138.016 560.109 -137.656 560.653C-134.436 565.564 -139.011 567.863 -141.518 565.918C-143.868 564.097 -138.9 557.758 -154.85 558.197C-155.812 558.223 -161.664 563.305 -166.429 554.333C-164.727 551.105 -157.959 552.467 -158.712 547.313C-159.288 543.325 -163.791 544.975 -165.028 544.857C-165.113 544.851 -164.563 546.547 -166.082 546.259C-166.664 546.206 -166.363 544.864 -166.435 544.857C-169.047 544.478 -181.731 543.109 -181.168 539.592C-180.193 533.463 -159.811 543.954 -161.52 537.484C-162.344 534.373 -169.852 541.524 -174.499 532.218C-195.364 539.514 -183.609 543.528 -182.569 545.204C-182.248 545.715 -180.834 548.669 -181.515 549.068C-189.952 549.153 -192.766 544.17 -193.447 544.157C-193.997 544.144 -199.37 548.675 -199.409 549.422C-199.828 557.13 -179.355 557.784 -186.43 561.707C-187.327 562.205 -199.671 563.711 -203.271 564.517C-206.419 562.021 -195.076 558.465 -208.18 551.878C-209.391 551.268 -208.972 553.731 -210.287 553.279C-210.994 549.337 -219.287 547.018 -217.657 550.122C-207.375 555.073 -226.113 557.536 -234.851 553.986V559.605C-256.214 553.692 -247.274 567.778 -256.6 568.734C-259.467 569.029 -266.451 565.23 -267.125 565.224C-279.273 565.126 -259.219 575.728 -265.724 577.863C-270.672 579.48 -274.069 572.028 -282.565 576.461C-295.596 566.599 -304.923 581.229 -316.946 579.271C-326.378 577.738 -336.889 569.395 -323.609 562.775C-338.598 561.085 -326.339 555.211 -327.118 552.244C-327.687 550.064 -333.826 550.627 -334.134 549.435C-336.83 539.049 -318.884 545.394 -318.347 539.258C-307.096 541.74 -307.679 537.117 -305.715 536.449C-303.418 535.67 -297.514 536.534 -291.682 530.83C-285.104 529.193 -266.379 537.759 -270.28 524.864C-254.408 514.642 -270.025 506.777 -279.404 522.408L-280.457 523.81C-288.92 521.492 -293.063 527.405 -293.79 527.32C-300.06 516.095 -275.804 518.99 -278.703 511.525C-280.045 508.073 -286.924 513.849 -287.474 513.98C-295.112 515.827 -287.965 504.269 -298.352 510.47C-294.209 518.957 -299.582 513.803 -300.459 518.545C-296.395 539.101 -304.183 524.779 -315.546 526.619C-318.308 521.099 -322.163 523.266 -326.424 525.919C-326.502 526.108 -326.358 526.397 -326.424 526.619C-326.463 526.757 -324.532 527.89 -326.777 529.429C-336.876 519.841 -336.202 550.319 -338.355 528.728C-338.735 535.735 -341.117 537.019 -341.163 537.503C-342.034 546.717 -333.898 569.598 -329.938 578.924C-329.493 579.971 -328.014 579.919 -327.831 580.325C-327.785 580.43 -329.088 581.216 -328.531 582.434C-320.219 600.646 -306.867 616.945 -306.075 618.943C-305.859 619.493 -306.121 620.076 -306.775 619.997C-265.98 672.125 -192.845 692.976 -133.814 717.586L-133.461 718.987C-122 718.987 -110.54 718.987 -99.0793 718.987C-101.357 714.54 -94.5763 715.562 -94.1705 718.987C-42.0125 719.007 10.1455 719.02 62.3035 718.987C42.0922 697.763 50.6073 711.266 46.5166 712.667C44.0426 713.512 34.4344 698.084 34.5849 711.266C24.6691 705.765 17.1684 710.31 16.3437 709.865C15.002 709.138 24.2764 692.281 -4.70538 709.865C-7.80122 708.005 6.54566 700.382 -6.10604 702.144C-8.52773 702.478 -14.0649 705.785 -16.6306 707.055C-26.5006 688.267 -26.7362 709.904 -27.8554 709.865C-38.2229 697.638 -34.7671 708.85 -36.9793 709.865C-40.7951 711.62 -50.8942 698.562 -51.012 694.416C-64.4622 699.616 -57.2495 703.165 -60.8363 705.647C-68.5137 694.102 -69.9863 709.976 -74.1686 698.627C-76.5511 701.587 -104.171 690.068 -95.918 687.396C-85.5506 684.037 -69.8816 702.131 -71.7077 689.852C-72.0087 687.828 -74.7315 680.939 -76.6165 678.621C-62.8783 678.451 -68.3108 673.971 -67.4926 672.301C-63.8208 664.757 -58.4669 672.131 -54.5137 669.846C-53.3748 669.191 -52.5829 665.131 -51.3589 663.88C-38.7072 651.005 -37.8826 660.546 -36.9728 660.723C-35.6965 660.972 -31.5011 650.134 -23.6404 653.002C-14.8699 634.856 -4.52211 636.801 -3.29163 636.153C-2.08733 635.517 0.177265 627.862 8.64009 631.241C18.2614 613.389 18.3596 622.446 19.1646 622.819C20.0613 623.239 21.6321 620.894 24.0735 620.711C24.5513 620.678 26.6784 626.29 29.6892 617.201C30.8607 619.329 36.4437 619.964 38.1062 619.309C42.066 617.751 30.5269 615.184 50.7382 611.588V610.187C48.0504 609.838 45.3604 609.486 42.6681 609.133C55.6078 602.021 37.0655 585.97 37.7593 595.793C37.8378 596.939 41.7976 603.501 39.5134 603.868C35.3507 597.417 33.4526 606.055 19.1646 612.996C22.0249 601.104 12.3119 610.875 7.93976 612.996C7.84159 613.042 6.97763 611.706 5.83224 612.296C4.54285 612.957 3.39747 616.035 3.0244 615.806C1.80701 615.066 4.18942 610.96 0.216541 615.105C-5.13736 607.476 -17.7432 607.594 -3.64507 617.561C-13.9274 616.788 -14.1696 622.125 -15.2234 622.125C-15.9892 622.125 -19.8181 615.911 -20.8391 615.806C-21.4936 615.74 -29.0008 623.042 -32.0639 621.425C-33.0981 620.874 -29.7797 615.839 -32.0639 615.105C-36.0826 613.822 -41.5805 622.603 -43.9957 614.404C-66.6418 626.153 -54.0621 617.319 -58.7287 615.806C-59.7956 615.459 -63.991 620.004 -64.3444 620.017C-66.9363 620.115 -65.156 614.948 -67.8526 615.105C-68.6707 615.151 -69.3383 619.82 -77.6768 617.915C-77.055 628.988 -81.3551 624.064 -81.8853 624.234C-84.163 624.948 -84.451 629.001 -84.6932 629.145C-91.3888 633.147 -93.6534 622.093 -96.6249 620.724C-106.004 616.389 -112.209 626.873 -123.99 617.214C-126.916 618.825 -115.324 623.599 -115.22 625.989C-114.807 635.393 -141.315 625.341 -139.076 618.969C-138.658 617.77 -119.31 601.464 -142.938 613.704C-161.12 600.39 -140.222 618.34 -155.57 613.704C-162.619 620.933 -164.753 612.112 -168.202 611.595C-179.172 609.951 -179.944 626.467 -192.059 615.105C-195.495 621.477 -186.64 618.393 -185.396 621.772C-181.816 631.49 -210.353 627.39 -211.361 625.282C-214.136 619.467 -201.608 620.102 -200.836 618.262C-198.081 611.706 -215.471 613.861 -184.349 602.466C-166.625 603.272 -171.265 598.956 -169.616 598.255C-167.502 597.358 -160.931 599.087 -160.492 598.956C-158.633 598.413 -158.404 591.936 -138.743 589.126C-143.193 599.526 -132.885 593.769 -126.811 584.916L-127.511 591.235C-109.25 566.92 -80.9952 543.482 -71.7273 513.659C-67.9115 501.374 -59.6123 448.749 -59.0953 435.73C-59.0429 434.335 -59.1411 432.705 -60.4959 431.866C-60.6464 434.532 -62.8783 441.604 -61.8966 450.471C-72.1135 461.545 -88.725 450.753 -91.0157 450.825C-91.5655 450.838 -99.6422 454.368 -101.187 455.036L-101.18 455.003Z" fill="#E42626"/>
<path d="M-23.9939 0.0720573L6.17911 36.9281C8.14265 42.4028 5.52459 94.0195 5.12534 105.382C-5.81154 95.8793 -16.5848 86.2593 -24.6942 74.1377C-24.8054 72.4023 -24.5371 70.6014 -24.6942 68.8726C-41.0766 79.6059 -29.2038 78.8266 -27.502 84.668C-27.3842 85.074 -28.2613 92.677 -28.2024 93.0896C-28.1435 93.4956 -22.8223 99.062 -27.1486 99.0555C-30.179 99.0555 -30.7353 90.2999 -34.8653 92.0353C-37.1234 96.2854 -42.9223 92.9455 -47.1439 99.7562C-47.1897 107.313 -49.0747 114.956 -48.5445 122.572C-46.6268 123.482 -45.2196 135.473 -45.0364 138.721C-44.107 155.086 -44.7877 171.536 -42.9289 187.862L-41.8751 188.917C-16.6437 172.735 -24.38 162.977 -23.2804 158.38C-23.1561 157.856 -22.351 158.02 -21.8798 158.026C-22.2987 138.845 -23.1561 119.645 -22.2332 100.457L2.67747 139.422C3.97995 144.864 3.18143 150.423 3.37779 155.918C6.0351 163.868 6.36237 170.456 4.77845 179.434C11.0748 176.088 5.92384 193.769 13.5489 185.4C19.0141 188.406 19.8977 183.848 21.619 186.454C22.267 187.437 22.7579 190.03 21.9724 191.019C20.3558 193.055 14.8187 185.773 16.7102 193.474C16.7626 193.691 19.6489 196.611 19.8649 196.631C27.0842 197.463 24.4072 173.94 25.8275 169.604C26.8944 166.363 29.9182 166.042 30.036 164.693C30.1669 163.226 24.8261 161.117 32.1436 158.026C31.6199 137.915 31.0309 117.765 30.7429 97.6475C28.0856 97.2153 29.159 104.674 28.2885 105.368C20.9449 96.233 16.9851 106.737 10.3941 100.103C10.6101 74.0133 8.96078 47.8971 8.9935 21.8202C8.123 21.8726 8.28662 22.8222 7.59284 22.1739C4.8308 19.5937 -5.0523 5.06871 -9.24771 0.05896C-14.1566 0.05896 -19.0719 0.05896 -23.9808 0.05896L-23.9939 0.0720573Z" fill="#242426"/>
<path d="M9.68739 0.0720825C9.08524 7.34113 8.9936 14.5512 8.98706 21.8334C8.96088 47.9102 10.6103 74.0264 10.3877 100.116C16.9786 106.75 20.9319 96.2461 28.282 105.382C29.1525 104.681 28.0791 97.2284 30.7365 97.6606C30.5597 85.5193 28.3606 13.1826 29.3358 8.84732C30.0689 5.58608 35.4097 2.82253 37.0525 0.0720825C27.9286 0.0720825 18.8113 0.0720825 9.68739 0.0720825Z" fill="#3C3C3E"/>
<path d="M41.2608 0.0720825C56.2753 11.5978 67.2057 36.8888 69.3263 55.1858C70.223 62.9133 69.3656 65.4476 69.3263 70.9813C72.1276 71.4659 69.8564 65.4673 71.0804 60.451C73.2075 73.5549 73.3777 73.8103 82.6587 82.2123C86.2454 85.4604 102.752 96.0955 103.708 99.7627C120.116 93.1224 106.764 82.6969 106.516 81.5116C94.5577 75.1855 82.5932 61.9768 81.9584 47.812C78.2931 42.5665 77.0953 32.8417 74.2417 26.0507C70.1706 16.3652 64.0051 7.53759 56.7008 0.0720825C51.5563 0.0720825 46.4118 0.0720825 41.2608 0.0720825Z" fill="#242426"/>
<path d="M76.3494 0.0720825C75.6468 8.72945 74.9443 17.389 74.2418 26.0507C77.0955 32.8417 78.2998 42.5665 81.9585 47.812C81.7164 42.4224 82.469 37.9955 85.4667 33.7716C88.3465 27.7337 85.5583 20.8707 87.5742 14.8132C87.3386 9.8973 87.1051 4.9836 86.8739 0.0720825C83.3657 0.0720825 79.8575 0.0720825 76.3494 0.0720825Z" fill="#58575B"/>
<path d="M69.333 70.9747C69.1301 97.7195 65.8313 124.608 65.1245 151.36C58.0034 166.14 57.8267 182.774 53.1927 198.399C52.3419 214.339 48.5522 229.983 46.8767 245.785C46.4055 250.238 45.3517 254.613 45.476 259.125C45.2404 261.465 45.007 263.805 44.7757 266.145C44.1605 281.122 43.807 296.092 43.3751 311.076C43.2638 315.031 42.0268 315.81 41.9744 318.797C41.9351 320.899 41.9875 323.007 41.9744 325.116C41.8959 338.115 42.6486 361.684 50.3914 372.502C59.319 384.971 73.1095 370.754 75.649 376.013C77.4031 379.641 70.5569 387.656 61.6163 387.244C65.9099 403.943 62.4803 401.579 60.2156 387.597C58.7495 401.402 65.203 399.647 65.8313 400.236C60.8832 382.437 63.7565 390.616 70.7402 386.196C76.5588 382.515 76.297 378.115 76.7028 377.774C78.2409 376.484 90.3297 378.881 102.314 372.863C102.327 371.717 102.438 369.182 102.314 368.999C101.666 368.056 98.9692 369.405 98.8056 367.945C95.6574 366.196 98.9496 370.492 92.4896 369.346C92.3652 369.326 91.9856 370.905 90.3821 367.945C87.0375 371.769 84.5242 371.507 80.5578 368.298C99.8855 354.454 87.5676 345.771 86.8739 344.428C82.1548 335.299 91.8481 347.283 93.5368 347.585C94.6625 347.788 95.8603 346.223 95.9912 346.183C77.0562 338.58 79.9557 300.853 78.4503 282.995C77.9005 276.486 77.4489 269.858 77.0497 263.336C74.8636 227.809 69.8697 190.613 81.9585 156.271C82.6785 150.456 81.2582 143.816 81.2582 138.367C81.2451 119.71 80.08 100.837 82.6588 82.1991C73.3778 73.7906 73.2077 73.5352 71.0805 60.4379C69.8566 65.4607 72.1277 71.4528 69.3264 70.9682L69.333 70.9747Z" fill="#242426"/>
<path d="M137.396 111.694C140.118 117.346 133.063 130.653 133.887 135.211C141.015 140.443 138.737 147.548 148.62 145.387C152.397 132.637 154.779 129.382 156.337 113.089C157.096 105.165 157.103 97.1694 157.037 89.2193C151.343 83.6071 145.472 79.5862 139.497 74.4782C139.608 86.8945 139.006 99.3763 137.389 111.688L137.396 111.694Z" fill="#242426"/>
<path d="M159.145 112.402C158.209 124.202 158.87 136.376 159.145 148.21C165.71 144.995 163.681 147.215 168.969 148.21C168.269 132.545 167.928 116.848 167.568 101.171C165.998 98.931 164.44 96.9271 162.66 94.8512C160.788 98.9572 159.524 107.713 159.151 112.402H159.145Z" fill="#B6B6B7"/>
<path d="M90.3821 367.951C92.038 366.059 91.3704 355.751 105.822 363.04C110.286 360.538 107.262 358.213 114.946 358.829C118.238 357.021 121.844 359.66 118.454 355.319C118.114 355.279 117.309 353.138 111.791 353.917C106.954 354.598 102.896 362.732 103.721 346.196L102.32 344.795C100.776 342.595 96.3381 346.098 96.0043 346.196C95.8669 346.236 94.6757 347.801 93.5499 347.598C91.8613 347.297 82.1614 335.312 86.887 344.441C87.5808 345.784 99.8987 354.467 80.571 368.311C84.5373 371.52 87.0506 371.789 90.3952 367.958L90.3821 367.951Z" fill="#E42626"/>
<path d="M39.1599 325.123C40.77 346.399 40.6783 372.299 60.209 385.849V387.604C62.4736 401.585 65.9032 403.949 61.6096 387.25C70.5502 387.663 77.3964 379.647 75.6423 376.019C73.1028 370.76 59.3057 384.971 50.3847 372.509C42.6353 361.691 41.8826 338.122 41.9677 325.123H39.1599Z" fill="#B92126"/>
<path d="M85.4665 414.283C90.1332 422.816 96.2463 435.429 107.216 434.997C107.674 429.404 113.813 421.022 107.916 418.5C107.733 418.644 106.692 422.41 104.761 422.01C104.323 421.919 99.7937 415.377 98.4454 415.691C95.042 416.483 103.217 421.788 85.4665 414.29V414.283Z" fill="#E42626"/>
<path d="M156.337 113.102C157.271 112.867 158.207 112.633 159.145 112.402C159.518 107.713 160.781 98.9572 162.653 94.8512C160.827 92.7294 159.001 91.1643 157.037 89.2324C157.103 97.1825 157.096 105.178 156.337 113.102Z" fill="#9F9E9F"/>
<path d="M112.131 384.801C111.084 387.682 121.622 401.127 101.607 394.63C98.5044 395.056 96.2921 392.771 98.0985 396.032C101.941 395.534 102.778 397.329 103.007 397.433C110.089 399.103 114.095 401.69 114.939 400.59C115.365 392.221 120.332 383.118 112.131 384.794V384.801Z" fill="#282828"/>
<path d="M67.9258 402.351C72.4877 406.457 78.3718 414.499 84.7664 413.582C81.16 409.286 72.5466 403.589 67.9258 402.351Z" fill="#4E1D23"/>
<path d="M39.8603 320.211C39.8799 320.46 38.8654 321.266 39.16 325.123H41.9678C41.9809 323.021 41.9285 320.912 41.9678 318.803C41.2653 319.27 40.5628 319.737 39.8603 320.205V320.211Z" fill="#A29196"/>
<path d="M110.03 41.4925C107.628 46.5022 106.11 79.5404 106.522 81.5115C106.771 82.7034 120.123 93.1223 103.714 99.7627C101.757 128.04 96.7241 155.937 93.1898 184.012C90.0416 209.041 87.273 234.122 84.0659 259.132C82.842 268.673 81.5722 286.145 78.4502 283.001C79.9556 300.853 77.0561 338.587 95.9911 346.19C96.3249 346.085 100.762 342.581 102.307 344.788L103.708 346.19C102.883 362.725 106.941 354.592 111.778 353.911C117.302 353.138 118.107 355.273 118.441 355.312C120.162 355.515 120.182 356.458 121.249 354.958C121.641 348.587 121.465 341.999 121.949 335.653C120.64 334.238 117.001 330.748 117.04 330.388C117.093 329.831 120.018 328.659 121.249 327.231C122.289 326.02 123.127 326.799 123.356 326.177C124.934 321.861 126.072 269.439 126.164 259.832C122.165 266.374 121.007 252.373 119.848 245.091C116.7 225.353 116.935 205.334 117.04 185.413C117.256 144.235 122.741 103.626 124.757 62.5531C118.297 55.2971 115.849 46.4106 110.024 41.4925H110.03Z" fill="#58575B"/>
<path d="M121.255 327.231C120.025 328.659 117.099 329.831 117.047 330.388C117.014 330.748 120.653 334.238 121.956 335.653C122.113 333.57 125.941 327.984 121.255 327.231Z" fill="#992029"/>
<path d="M92.8363 320.211C91.2982 320.191 87.7376 320.866 87.574 322.667C87.2336 326.465 102.909 328.305 104.061 331.442C112.877 329.7 98.7269 320.277 92.8363 320.211Z" fill="#B92126"/>
<path d="M70.7335 386.202C76.4997 390.839 89.4198 389.411 95.2908 385.502C98.4848 383.373 102.268 376.818 102.307 372.863C90.323 378.881 78.2342 376.491 76.6961 377.774C76.2838 378.115 76.5456 382.515 70.7335 386.196V386.202Z" fill="#242426"/>
<path d="M90.3819 367.951C91.9854 370.918 92.365 369.333 92.4894 369.353C93.6741 366.432 95.402 362.824 98.8054 363.734C99.8657 363.603 100.632 365.934 105.822 363.033C91.3767 355.751 92.0378 366.052 90.3819 367.945V367.951Z" fill="#20343A"/>
<path d="M92.4896 369.353C98.9431 370.492 95.6574 366.203 98.8056 367.951C102.903 368.161 100.265 365.633 98.8056 363.74C95.4087 362.83 93.6742 366.438 92.4896 369.359V369.353Z" fill="#B92126"/>
<path d="M150.728 221.221C159.485 261.836 155.807 284.095 164.06 319.51C164.763 319.275 165.465 319.041 166.168 318.81C166.521 314.887 166.619 310.814 166.868 306.872V304.763C157.476 303.538 166.488 297.71 166.868 296.688C167.968 293.754 170.029 247.691 170.376 239.472C170.389 239.237 170.37 239.001 170.376 238.772C167.307 236.715 165.212 233.605 162.66 231.051C159.119 227.515 153.071 221.162 150.728 221.221Z" fill="#58575B"/>
<path d="M166.862 304.763C171.548 283.525 171.469 261.751 172.477 240.173L170.37 239.472C170.023 247.698 167.961 293.761 166.862 296.688C166.482 297.703 157.469 303.538 166.862 304.763Z" fill="#B13B3E"/>
<path d="M95.2908 385.501C89.4198 389.418 76.4997 390.839 70.7335 386.202C63.7499 390.629 60.8765 382.45 65.8247 400.243C66.5446 400.911 67.1402 401.637 67.9322 402.351C72.553 403.589 81.1664 409.286 84.7728 413.582C84.8055 413.622 85.5516 413.432 85.4731 414.283C103.23 421.788 95.0551 416.483 98.452 415.684C99.8003 415.37 104.33 421.912 104.768 422.004C106.705 422.403 107.74 418.638 107.923 418.494C110.246 416.647 111.372 420.478 112.131 418.847C113.964 414.905 112.256 403.517 109.677 399.542C107.026 400.033 105.2 398.415 103.014 397.433C100.913 396.935 100.16 399.732 98.1051 396.032C96.2987 392.771 98.511 395.056 101.613 394.63C101.535 394.604 101.888 393.458 101.26 393.229C100.383 392.901 99.964 394.303 99.1524 393.93C87.3646 388.501 99.964 388.782 95.2908 385.508V385.501Z" fill="#242426"/>
<path d="M89.3281 394.63C88.798 394.342 77.9724 395.848 77.3964 396.032C64.3716 400.249 85.8527 408.016 88.6213 407.263C93.5432 405.92 82.5867 404.237 84.0593 399.889C84.2164 399.417 92.064 396.104 89.3216 394.624L89.3281 394.63Z" fill="#E42626"/>
<path d="M98.0985 396.032C100.154 399.738 100.906 396.942 103.007 397.433C102.772 397.328 101.934 395.528 98.0985 396.032Z" fill="#242426"/>
<path d="M105.815 363.033C100.625 365.941 99.8593 363.609 98.799 363.734C100.259 365.626 102.896 368.161 98.799 367.945C98.9626 369.405 101.659 368.056 102.307 368.999C102.432 369.182 102.32 371.717 102.307 372.863C102.268 376.818 98.4848 383.367 95.2908 385.502C99.964 388.776 87.3581 388.501 99.1524 393.923C99.964 394.296 100.383 392.895 101.26 393.222C101.882 393.452 101.535 394.604 101.613 394.624C121.628 401.127 111.091 387.676 112.138 384.794C113.224 381.821 115.81 384.369 117.047 383.039C117.878 382.149 120.3 359.739 119.501 358.816C119.351 358.645 118.244 359.078 114.939 358.816C107.255 358.207 110.279 360.531 105.815 363.026V363.033Z" fill="#3C3C3E"/>
<path d="M117.394 363.74C99.4861 370.813 104.709 381.736 111.431 374.624C111.856 374.172 118.114 364.172 117.394 363.74Z" fill="#242426"/>
<path d="M19.5116 470.451C18.5298 470.615 16.4027 470.556 15.3031 470.451C10.1063 469.967 10.643 468.716 6.53263 467.642C6.12029 467.969 6.75517 476.98 6.88608 478.172C7.88093 487.504 8.64017 488.408 25.8342 493.267C34.0418 478.761 20.4214 503.457 47.5836 499.586C22.9412 490.569 39.1993 490.66 40.2138 490.11C40.8748 489.75 40.4559 488.768 40.5672 488.709C56.1446 469.541 57.2507 485.428 62.6701 483.797C67.3433 482.389 64.627 480.484 66.5317 474.669C66.7804 473.902 67.5854 473.247 67.232 471.158C66.2502 471.178 65.6874 473.123 65.1245 472.213C63.5864 461.912 57.6958 471.152 49.6845 466.247C49.4555 466.227 49.2133 466.267 48.9842 466.247C47.0796 466.09 41.7846 464.57 40.2138 463.438C36.11 465.219 31.4302 466.45 26.8814 466.247C24.2306 468.388 23.0721 469.855 19.5116 470.458V470.451Z" fill="#242426"/>
<path d="M164.06 319.51C159.97 375.397 148.038 430.478 134.588 484.845L133.534 485.9C107.825 475.343 99.7678 489.121 132.834 488.709C132.101 502.153 129.784 494.701 125.117 495.028C123.304 495.153 105.213 505.362 90.0352 497.838C86.8739 496.273 82.9403 491.761 84.7729 488.362C85.2311 487.51 103.139 485.919 92.843 477.478C84.2035 470.399 79.6088 480.667 78.8103 480.988C77.9791 481.322 68.2662 480.287 61.9698 485.9C58.7627 486.594 56.8908 479.351 51.4452 480.281C50.2147 480.49 46.7786 485.009 40.5673 488.702C40.456 488.768 40.8749 489.75 40.2138 490.104C39.1928 490.66 22.9413 490.569 47.5836 499.58C20.4214 503.45 34.0352 478.755 25.8342 493.26C8.64677 488.401 7.88098 487.497 6.88612 478.166C3.35176 469.01 6.21199 442.58 1.27043 447.629C3.80339 498.892 14.2428 538.086 46.1764 578.917C50.5158 591.674 44.7561 601.497 52.139 601.032C60.7066 600.488 51.4321 588.046 53.5397 587.692C60.8571 590.515 66.2437 594.215 71.0806 600.331C115.234 579.775 134.856 505.336 145.813 460.268C150.381 441.48 158.608 396.844 161.253 377.427C162.607 367.44 163.066 357.251 164.06 347.238C164.073 347.113 165.448 345.26 165.461 345.129C166.482 334.933 165.893 321.789 166.161 318.803C165.459 319.039 164.756 319.273 164.054 319.504L164.06 319.51Z" fill="#E42626"/>
<path d="M34.2448 521.001C36.1167 520.876 39.1144 520.529 38.8068 523.81C35.8484 523.325 23.2752 527.189 30.0363 522.408C21.2921 524.576 13.2023 520.339 23.3734 526.619C41.379 521.544 81.5136 529.01 84.4196 528.021C88.2944 526.711 83.5622 521.354 83.3659 521.001C90.9386 533.345 59.1555 521.177 41.6146 523.81C39.8213 515.67 52.9311 518.388 58.8086 517.49C53.6642 517.141 48.5175 516.79 43.3687 516.436C48.9801 514.799 54.5936 513.162 60.2093 511.525L51.4389 504.151C44.5861 504.223 37.2818 505.022 31.7904 499.94C27.6081 504.039 18.6675 493.745 10.041 491.518C8.2673 492.894 14.099 518.46 19.1649 519.599C27.4248 521.459 41.4772 515.388 34.2514 521.001H34.2448Z" fill="#242426"/>
<path d="M58.8085 517.49C52.931 518.388 39.8277 515.67 41.6145 523.81C59.1554 521.177 90.9384 533.345 83.3657 521.001C75.0993 506.246 69.5948 515.84 58.8085 517.49Z" fill="#20343A"/>
<path d="M115.993 513.98C113.742 512.232 111.385 517.949 109.677 518.892C109.304 519.101 100.043 518.492 103.014 522.048C106.464 526.181 120.627 517.576 115.993 513.974V513.98Z" fill="#0D3649"/>
<path d="M77.4032 532.232C67.9128 530.169 76.2644 542.317 81.6117 538.551C84.8385 536.279 77.8483 532.33 77.4032 532.232Z" fill="#1E4851"/>
<path d="M85.8203 553.999C81.5921 553.443 75.8848 558.243 81.6118 559.618C86.429 560.771 92.9414 554.936 85.8203 553.999Z" fill="#0D3649"/>
<path d="M43.0152 547.68C40.3055 547.038 36.8497 549.468 36.6992 549.789C33.4921 556.527 52.414 549.9 43.0152 547.68Z" fill="#0D3649"/>
<path d="M58.4551 535.041C57.6566 534.772 50.2344 538.282 50.3849 538.905C50.5355 539.533 57.0872 545.001 58.4551 535.041Z" fill="#20343A"/>
<path d="M52.8396 526.619C41.0256 532.186 50.1626 529.33 50.732 529.429C54.646 530.084 63.3772 535.506 52.8396 526.619Z" fill="#1E4851"/>
<path d="M65.4715 529.422C63.6193 528.892 62.8928 531.19 58.8086 531.177C67.2322 537.313 68.803 530.378 65.4715 529.422Z" fill="#1E4851"/>
<path d="M61.2629 496.43C60.2681 496.174 56.5243 496.954 56.3541 497.131C50.313 503.398 68.7636 498.375 61.2629 496.43Z" fill="#20343A"/>
<path d="M103.715 549.081C96.1812 553.6 104.389 554.281 104.768 553.993C106.529 552.657 103.08 549.651 103.715 549.081Z" fill="#20343A"/>
<path d="M109.677 530.129C104.566 528.198 103.505 534.314 108.277 533.639C108.525 533.607 111.837 530.941 109.677 530.129Z" fill="#20343A"/>
<path d="M103.715 549.081C104.67 548.23 107.622 553.155 108.623 550.136C109.206 548.381 106.47 546.992 106.169 546.979C103.728 546.829 104.323 548.721 103.715 549.088V549.081Z" fill="#20343A"/>
<path d="M30.0364 522.402C32.0261 521.911 31.9541 522.782 34.2449 521.001C31.7643 521.164 32.0719 520.961 30.0364 522.402Z" fill="#242426"/>
<path d="M34.2447 521.001C31.9539 522.782 32.0194 521.911 30.0362 522.402C23.2817 527.182 35.8483 523.319 38.8067 523.803C39.1143 520.522 36.1166 520.876 34.2447 520.994V521.001Z" fill="#20343A"/>
</g>
<defs>
<linearGradient id="paint0_linear_108_2674" x1="654.5" y1="719" x2="-70.5" y2="719" gradientUnits="userSpaceOnUse">
<stop stop-color="#282828"/>
<stop offset="1" stop-color="#282828" stop-opacity="0"/>
</linearGradient>
<linearGradient id="paint1_linear_108_2674" x1="543.557" y1="719.023" x2="38.619" y2="719.023" gradientUnits="userSpaceOnUse">
<stop stop-color="#282828"/>
<stop offset="1" stop-color="#282828" stop-opacity="0"/>
</linearGradient>
<linearGradient id="paint2_linear_108_2674" x1="90.4062" y1="247.547" x2="49.414" y2="247.547" gradientUnits="userSpaceOnUse">
<stop stop-color="#282828"/>
<stop offset="1" stop-color="#282828" stop-opacity="0"/>
</linearGradient>
<linearGradient id="paint3_linear_108_2674" x1="23.4138" y1="105.381" x2="-9.34144" y2="105.381" gradientUnits="userSpaceOnUse">
<stop stop-color="#282828"/>
<stop offset="1" stop-color="#282828" stop-opacity="0"/>
</linearGradient>
<linearGradient id="paint4_linear_108_2674" x1="169.123" y1="66.0632" x2="149.317" y2="66.0632" gradientUnits="userSpaceOnUse">
<stop stop-color="#282828"/>
<stop offset="1" stop-color="#282828" stop-opacity="0"/>
</linearGradient>
<linearGradient id="paint5_linear_108_2674" x1="190.916" y1="77.6335" x2="168.272" y2="77.6335" gradientUnits="userSpaceOnUse">
<stop stop-color="#282828"/>
<stop offset="1" stop-color="#282828" stop-opacity="0"/>
</linearGradient>
<linearGradient id="paint6_linear_108_2674" x1="151.685" y1="51.3221" x2="133.078" y2="51.3221" gradientUnits="userSpaceOnUse">
<stop stop-color="#282828"/>
<stop offset="1" stop-color="#282828" stop-opacity="0"/>
</linearGradient>
<linearGradient id="paint7_linear_108_2674" x1="86.3375" y1="26.0507" x2="66.5251" y2="26.0507" gradientUnits="userSpaceOnUse">
<stop stop-color="#282828"/>
<stop offset="1" stop-color="#282828" stop-opacity="0"/>
</linearGradient>
<linearGradient id="paint8_linear_108_2674" x1="19.3197" y1="22.4163" x2="0.213449" y2="22.4163" gradientUnits="userSpaceOnUse">
<stop stop-color="#282828"/>
<stop offset="1" stop-color="#282828" stop-opacity="0"/>
</linearGradient>
<linearGradient id="paint9_linear_108_2674" x1="174.319" y1="28.4967" x2="163.707" y2="28.4967" gradientUnits="userSpaceOnUse">
<stop stop-color="#282828"/>
<stop offset="1" stop-color="#282828" stop-opacity="0"/>
</linearGradient>
<linearGradient id="paint10_linear_108_2674" x1="105.927" y1="14.8131" x2="93.1898" y2="14.8131" gradientUnits="userSpaceOnUse">
<stop stop-color="#282828"/>
<stop offset="1" stop-color="#282828" stop-opacity="0"/>
</linearGradient>
<linearGradient id="paint11_linear_108_2674" x1="16.7218" y1="268.964" x2="-9.59529" y2="268.964" gradientUnits="userSpaceOnUse">
<stop stop-color="#282828"/>
<stop offset="1" stop-color="#282828" stop-opacity="0"/>
</linearGradient>
<linearGradient id="paint12_linear_108_2674" x1="174.991" y1="231.044" x2="150.701" y2="231.044" gradientUnits="userSpaceOnUse">
<stop stop-color="#282828"/>
<stop offset="1" stop-color="#282828" stop-opacity="0"/>
</linearGradient>
<linearGradient id="paint13_linear_108_2674" x1="124.312" y1="81.505" x2="95.9701" y2="81.505" gradientUnits="userSpaceOnUse">
<stop stop-color="#282828"/>
<stop offset="1" stop-color="#282828" stop-opacity="0"/>
</linearGradient>
<linearGradient id="paint14_linear_108_2674" x1="135.034" y1="185.413" x2="123.01" y2="185.413" gradientUnits="userSpaceOnUse">
<stop stop-color="#282828"/>
<stop offset="1" stop-color="#282828" stop-opacity="0"/>
</linearGradient>
<linearGradient id="paint15_linear_108_2674" x1="145.619" y1="141.89" x2="133.5" y2="141.89" gradientUnits="userSpaceOnUse">
<stop stop-color="#282828"/>
<stop offset="1" stop-color="#282828" stop-opacity="0"/>
</linearGradient>
<linearGradient id="paint16_linear_108_2674" x1="54.0157" y1="266.145" x2="39.8549" y2="266.145" gradientUnits="userSpaceOnUse">
<stop stop-color="#282828"/>
<stop offset="1" stop-color="#282828" stop-opacity="0"/>
</linearGradient>
<linearGradient id="paint17_linear_108_2674" x1="181.33" y1="194.871" x2="172.13" y2="194.871" gradientUnits="userSpaceOnUse">
<stop stop-color="#282828"/>
<stop offset="1" stop-color="#282828" stop-opacity="0"/>
</linearGradient>
<linearGradient id="paint18_linear_108_2674" x1="11.2517" y1="299.151" x2="-8.55652" y2="299.151" gradientUnits="userSpaceOnUse">
<stop stop-color="#282828"/>
<stop offset="1" stop-color="#282828" stop-opacity="0"/>
</linearGradient>
<linearGradient id="paint19_linear_108_2674" x1="189.276" y1="73.7841" x2="167.248" y2="73.7841" gradientUnits="userSpaceOnUse">
<stop stop-color="#282828"/>
<stop offset="1" stop-color="#282828" stop-opacity="0"/>
</linearGradient>
<linearGradient id="paint20_linear_108_2674" x1="131.581" y1="245.091" x2="121.831" y2="245.091" gradientUnits="userSpaceOnUse">
<stop stop-color="#282828"/>
<stop offset="1" stop-color="#282828" stop-opacity="0"/>
</linearGradient>
<linearGradient id="paint21_linear_108_2674" x1="49.048" y1="315.293" x2="40.5608" y2="315.293" gradientUnits="userSpaceOnUse">
<stop stop-color="#282828"/>
<stop offset="1" stop-color="#282828" stop-opacity="0"/>
</linearGradient>
<linearGradient id="paint22_linear_108_2674" x1="182.828" y1="306.912" x2="172.154" y2="306.912" gradientUnits="userSpaceOnUse">
<stop stop-color="#282828"/>
<stop offset="1" stop-color="#282828" stop-opacity="0"/>
</linearGradient>
<linearGradient id="paint23_linear_108_2674" x1="129.549" y1="261.527" x2="123.068" y2="261.527" gradientUnits="userSpaceOnUse">
<stop stop-color="#282828"/>
<stop offset="1" stop-color="#282828" stop-opacity="0"/>
</linearGradient>
<linearGradient id="paint24_linear_108_2674" x1="50.4636" y1="274.573" x2="40.5574" y2="274.573" gradientUnits="userSpaceOnUse">
<stop stop-color="#282828"/>
<stop offset="1" stop-color="#282828" stop-opacity="0"/>
</linearGradient>
<linearGradient id="paint25_linear_108_2674" x1="45.508" y1="320.205" x2="41.2644" y2="320.205" gradientUnits="userSpaceOnUse">
<stop stop-color="#282828"/>
<stop offset="1" stop-color="#282828" stop-opacity="0"/>
</linearGradient>
<linearGradient id="paint26_linear_108_2674" x1="115.259" y1="184.05" x2="92.3463" y2="184.05" gradientUnits="userSpaceOnUse">
<stop stop-color="#282828"/>
<stop offset="1" stop-color="#282828" stop-opacity="0"/>
</linearGradient>
<linearGradient id="paint27_linear_108_2674" x1="102.87" y1="263.342" x2="83.6692" y2="263.342" gradientUnits="userSpaceOnUse">
<stop stop-color="#282828"/>
<stop offset="1" stop-color="#282828" stop-opacity="0"/>
</linearGradient>
<linearGradient id="paint28_linear_108_2674" x1="87.6329" y1="283.375" x2="80.558" y2="283.375" gradientUnits="userSpaceOnUse">
<stop stop-color="#282828"/>
<stop offset="1" stop-color="#282828" stop-opacity="0"/>
</linearGradient>
<linearGradient id="paint29_linear_108_2674" x1="178.467" y1="238.765" x2="165.546" y2="238.765" gradientUnits="userSpaceOnUse">
<stop stop-color="#282828"/>
<stop offset="1" stop-color="#282828" stop-opacity="0"/>
</linearGradient>
<linearGradient id="paint30_linear_108_2674" x1="175.669" y1="240.167" x2="172.13" y2="240.167" gradientUnits="userSpaceOnUse">
<stop stop-color="#282828"/>
<stop offset="1" stop-color="#282828" stop-opacity="0"/>
</linearGradient>
<clipPath id="clip0_108_2674">
<rect width="658" height="719" fill="white" transform="matrix(-1 0 0 1 228 0)"/>
</clipPath>
</defs>
</svg>
