<svg width="539" height="723" viewBox="0 0 539 723" fill="none" xmlns="http://www.w3.org/2000/svg">
<g opacity="0.5" clip-path="url(#clip0_108_2436)">
<path d="M367.349 0C367.116 17.6187 365.282 35.5573 365.628 53.16C365.652 54.5836 369.495 65.7402 366.488 81.0237C370.163 93.8118 368.289 108.239 368.209 121.747C373.395 113.43 380.518 117.509 383.292 112.318C388.373 110.199 389.057 120.884 392.771 120.892C398.094 120.892 391.549 114.094 391.477 113.606C391.404 113.094 392.482 103.809 392.337 103.321C390.247 96.1871 375.662 97.1388 395.786 84.0307C393.35 57.7666 395.883 26.744 394.926 0.0079976C385.728 0.0079976 376.538 0.0079976 367.341 0.0079976L367.349 0Z" fill="#3C3C3E"/>
<path d="M178.585 0C177.58 7.27781 174.605 13.9798 171.261 20.5778L160.479 0C155.309 0 150.14 0 144.962 0C151.82 9.74107 154.296 16.4591 155.301 28.2955C158.959 28.2635 159.136 35.9572 162.626 36.0132C168.173 36.1011 169.098 17.4747 173.399 29.1512C175.144 22.0254 182.155 6.94991 186.328 0C183.739 0 181.158 0 178.569 0H178.585Z" fill="#242426"/>
<path d="M206.162 0V36.0132C206.661 35.6853 214.355 32.7342 216.936 30.8707L217.37 28.2955V0C213.632 0 209.901 0 206.162 0Z" fill="#3C3C3E"/>
<path d="M353.56 385.836L350.111 391.834C350.111 392.122 350.111 392.402 350.111 392.69C355.675 395.281 347.659 404.39 347.522 405.118C345.472 416.507 357.074 427.423 335.454 424.408C333.774 426.328 333.026 427.695 332.865 427.839C344.507 427.695 321.585 444.514 309.589 439.844C303.213 442.835 296.765 445.826 290.623 449.273C306.397 461.133 311.864 455.503 310.449 461.701C308.882 468.579 290.036 466.452 285.019 464.7C284.593 464.556 280.846 461.333 277.694 459.558C277.542 459.47 276.432 457.886 274.679 457.846C276.32 463.021 267.186 458.71 263.906 461.277C277.188 472.97 269.896 473.386 255.287 463.853C252.055 466.06 248.268 467.763 244.947 469.851C245.253 472.442 245.767 472.954 245.808 473.282C258.615 467.955 257.956 476.769 245.808 476.713C245.88 485.102 247.223 493.292 248.397 501.577H285.887C286.49 493.156 298.269 504.888 294.94 496.859C294.852 496.651 291.684 493.988 291.491 493.86C289.618 492.58 281.127 491.7 281.152 489.141C281.184 484.454 293.179 489.533 294.94 490.429C296.789 491.364 297.417 491.204 297.529 491.284C300.512 491.692 299.981 490.429 300.118 490.429C298.052 489.053 299.531 486.822 300.118 485.286C302.152 479.944 302.224 481.391 306.148 478.424C307.402 477.48 306.976 477.6 308.737 476.713C308.906 476.625 308.914 475.969 312.186 475.001C317.099 473.538 317.002 472.834 322.526 474.145C323.603 474.401 325.131 473.562 325.114 475.001C326.425 474.033 324.069 466.82 339.337 468.139C350.963 453.8 343.703 472.506 348.816 461.277C350.746 461.045 349.46 462.629 350.971 464.708C356.784 439.212 355.007 412.684 356.141 386.684C354.79 385.668 353.648 385.924 353.552 385.828L353.56 385.836Z" fill="#3C3C3E"/>
<path d="M342.352 0C343.438 3.47096 345.311 3.51894 345.801 0C344.652 0 343.502 0 342.352 0Z" fill="#DBEBF4"/>
<path d="M412.598 406.414C411.215 428.231 417.14 450.697 417.341 472.866L420.356 473.298C420.477 452.312 426.579 423.305 412.598 406.422V406.414Z" fill="#3C3C3E"/>
<path d="M425.96 350.679V382.829C405.724 376.055 425.365 390.898 425.96 393.978L425.1 411.98C424.795 412.524 421.587 411.02 420.791 410.693C420.148 415.331 424.433 414.715 425.1 422.265C425.357 425.128 422.029 468.027 421.651 479.712C421.651 479.92 419.93 483.359 419.93 483.567V488.709C420.011 497.091 423.741 523.835 426.829 531.152C431.572 542.405 424.875 511.974 424.24 498.57C423.235 477.105 428.171 437.309 428.549 411.972C428.855 391.346 427.906 370.473 427.689 349.815C425.695 349.495 426.041 350.615 425.968 350.671L425.96 350.679Z" fill="#B92126"/>
<path d="M427.689 312.954C427.528 313.746 427.038 315.745 426.829 316.385C427.142 326.638 427.576 337.011 427.689 347.248C430.053 342.329 431.178 315.665 427.689 312.954Z" fill="#992029"/>
<path d="M486.301 569.317C486.59 569.341 486.88 569.293 487.161 569.317C510.63 571.58 511.313 563.535 507.414 562.455C504.801 561.735 500.057 564.166 499.655 564.166C487.917 564.166 479.692 559.28 486.293 569.309L486.301 569.317Z" fill="#E42626"/>
<path d="M444.927 574.459C446.286 574.587 448.891 574.659 450.097 574.459C448.979 560.408 422.841 565.398 444.927 574.459Z" fill="#E42626"/>
<path d="M531.55 564.174C527.586 563.543 520.173 570.46 525.52 572.748C530.979 575.083 539.108 565.374 531.55 564.174Z" fill="#E42626"/>
<path d="M508.708 575.315C509.143 577.866 508.154 578.666 507.848 579.602C516.523 585.224 521.436 575.875 516.901 574.459C516.507 574.339 515.309 575.203 508.716 575.315H508.708Z" fill="#B92126"/>
<path d="M472.078 562.455C459.005 558.08 462.309 570.956 472.938 566.742C475.294 565.806 473.517 562.935 472.078 562.455Z" fill="#B92126"/>
<path d="M348.39 499.01C347.635 501.057 350.28 503.017 350.111 505.008C350.223 505.088 349.789 506.256 352.7 505.864C356.503 495.355 349.46 496.091 348.39 499.002V499.01Z" fill="#282828"/>
<path d="M419.93 488.717V483.575C419.89 485.486 419.914 486.846 419.93 488.717Z" fill="#58575B"/>
<path d="M9.64015 394.409C9.61603 394.945 7.94369 401.127 7.91957 401.695C5.33069 456.583 4.4141 511.51 0.160931 566.318C-0.844072 640.695 1.59209 696.487 49.2936 757.084C50.0976 757.18 50.4191 756.469 50.1538 755.797C49.189 753.358 32.7873 733.459 22.5685 711.21C21.8851 709.723 23.485 708.763 23.4288 708.635C23.2036 708.139 21.3866 708.195 20.8399 706.923C15.9757 695.527 5.98191 667.583 7.05124 656.339C7.10752 655.747 10.0341 654.179 10.5004 645.622C9.5678 636.313 9.81701 625.332 7.05124 616.903C5.86131 542.717 11.9074 468.627 12.221 394.409H9.6321H9.64015Z" fill="#E42626"/>
<path d="M13.9495 318.096C12.7757 343.585 10.8381 368.953 9.64011 394.401H12.229C14.0701 367.937 17.5033 341.665 20.8479 315.521C19.5293 315.577 20.1243 314.306 19.9876 312.946C17.4148 322.127 18.9263 310.307 13.9576 318.088L13.9495 318.096Z" fill="#7E7D7D"/>
<path d="M260.465 358.396C257.015 362.187 254.346 366.538 250.985 370.401C246.724 375.295 242.166 379.934 237.197 384.117C237.888 396.689 237.149 409.405 239.786 421.841C266.505 404.977 293.225 388.115 319.945 371.256C314.51 369.937 298.028 367.657 294.948 365.258C294.032 364.546 283.99 347.687 282.88 345.536C270.113 345.336 267.677 350.479 260.473 358.396H260.465Z" fill="#66686B"/>
<path d="M199.272 292.376C197.769 316.177 195.654 339.658 197.551 363.539C202.367 364.171 203.163 368.705 206.17 368.681C206.934 342.425 207.376 316.065 207.891 289.801C205.018 290.659 202.145 291.518 199.272 292.376Z" fill="#9F9E9F"/>
<path d="M197.543 363.539C185.001 361.891 188.249 374.551 184.615 380.686C186.32 386.572 196.981 407.214 204.442 408.125C204.972 394.953 205.784 381.877 206.162 368.681C203.155 368.705 202.359 364.17 197.543 363.539Z" fill="#7E7D7D"/>
<path d="M200.132 277.805C199.779 282.619 199.578 287.538 199.272 292.384C202.145 291.526 205.018 290.667 207.891 289.809C208.261 270.951 207.601 252.076 208.751 233.218C207.604 230.072 206.454 226.929 205.302 223.789C204.056 241.847 201.443 259.754 200.132 277.805Z" fill="#7E7D7D"/>
<path d="M243.227 454.423C243.251 454.663 242.254 458.126 242.367 459.142C242.712 462.421 244.738 468.043 244.955 469.859C248.276 467.771 252.063 466.06 255.295 463.861C258.037 461.989 259.87 463.413 261.325 459.574C264.227 451.936 248.284 454.208 243.227 454.431V454.423Z" fill="#E42626"/>
<path d="M248.405 501.585C249.345 508.247 249.667 518.188 250.125 525.162C251.452 527.361 252.055 530.001 252.714 532.448C253.577 533.018 254.44 533.589 255.303 534.159C255.142 533.52 255.504 527.897 253.582 522.155C251.701 514.221 254.266 507 251.862 501.577H248.413L248.405 501.585Z" fill="#4E1D23"/>
<path d="M198.412 468.139C196.828 469.435 194.022 471.29 194.102 473.282V474.137C194.995 474.897 195.413 475.673 195.823 476.713C206.669 473.77 200.189 472.786 200.993 466.428C200.124 466.86 199.135 467.547 198.404 468.139H198.412Z" fill="#B92126"/>
<path d="M245.816 473.29C245.84 473.458 243.452 475.425 245.816 476.721C257.964 476.777 258.623 467.963 245.816 473.29Z" fill="#992029"/>
<path d="M322.526 82.3113C310.385 169.333 314.775 257.491 313.907 345.104C306.574 352.166 299 368.905 298.389 346.392L295.801 348.103C295.913 353.862 295.495 359.532 294.94 365.25C298.02 367.658 314.502 369.929 319.937 371.248C332.077 310.707 326.425 249.069 327.695 187.768C323.86 188.863 323.876 185.304 323.386 182.193C322.815 178.586 319.969 144.181 319.937 140.182C319.848 126.874 326.369 91.5965 324.246 82.7351C324.093 82.0953 323.104 82.2953 322.526 82.3033V82.3113Z" fill="#B6B6B7"/>
<path d="M266.503 78.0245C264.549 138.094 265.803 198.756 264.782 258.938C264.34 285.074 265.112 311.25 264.782 337.386C259.998 346.496 263.287 351.718 260.473 358.396C267.676 350.479 270.121 345.336 282.88 345.536C280.412 340.737 278.852 335.539 275.122 331.388C274.406 239.024 273.811 146.7 269.091 54.4476C266.221 62.0134 266.76 70.1629 266.503 78.0245Z" fill="#58575B"/>
<path d="M264.774 258.938C265.795 198.756 264.549 138.102 266.495 78.0245C262.981 94.6115 261.872 114.006 261.325 131.608C260.014 173.852 263.833 216.231 261.325 258.506L264.774 258.938Z" fill="#CCCDD0"/>
<path d="M291.499 289.801C292.633 309.187 295.431 328.685 295.809 348.103L298.397 346.392C298.092 335.259 300.729 323.863 300.118 312.522C299.644 303.757 296.026 291.792 295.809 288.089C291.925 285.522 294.562 290.073 291.499 289.801Z" fill="#9F9E9F"/>
<path d="M277.711 459.566C280.862 461.349 284.617 464.564 285.035 464.708C290.052 466.46 308.89 468.587 310.466 461.709C311.881 455.503 306.413 461.133 290.639 449.281C280.902 441.963 284.392 446.666 294.088 456.567L292.794 457.854L277.711 459.566Z" fill="#242426"/>
<path d="M350.111 392.69C350.014 399.248 340.286 418.898 335.454 424.416C357.074 427.431 345.472 416.515 347.522 405.126C347.651 404.39 355.666 395.289 350.111 392.698V392.69Z" fill="#242426"/>
<path d="M255.295 463.852C269.904 473.386 277.196 472.97 263.914 461.277C263.182 460.637 261.389 460.621 261.325 459.566C259.862 463.405 258.037 461.981 255.295 463.852Z" fill="#242426"/>
<path d="M332.013 78.8883C330.099 115.205 328.459 151.419 327.703 187.776C326.433 249.085 332.093 310.715 319.945 371.256C293.225 388.121 266.505 404.982 239.786 421.841C239.577 432.19 240.501 442.851 241.506 453.136C241.571 453.808 243.219 454.312 243.227 454.423C248.284 454.2 264.235 451.928 261.325 459.566C261.381 460.63 263.182 460.638 263.914 461.277C267.202 458.71 276.328 463.021 274.687 457.846C276.44 457.894 277.55 459.478 277.702 459.558L292.786 457.846L294.08 456.559C284.384 446.658 280.894 441.947 290.631 449.273C296.773 445.826 303.221 442.827 309.597 439.844C316.142 436.773 327.535 432.758 332.873 427.839C333.034 427.696 333.782 426.328 335.462 424.408C340.286 418.89 350.022 399.24 350.119 392.682C350.119 392.394 350.119 392.114 350.119 391.826C346.477 387.236 346.549 378.494 353.568 385.828C353.665 385.924 354.798 385.668 356.157 386.684C356.655 375.255 357.395 363.843 357.878 352.39C355.232 341.689 352.274 330.773 350.979 319.808C347.972 294.264 348.977 257.051 348.39 229.779C347.9 206.946 347.618 184.025 347.53 161.184C347.409 129.169 347.08 97.1308 349.251 65.1564C343.566 56.9189 339.603 47.7537 333.733 39.4362C333.444 52.5922 332.704 65.7402 332.013 78.8803V78.8883Z" fill="#58575B"/>
<path d="M309.597 439.852C321.593 444.53 344.515 427.703 332.873 427.847C327.534 432.766 316.15 436.781 309.597 439.852Z" fill="#242426"/>
<path d="M304.862 400.408C299.057 399.904 298.606 409.373 304.001 409.837C309.806 410.341 310.256 400.872 304.862 400.408Z" fill="#992029"/>
<path d="M271.246 414.124C267.604 413.484 263.399 421.177 268.657 422.697C277.517 425.264 275.105 414.803 271.246 414.124Z" fill="#991B3C"/>
<path d="M350.111 391.834L353.56 385.836C346.541 378.502 346.469 387.252 350.111 391.834Z" fill="#852C4E"/>
<path d="M306.582 419.274C303.905 418.706 299.402 422.249 300.118 423.129C303.833 425.952 312.757 420.57 306.582 419.274Z" fill="#7B4256"/>
<path d="M291.499 493.868C294.418 495.883 295.31 493.516 294.948 490.437C293.188 489.549 281.192 484.462 281.16 489.149C281.144 491.708 289.626 492.58 291.499 493.868Z" fill="#B92126"/>
<path d="M279.431 521.299C271.745 526.37 266.784 527.297 271.672 520.443C268.939 520.739 270.249 522.115 269.518 522.155C268.681 522.203 261.397 519.124 253.574 522.155C255.496 527.889 255.142 533.52 255.295 534.159C259.259 550.003 265.112 538.222 267.789 550.45C268.73 551.146 284.544 542.645 284.601 558.168C288.026 554.825 289.537 555.761 289.77 555.593C290.269 555.241 292.536 548.699 300.11 552.162C302.353 553.186 303.591 553.114 301.83 555.593C303.736 554.777 313.649 550.466 314.325 550.45C317.139 550.37 337.544 563.551 350.095 550.019C348.889 539.19 351.638 530.552 351.815 527.297C352.547 514.077 347.265 523.986 343.196 516.149C343.003 515.781 342.344 514.525 342.336 514.437C333.581 512.742 334.513 515.549 332.857 516.149C332.35 516.333 334.762 517.132 329.408 517.86C319.961 519.148 317.613 512.894 309.581 510.998C310.152 515.069 305.666 514.789 304.411 511.854C302.755 513.134 301.742 516.677 298.807 516.141C297.006 515.813 286.144 501.257 276.4 504.136C267.604 506.736 283.813 520.332 279.415 521.283L279.431 521.299Z" fill="#3C3C3E"/>
<path d="M325.114 527.305C311.406 535.239 320.122 525.386 314.775 523.019C307.692 526.842 301.525 528.801 301.847 529.449C309.428 531.192 318.232 540.038 325.549 538.454C335.044 536.399 328.387 530.736 325.114 527.305Z" fill="#242426"/>
<path d="M289.77 555.601C294.506 559.192 297.272 556.537 300.11 552.17C292.536 548.707 290.269 555.249 289.77 555.601Z" fill="#B92126"/>
<path d="M271.672 520.444C266.784 527.305 271.745 526.378 279.431 521.299C280.179 518.612 276.625 519.908 271.672 520.444Z" fill="#992029"/>
<path d="M314.767 523.019C320.122 525.386 311.406 535.239 325.106 527.305C324.753 526.938 323.104 526.058 322.517 525.594C321.11 531.024 315.659 529.985 319.068 523.019C318.932 522.923 317.846 520.923 316.914 520.444L317.348 522.587C316.761 523.483 315.241 522.755 314.759 523.019H314.767Z" fill="#351D1D"/>
<path d="M304.427 511.87C305.69 514.797 310.176 515.077 309.597 511.014C306.856 510.367 309.991 507.591 304.427 511.87Z" fill="#7B4256"/>
<path d="M322.526 525.586C321.376 524.674 320.282 523.843 319.076 523.011C315.667 529.977 321.119 531.016 322.526 525.586Z" fill="#282828"/>
<path d="M155.309 28.2955C156.346 40.4598 154.795 54.5836 154.449 66.8759C159.257 63.5569 165.625 60.7337 170.826 57.4467C170.65 47.8896 171.124 38.5004 173.415 29.1512C169.114 17.4747 168.189 36.0931 162.642 36.0132C159.144 35.9572 158.975 28.2635 155.317 28.2955H155.309Z" fill="#58575B"/>
<path d="M156.169 94.3157C155.462 148.187 154.063 202.067 153.581 255.931C153.42 273.886 155.398 346.992 154.441 351.958C154.256 352.902 149.874 359.196 146.682 369.537C145.91 372.032 146.071 380.55 143.667 381.541C142.501 382.021 135.812 381.237 132.894 381.541C126.566 382.205 129.364 385.492 125.135 390.115C126.494 401.519 129.075 438.308 137.629 444.986C140.162 445.378 139.687 444.058 139.784 444.13C135.587 432.374 157.761 441.555 157.882 448.417C161.379 449.929 165.817 451.136 163.912 455.279C180.756 463.133 180.04 462.165 194.078 474.145V473.29C191.248 467.755 194.81 466.796 194.938 466.428C196.056 463.253 197.174 462.413 198.388 459.142C200.132 454.423 198.484 445.466 203.557 446.714C204.466 433.926 203.903 420.905 204.418 408.133C196.956 407.23 186.295 386.58 184.591 380.694C179.357 362.651 177.886 254.42 176.832 225.508C175.12 178.354 172.981 131.209 171.663 84.0388C166.308 87.4057 160.945 90.037 156.145 94.3237L156.169 94.3157Z" fill="#58575B"/>
<path d="M194.963 466.428C197.149 466.436 198.814 465.82 198.412 468.139C199.143 467.539 200.132 466.852 201.001 466.428C201.829 459.878 203.115 453.344 203.589 446.706C198.516 445.466 200.164 454.423 198.42 459.134C197.206 462.413 196.096 463.253 194.971 466.42L194.963 466.428Z" fill="#58575B"/>
<path d="M199.698 438.988C198.677 438.684 179.59 444.37 179.445 445.418C181.488 451.856 211.187 442.363 199.698 438.988Z" fill="#B92126"/>
<path d="M148.845 421.841C141.078 420.434 142.743 436.629 150.566 431.27C154.602 428.511 150.815 422.193 148.845 421.841Z" fill="#991B3C"/>
<path d="M194.963 466.428C194.834 466.796 191.272 467.755 194.102 473.29C194.022 471.298 196.828 469.443 198.412 468.147C198.814 465.828 197.149 466.444 194.963 466.436V466.428Z" fill="#3C3C3E"/>
<path d="M249.265 1.44477e-05C241.973 9.42918 227.163 25.6403 217.37 28.2955L216.936 30.8707C214.355 32.7342 206.661 35.6853 206.162 36.0132C194.504 43.6749 182.501 50.065 170.826 57.4467C165.625 60.7338 159.257 63.5569 154.449 66.8759C149.046 70.6108 137.637 87.7096 134.622 78.4484C133.408 74.7135 139.953 10.9487 138.071 1.44477e-05C128.874 1.44477e-05 119.684 -0.00798315 110.486 1.44477e-05C102.784 72.9701 88.0705 145.508 82.0405 218.638C83.2947 223.421 83.1821 235.977 82.9007 241.359C82.8927 241.511 81.1882 243.775 81.1802 243.935C80.7862 250.869 82.0646 256.155 82.0405 256.795C82.0163 257.387 80.3279 264.017 80.3199 264.512C79.9581 283.691 83.1017 312.794 82.0405 315.097C81.7028 315.825 80.8988 315.441 80.3199 315.529C80.344 315.929 79.3872 318.448 79.4596 319.816C84.2514 320.608 83.9057 331.46 84.6293 335.675C84.7499 336.371 86.2373 335.843 86.3499 336.531C86.4383 337.051 85.8193 342.081 86.3499 346.392C86.8082 350.103 86.8162 353.918 87.2102 357.541C88.3519 357.493 89.6302 360.66 89.799 361.395C91.4714 368.761 93.7628 417.682 98.418 442.851C99.9054 450.888 105.558 476.393 109.626 477.576C111.748 471.322 101.546 449.481 120.399 467.291C124.709 460.147 129.018 453.002 133.328 445.858C151.956 458.134 133.062 454.903 129.018 476.721C130.988 477.872 142.148 460.11 147.985 457.854C151.434 456.519 157.665 460.941 156.169 453.568C152.752 452 149.126 450.225 145.83 448.425C143.667 447.25 141.786 445.57 139.8 444.138C139.703 444.075 140.178 445.386 137.645 444.994C129.083 438.316 126.51 401.527 125.151 390.123C115.672 310.659 122.779 226.212 126.011 146.196C125.939 129.233 143.836 105.36 156.177 94.3237C160.969 90.0369 166.34 87.4057 171.695 84.0387C172.386 83.6069 179.662 76.705 185.057 74.6096C196.667 79.928 207.159 91.4525 208.759 104.617C217.563 98.6184 209.563 86.662 209.62 77.6087C208.735 75.2414 208.172 75.1054 207.031 73.7538C201.378 67.0679 187.445 67.9156 207.891 60.8937C209.153 57.0149 215.891 52.4083 219.959 51.4645C221.133 45.3464 247.665 27.7837 253.574 20.1699C256.742 16.0912 261.695 5.41439 263.914 0.0240072C259.025 0.0240072 254.145 0.0240072 249.257 0.0240072L249.265 1.44477e-05Z" fill="#242426"/>
<path d="M207.891 60.8777C207.296 62.7092 207.135 70.6908 207.031 73.7378C208.172 75.0894 208.735 75.2334 209.62 77.5927C209.563 86.646 217.563 98.6024 208.759 104.601C211.284 125.402 204.651 178.69 207.899 205.346C207.036 211.488 206.173 217.633 205.31 223.781C206.457 226.926 207.607 230.069 208.759 233.21C210.295 235.129 208.727 253.164 212.208 247.358C213.977 244.407 212.208 207.866 228.586 205.77C226.085 154.306 225.86 102.705 219.967 51.4406C215.899 52.3843 209.161 56.9909 207.899 60.8697L207.891 60.8777Z" fill="#3C3C3E"/>
<path d="M79.4595 319.816C79.7329 325.294 81.3972 346.832 86.3579 346.392C85.8272 342.081 86.4463 337.051 86.3579 336.531C86.2453 335.843 84.7499 336.363 84.6373 335.675C83.9137 331.46 84.2514 320.6 79.4676 319.816H79.4595Z" fill="#6B1920"/>
<path d="M88.9388 1.99002e-06C86.4865 4.59862 80.1912 4.59862 77.731 1.99002e-06C67.6729 0.0159972 57.6228 -0.0159932 47.5648 1.99002e-06C46.7849 17.6747 45.3135 35.1974 44.9759 52.7282C44.9759 52.8801 43.6171 54.8315 43.2553 55.3034C48.1999 63.181 43.4161 75.8412 44.9759 86.1661C49.9607 90.6448 71.7893 105.92 77.2968 102.025C78.9128 100.882 75.8978 92.8441 79.4515 93.4519C80.0786 36.485 71.5803 47.3698 107.897 -0.00799561C101.578 -0.00799561 95.2582 -0.00799561 88.9307 -0.00799561L88.9388 1.99002e-06Z" fill="#242426"/>
<path d="M77.739 0C80.1912 4.59862 86.4865 4.59862 88.9468 0C85.2082 0 81.4776 0 77.739 0Z" fill="#E8E8E8"/>
<path d="M76.8708 294.951C76.9271 298.486 76.8064 316.033 80.3199 315.529C80.0064 310.395 80.4244 302.701 80.3199 297.095C80.3119 296.639 78.5993 295.087 78.5993 294.951H76.8788H76.8708Z" fill="#B92126"/>
<path d="M40.6746 87.4616C39.8545 103.713 40.1921 120.084 38.954 136.335C37.1771 170.669 34.8616 205.034 31.1954 239.224C30.0055 250.293 30.0054 262.129 28.6065 273.094C28.5502 273.55 26.0739 275.213 26.0176 275.669C24.3614 288.985 22.5443 302.237 20.8479 315.537C17.5032 341.681 14.0701 367.953 12.229 394.417C11.9154 468.635 5.8693 542.725 7.05922 616.91C9.82499 625.34 9.57573 636.329 10.5084 645.63C13.1535 672.006 12.3254 634.777 24.7312 646.485C27.4889 644.606 25.1171 643.222 25.1654 643.054C10.1225 645.182 18.9424 634.033 33.7843 634.481C45.3136 634.825 48.5618 639.12 51.4562 637.912C56.4169 635.833 49.4864 619.829 58.3546 620.765C60.6862 621.013 59.1746 622.373 59.649 623.34C72.4085 615.767 63.6208 629.882 73.0116 627.627C73.6869 627.467 82.137 620.413 83.7852 624.628C87.3469 633.745 57.5506 630.21 65.2529 643.918C66.1454 644.022 71.2347 636.8 81.6304 639.632L82.9249 637.92C81.8073 638.816 74.499 637.52 72.1513 637.92C71.1784 638.088 66.4187 642.247 65.6871 640.919C62.5434 635.225 83.5118 629.81 84.6535 632.346C84.7741 632.61 83.158 637.736 82.9329 637.92C94.4462 618.838 113.638 628.435 94.1407 640.919C98.9406 656.674 75.9301 646.206 67.8498 648.205C60.6862 655.163 53.426 654.115 50.612 655.067C48.2 655.875 48.9156 661.529 35.0948 658.498C34.4275 665.992 12.3898 658.25 15.7022 670.926C16.0801 672.382 23.6216 671.694 24.3211 674.357C25.2779 677.98 10.219 685.154 28.6306 687.217C12.3254 695.303 25.2297 705.492 36.8154 707.363C51.5849 709.754 63.0419 691.896 79.0496 703.932C89.4855 698.526 93.6583 707.627 99.7366 705.644C107.728 703.044 83.0857 690.088 98.016 690.208C98.8441 690.208 107.423 694.855 110.944 694.495C122.401 693.327 111.419 676.125 137.661 683.346V676.484C148.387 680.819 171.405 677.812 158.783 671.766C156.781 667.975 166.967 670.806 167.836 675.621C169.444 676.173 168.929 673.165 170.424 673.909C186.529 681.955 172.587 686.297 176.454 689.345C180.876 688.361 196.04 686.521 197.141 685.914C205.833 681.123 180.684 680.323 181.198 670.91C181.246 669.998 187.847 664.464 188.523 664.48C189.351 664.496 192.808 670.59 203.179 670.478C204.016 669.99 202.279 666.391 201.885 665.76C200.607 663.712 186.167 658.81 211.798 649.9C217.507 661.265 226.737 652.532 227.742 656.33C229.84 664.224 204.812 651.42 203.606 658.906C202.914 663.2 218.504 664.872 221.704 665.336C222.299 665.272 223.103 665.464 223.424 665.336C227.565 663.728 226.311 662.569 231.183 664.48C233.201 652.931 243.114 669.207 251.436 668.767C261.164 677.348 264.67 687.265 263.93 680.771L253.59 668.343C270.129 663.232 265.345 668.983 267.379 671.342C271.423 667.639 269.494 670.078 277.719 670.486C281.272 670.662 277.839 671.95 277.719 672.198C277.678 672.278 275.893 671.966 275.998 672.63C276.448 675.541 282.703 672.51 285.051 673.061C298.783 686.098 293.22 668.711 304.878 672.206C318.674 655.395 308.608 669.087 300.568 670.494C281.706 673.789 278.346 662.313 283.33 661.065C302.128 660.481 285.582 671.59 301.429 662.777C303.109 652.22 317.404 664.024 309.613 645.198C306.454 637.56 283.548 613.231 291.515 610.904C294.611 626.579 311.165 638.072 302.723 621.621C302.49 623.012 305.328 626.571 302.289 626.763C300.062 625.612 290.848 612.216 294.53 611.328C296.588 612.112 295.342 613.047 298.406 613.903C293.694 604.41 274.213 589.527 274.269 587.751C274.285 587.175 275.347 587.295 275.99 587.319C275.154 586.288 274.519 585.12 273.401 584.32C273.514 581.961 272.468 576.283 271.681 574.459C270.539 571.82 269.003 568.861 269.092 565.886C268.087 565.806 267.733 564.95 267.371 564.174C265.98 561.223 257.86 549.299 256.163 544.884C255.777 543.884 253.446 535.191 252.714 532.456C252.055 530.008 251.452 527.369 250.125 525.17C249.659 518.196 249.345 508.255 248.405 501.593C247.231 493.307 245.888 485.118 245.816 476.729C243.452 475.441 245.84 473.465 245.816 473.298C245.776 472.97 245.261 472.458 244.955 469.867C244.738 468.051 242.72 462.429 242.367 459.15C242.262 458.134 243.251 454.671 243.227 454.431C243.219 454.327 241.571 453.815 241.506 453.144C240.493 442.859 239.577 432.198 239.786 421.849C237.149 409.413 237.888 396.697 237.197 384.124C236.61 373.416 235.235 362.651 234.608 351.974C234.511 350.343 234.262 348.735 236.329 348.119C232.678 336.275 232.823 301.645 232.019 286.386C231.167 270.127 231.038 253.78 230.299 237.512C229.816 226.948 229.084 216.351 228.578 205.786C212.2 207.873 213.969 244.422 212.2 247.373C208.727 253.18 210.287 235.145 208.751 233.226C207.593 252.084 208.261 270.958 207.891 289.817C207.376 316.081 206.926 342.441 206.17 368.697C205.784 381.893 204.972 394.969 204.45 408.141C203.935 420.921 204.498 433.941 203.59 446.722C203.115 453.36 201.829 459.894 201.001 466.444C200.197 472.802 206.677 473.785 195.831 476.729C195.003 476.952 194.826 477.568 194.11 477.584C196.482 483.774 196.78 489.996 197.56 496.451C197.72 497.818 199.208 497.034 199.28 497.738C199.441 499.298 197.479 499.73 197.56 500.737C197.576 500.953 198.09 499.61 198.42 505.024C199.176 517.484 199.618 529.84 199.28 542.317C198.798 543.46 186.303 546.891 176.004 551.322C173.56 552.37 172.129 553.665 170.4 555.609C163.832 554.761 163.711 547.347 158.766 543.604C159.152 543.924 161.693 550.986 163.076 552.61C171.301 562.239 173.464 550.482 197.986 544.468C201.965 550.21 195.759 585.736 185.057 581.337C182.34 580.217 163.936 552.266 143.249 540.613C143.683 539.957 158.163 543.108 158.766 543.612C154.007 540.013 148.258 540.133 144.544 538.47C143.756 538.118 144.23 536.806 144.109 536.758C142.944 536.215 137.621 535.375 135.925 535.903C125.159 524.186 104.392 511.934 112.223 493.459C87.4836 458.382 89.6303 400.983 85.5057 358.852C86.0793 358.425 86.6528 357.996 87.2263 357.564C86.8324 353.941 86.8243 350.127 86.366 346.416C81.4053 346.848 79.741 325.318 79.4677 319.84C79.4034 318.472 80.3521 315.953 80.328 315.553C76.8145 316.057 76.9431 298.51 76.8788 294.975C76.3964 266.352 79.1702 237.416 79.4677 208.809C79.8616 170.373 79.0415 131.92 79.4677 93.4917C75.914 92.8839 78.929 100.922 77.3129 102.065C71.8055 105.952 49.9769 90.6846 44.992 86.2059C43.4323 75.873 48.2161 63.2128 43.2715 55.3432C43.6333 54.8714 44.992 52.9279 44.992 52.768C45.3297 35.2373 46.8011 17.7145 47.581 0.039856C47.2915 0.039856 47.0101 0.039856 46.7207 0.039856C43.8986 29.1271 42.162 58.3183 40.6907 87.4936L40.6746 87.4616Z" fill="#242426"/>
<path d="M188.499 589.895C185.419 589.495 183.441 595.509 185.049 596.757C187.823 598.9 194.36 590.662 188.499 589.895Z" fill="#4E1D23"/>
<path d="M166.951 615.615C154.304 614.551 168.857 622.205 169.106 622.901C172.041 631.202 148.644 613.752 136.785 629.331C140.781 606.154 127.619 629.547 119.547 631.042C115.374 634.873 126.574 646.278 139.374 642.191C146.61 639.88 151.498 628.131 153.163 627.611C178.03 635.225 180.667 616.767 166.951 615.607V615.615Z" fill="#E42626"/>
<path d="M56.6181 614.759C53.7558 614.559 41.9048 622.581 41.1008 626.764C27.9152 618.502 4.06846 628.187 15.2441 643.91C19.8993 628.771 38.9783 632.466 50.58 637.048L51.0141 624.62C51.3438 623.077 66.1375 615.423 56.6181 614.759Z" fill="#E42626"/>
<path d="M161.773 645.622C146.393 642.527 171.848 662.689 177.291 662.769C181.078 662.825 191.144 657.154 191.513 652.908C192.173 645.366 184.012 650.093 179.88 649.909C179.341 649.885 174.798 643.695 172.121 651.62C170.006 650.444 162.545 645.774 161.781 645.622H161.773Z" fill="#E42626"/>
<path d="M252.28 649.909C247.408 650.764 252.923 658.282 251.42 659.338C225.667 639.104 239.673 665.048 249.699 667.056C253.936 667.903 267.588 665.56 265.642 658.914C264.718 655.747 258.656 656.155 258.318 655.915C257.393 655.259 254.121 649.589 252.288 649.917L252.28 649.909Z" fill="#E42626"/>
<path d="M87.6444 660.202C85.0233 659.89 66.4589 664.416 66.5232 669.207C66.7323 683.834 105.453 662.321 87.6444 660.202Z" fill="#E42626"/>
<path d="M47.999 687.633C43.8744 687.329 27.296 694.063 32.0556 699.206C36.3651 703.86 51.5527 694.391 47.999 687.633Z" fill="#E42626"/>
<path d="M82.9089 637.904C83.134 637.72 84.75 632.594 84.6294 632.33C83.4958 629.795 62.5194 635.209 65.6631 640.903C66.3947 642.231 71.1544 638.064 72.1272 637.904C74.4829 637.504 81.7833 638.8 82.9009 637.904H82.9089Z" fill="#20343A"/>
<path d="M105.751 619.046C94.9126 618.142 113.22 632.562 123.422 621.189C116.315 621.205 106.989 619.15 105.751 619.046Z" fill="#B92126"/>
<path d="M25.1573 643.055C25.2377 642.783 25.0608 642.431 25.1573 642.199C28.2768 634.561 35.3279 640.472 33.7762 634.481C18.9343 634.033 10.1144 645.19 25.1573 643.055Z" fill="#20343A"/>
<path d="M183.321 605.33C160.069 606.65 171.807 617.254 181.6 608.761C182.935 607.601 184.535 606.298 183.321 605.33Z" fill="#B92126"/>
<path d="M113.509 643.91C112.995 643.519 103.387 649.725 105.751 652.484C108.975 656.251 117.111 646.678 113.509 643.91Z" fill="#B92126"/>
<path d="M93.6825 674.773C92.9508 674.581 88.9871 675.373 88.5127 675.629C76.2758 682.395 105.485 677.804 93.6825 674.773Z" fill="#282828"/>
<path d="M120.399 675.629C116.741 674.029 113.903 679.876 117.811 680.771C120.769 681.451 123.35 676.916 120.399 675.629Z" fill="#B92126"/>
<path d="M277.711 670.486V672.198C277.831 671.942 281.264 670.662 277.711 670.486Z" fill="#715A48"/>
<path d="M108.765 480.144C108.444 478.952 109.312 478.512 109.626 477.569C105.557 476.385 99.9053 450.881 98.4179 442.843C93.7547 417.674 91.4713 368.761 89.799 361.387C89.6302 360.644 88.3518 357.477 87.2101 357.533C90.4824 387.684 93.9879 457.023 108.757 480.144H108.765Z" fill="#242426"/>
<path d="M78.5993 294.951C78.5993 295.087 80.3118 296.639 80.3199 297.095C80.4244 302.701 80.0063 310.395 80.3199 315.529C80.8987 315.449 81.7108 315.825 82.0404 315.097C83.0937 312.794 79.95 283.691 80.3199 264.512C80.3279 264.017 82.0244 257.395 82.0404 256.795C82.0646 256.147 80.7862 250.869 81.1802 243.935C81.1882 243.783 82.8927 241.519 82.9007 241.359C83.1821 235.977 83.2947 223.421 82.0404 218.638C80.143 241.695 78.3098 272.11 78.5912 294.943L78.5993 294.951Z" fill="#242426"/>
<path d="M139.8 444.138C141.786 445.57 143.675 447.25 145.83 448.425C145.203 445.49 157.006 448.041 157.898 448.425C157.777 441.563 135.595 432.382 139.8 444.138Z" fill="#242426"/>
<path d="M112.215 484.43C117.577 491.796 121.461 499.05 130.747 500.721C135.225 501.529 151.112 498.946 153.154 499.866C159.297 502.625 148.757 506.168 135.056 505.008C125.465 504.2 119 497.506 115.664 505.008C124.234 518.188 149.223 523.035 164.796 520.444C167.417 520.004 168.599 519.396 170.826 518.732C174.903 517.516 180.772 514.701 184.615 512.734C188.989 510.494 193.813 507.056 198.404 505.016C198.074 499.602 197.559 500.945 197.543 500.729C190.034 500.945 182.597 501.713 175.136 502.441C174.895 502.465 174.292 503.081 170.826 503.297C169.202 503.401 154.843 506.304 159.619 500.298C161.645 497.754 169.789 499.266 170.826 499.01C172 498.722 173.134 498.554 174.276 498.154C176.655 497.322 181.158 490.461 185.91 493.868C188.748 495.899 183.875 502.993 197.543 496.443C196.764 489.989 196.466 483.767 194.094 477.576L193.66 475.865C192.797 476.723 191.934 477.582 191.071 478.44C188.916 478.152 186.762 477.867 184.607 477.584C180.426 476.537 173.472 476.129 172.539 471.586C165.914 473.338 159.152 476.353 152.286 477.584C139.293 479.928 117.698 477.912 112.207 484.446L112.215 484.43Z" fill="#4B4341"/>
<path d="M144.109 536.735C165.834 531.624 142.188 533.808 132.476 528.161C130.345 526.922 112.946 511.126 115.664 505.008C119 497.506 125.465 504.2 135.056 505.008C148.757 506.168 159.297 502.625 153.155 499.866C151.112 498.946 135.225 501.529 130.747 500.722C121.461 499.05 117.577 491.804 112.215 484.43C111.266 483.119 110.454 482.783 108.766 480.144C93.988 457.031 90.4906 387.683 87.2183 357.533C86.6448 357.959 86.0712 358.388 85.4977 358.82C89.6222 400.959 87.4755 458.35 112.215 493.428C104.384 511.902 125.159 524.154 135.917 535.871C137.613 535.343 142.936 536.191 144.101 536.727L144.109 536.735Z" fill="#B92126"/>
<path d="M144.109 536.735C144.23 536.791 143.748 538.094 144.544 538.446C148.25 540.11 154.007 539.99 158.766 543.589C163.711 547.331 163.832 554.745 170.4 555.593C172.129 553.65 173.56 552.354 176.004 551.306C168.575 541.765 171.687 529.601 164.796 520.444C149.223 523.035 124.234 518.196 115.664 505.008C112.938 511.126 130.345 526.922 132.475 528.161C142.188 533.808 165.834 531.624 144.109 536.735Z" fill="#3C3C3E"/>
<path d="M184.615 512.726C211.171 524.914 175.691 535.935 170.826 518.724C168.591 519.388 167.417 520.004 164.796 520.436C171.687 529.593 168.575 541.757 176.004 551.298C186.295 546.868 198.798 543.445 199.28 542.293C199.61 529.817 199.168 517.452 198.42 505C193.821 507.04 189.005 510.479 184.631 512.718L184.615 512.726Z" fill="#3C3C3E"/>
<path d="M174.276 498.154L175.136 502.441C182.605 501.713 190.034 500.945 197.543 500.729C197.463 499.722 199.425 499.29 199.264 497.73C199.192 497.035 197.704 497.81 197.543 496.443C183.867 502.993 188.748 495.899 185.909 493.868C181.158 490.461 176.647 497.322 174.276 498.154Z" fill="#B92126"/>
<path d="M145.83 448.425C149.134 450.225 152.752 452 156.169 453.568C157.56 454.207 163.534 455.095 163.928 455.279C165.834 451.136 161.395 449.929 157.898 448.417C157.006 448.033 145.203 445.482 145.83 448.417V448.425Z" fill="#6B1920"/>
<path d="M170.826 518.732C175.691 535.935 211.171 524.914 184.615 512.734C180.764 514.709 174.895 517.524 170.826 518.732Z" fill="#242426"/>
<path d="M172.547 471.57C173.472 476.113 180.434 476.521 184.615 477.568C196 479.28 186.513 470.93 182.46 469.851C175.474 467.987 173.078 471.426 172.547 471.562V471.57Z" fill="#B92126"/>
<path d="M170.826 503.297V499.01C169.797 499.266 161.645 497.746 159.619 500.298C154.843 506.312 169.202 503.401 170.826 503.297Z" fill="#B92126"/>
<path d="M170.826 499.01V503.297C174.292 503.073 174.895 502.465 175.136 502.441L174.276 498.154C173.134 498.554 172 498.722 170.826 499.01Z" fill="#3A3E38"/>
<path d="M109.626 477.576C109.304 478.512 108.444 478.952 108.765 480.152C110.454 482.791 111.258 483.135 112.215 484.438C117.706 477.904 139.302 479.92 152.294 477.576C159.16 476.337 165.93 473.33 172.547 471.578C173.078 471.442 175.474 468.003 182.46 469.867C186.512 470.946 196 479.296 184.615 477.584C186.77 477.872 188.925 478.158 191.079 478.44C191.942 477.582 192.805 476.723 193.668 475.865L194.102 477.576C194.826 477.56 194.995 476.945 195.823 476.721C195.413 475.681 194.995 474.913 194.102 474.145C180.064 462.165 180.78 463.141 163.936 455.279C163.542 455.095 157.568 454.207 156.177 453.568C157.665 460.941 151.434 456.519 147.993 457.854C142.156 460.11 131.004 477.864 129.026 476.721C133.07 454.895 151.965 458.134 133.336 445.858C129.026 453.002 124.717 460.147 120.407 467.292C101.554 449.489 111.756 471.322 109.634 477.576H109.626Z" fill="#3C3C3E"/>
<path d="M161.773 458.71C160.31 457.702 137.211 461.061 162.634 462.997C163.582 461.469 163.277 459.75 161.773 458.71Z" fill="#6B1920"/>
<path d="M158.758 543.597C158.155 543.093 143.683 539.942 143.241 540.597C163.92 552.258 182.332 580.21 185.049 581.321C195.75 585.72 201.957 550.195 197.978 544.452C173.456 550.474 171.293 562.231 163.068 552.594C161.685 550.978 159.144 543.908 158.758 543.589V543.597Z" fill="#E42626"/>
<path d="M186.77 559.024C184.945 558.12 177.789 561.791 179.445 563.743C182.42 567.245 188.362 559.816 186.77 559.024Z" fill="#20343A"/>
<path d="M348.39 483.575C343.486 483.623 340.608 483.711 335.896 481.863C335.398 482.111 332.945 490.836 329.432 490.437C330.357 492.42 330.147 493.82 331.152 495.579C336.789 493.068 341.05 490.309 339.771 498.154C339.096 502.305 336.74 505.576 332.013 505.872C330.831 505.944 327.993 504.832 326.843 504.16C326.682 504.064 327.261 501.177 325.549 500.729C324.865 500.554 320.202 505.752 312.186 502.441C311.414 501.057 319.398 494.075 319.945 493.868C313.834 496.299 313.44 499.074 311.76 499.866C309.983 500.706 308.898 498.986 308.745 499.01C307.635 499.194 308.271 501.561 304.87 500.722C300.785 499.722 300.375 495.859 300.126 495.579C299.925 495.347 302.007 494.459 297.537 491.292C297.425 491.212 296.806 491.372 294.948 490.437C295.31 493.508 294.418 495.883 291.499 493.868C291.684 493.996 294.86 496.659 294.948 496.867C298.277 504.896 286.498 493.164 285.895 501.585H251.846C254.258 507.008 251.693 514.229 253.566 522.163C261.397 519.132 268.673 522.211 269.51 522.163C270.241 522.123 268.931 520.739 271.664 520.452C276.617 519.916 280.163 518.628 279.423 521.307C283.821 520.356 267.604 506.76 276.408 504.16C286.161 501.281 297.015 515.837 298.816 516.165C301.742 516.701 302.755 513.158 304.419 511.878C309.983 507.591 306.847 510.375 309.589 511.022C317.621 512.91 319.969 519.172 329.416 517.884C324.576 512.302 333.717 509.831 332.865 516.173C334.529 515.565 333.597 512.766 342.344 514.461C341.227 504.712 348.623 507.647 349.243 507.599C350.625 507.503 351.019 510.511 352.692 505.888C349.781 506.28 350.215 505.112 350.103 505.032C347.434 503.113 347.152 501.889 348.382 499.034C349.829 495.659 356.012 496.427 351.397 481.887C350.73 484.086 350.344 483.583 348.382 483.599L348.39 483.575Z" fill="#242426"/>
<path d="M342.352 514.445C342.36 514.541 343.028 515.797 343.212 516.157C352.137 522.011 351.847 515.005 349.242 507.583C348.631 507.623 341.227 504.688 342.344 514.445H342.352Z" fill="#B92126"/>
<path d="M289.77 555.601C289.537 555.769 288.026 554.825 284.601 558.176C284.625 564.662 278.627 573.572 271.672 574.467C272.46 576.291 273.514 581.969 273.393 584.328C274.502 585.136 275.146 586.304 275.982 587.327C279.978 592.254 312.677 609.169 300.118 613.903C308.793 616.487 302.916 614.895 302.707 619.902C309.179 614.079 328.974 617.438 334.168 623.333C335.534 618.91 341.637 593.334 339.337 591.606C329.11 598.82 325.452 587.423 320.371 586.464C309.147 584.344 305.963 601.083 299.684 571.884C284.126 577.514 275.837 576.227 287.616 560.735C300.102 561.903 299.467 556.609 301.839 555.593C303.599 553.114 302.353 553.186 300.118 552.162C297.272 556.521 294.514 559.176 289.779 555.593L289.77 555.601Z" fill="#3C3C3E"/>
<path d="M252.714 532.448C253.446 535.191 255.777 543.885 256.163 544.876C257.86 549.299 265.98 561.215 267.371 564.166L276.85 557.736L269.092 565.878C268.995 568.853 270.539 571.812 271.68 574.451C278.635 573.556 284.633 564.646 284.609 558.16C284.553 542.637 268.738 551.138 267.797 550.443C265.12 538.214 259.259 549.995 255.303 534.151C254.44 533.581 253.577 533.01 252.714 532.44V532.448Z" fill="#E42626"/>
<path d="M33.776 634.481C35.3278 640.471 28.2767 634.561 25.1572 642.199C30.3912 638.96 35.1268 636.313 38.5197 643.055C52.4772 640.807 62.0448 658.298 57.0519 633.194C58.1293 627.403 64.7221 633.698 59.6408 623.333C59.1665 622.373 60.686 621.005 58.3464 620.757C49.4862 619.83 56.4168 635.825 51.448 637.904C48.5536 639.12 45.3054 634.817 33.776 634.473V634.481Z" fill="#20343A"/>
<path d="M263.914 680.779C269.349 676.445 273.65 686.514 269.084 694.071C271.956 694.642 274.829 695.212 277.702 695.783C283.387 680.971 272.428 691.504 271.672 682.067C271.238 676.621 276.931 681.611 275.982 677.78C269.405 676.269 269.429 673.749 267.363 671.35C265.329 668.991 270.113 663.241 253.574 668.351L263.914 680.779Z" fill="#20343A"/>
<path d="M275.982 587.319C275.339 587.287 274.277 587.175 274.261 587.751C274.197 589.527 293.686 604.41 298.397 613.903C298.872 614.031 299.66 613.768 300.118 613.903C312.676 609.169 279.978 592.254 275.982 587.327V587.319Z" fill="#E42626"/>
<path d="M302.707 621.613C302.795 621.069 302.683 620.462 302.707 619.902C302.916 614.887 308.793 616.479 300.118 613.903C299.66 613.768 298.864 614.031 298.397 613.903C295.334 613.056 296.572 612.112 294.522 611.328C290.84 612.208 300.054 625.612 302.281 626.764C305.32 626.564 302.474 623.013 302.715 621.621L302.707 621.613Z" fill="#20343A"/>
<path d="M267.363 564.174C267.733 564.958 268.087 565.806 269.084 565.886L276.842 557.744L267.363 564.174Z" fill="#3A3E38"/>
<path d="M300.978 490.437C300.721 490.389 300.383 490.429 300.118 490.437C299.981 490.437 300.512 491.7 297.529 491.292C301.999 494.459 299.917 495.347 300.118 495.579C305.119 495.379 310.956 497.578 308.737 499.01C308.89 498.986 309.983 500.706 311.752 499.866C313.432 499.066 313.826 496.291 319.937 493.868C320.025 493.828 319.631 492.316 320.371 492.156C331.482 489.669 327.132 498.834 331.144 495.587C330.131 493.82 330.348 492.428 329.424 490.445C321.086 472.586 310.851 492.548 309.171 493.02C305.794 493.964 302.626 490.733 300.986 490.445L300.978 490.437Z" fill="#20343A"/>
<path d="M325.114 475.001C323.675 476.065 322.662 474.129 322.525 474.145C319.084 474.537 315.635 474.753 312.186 475.001C308.914 475.977 308.914 476.633 308.737 476.713C308.15 478.864 306.277 478.328 306.148 478.424C305.754 478.736 300.271 484.854 300.118 485.286C299.619 486.678 300.142 489.101 300.978 490.429C302.618 490.716 305.794 493.947 309.163 493.004C310.851 492.532 321.078 472.578 329.416 490.429C332.929 490.828 335.381 482.103 335.88 481.855C340.599 483.703 343.478 483.615 348.374 483.567C354.251 478.688 346.284 477.025 347.514 475.425C349.114 473.338 360.322 477.544 350.963 464.708C349.452 462.629 350.738 461.045 348.808 461.277C343.695 472.498 350.947 453.8 339.329 468.139C324.061 466.812 326.417 474.033 325.106 475.001H325.114Z" fill="#E42626"/>
<path d="M312.186 475.001C315.643 474.753 319.084 474.537 322.526 474.145C316.994 472.842 317.09 473.546 312.186 475.001Z" fill="#542F2C"/>
<path d="M300.118 485.294C300.271 484.862 305.754 478.744 306.148 478.432C302.224 481.391 302.144 479.944 300.118 485.294Z" fill="#6B1920"/>
<path d="M300.118 490.437C300.391 490.429 300.721 490.389 300.978 490.437C300.142 489.109 299.62 486.686 300.118 485.294C299.531 486.83 298.052 489.061 300.118 490.437Z" fill="#6B1920"/>
<path d="M306.148 478.432C306.269 478.336 308.15 478.864 308.737 476.721C306.976 477.616 307.402 477.488 306.148 478.432Z" fill="#542F2C"/>
<path d="M322.525 474.145C322.662 474.129 323.675 476.065 325.114 475.001C325.13 473.562 323.603 474.401 322.525 474.145Z" fill="#542F2C"/>
<path d="M329.424 517.868C334.77 517.141 332.366 516.341 332.873 516.157C333.725 509.815 324.584 512.286 329.424 517.868Z" fill="#992029"/>
<path d="M319.945 493.868C319.406 494.076 311.414 501.057 312.186 502.441C329.866 503.865 332.519 489.093 319.945 493.868Z" fill="#E42626"/>
<path d="M326.835 504.152C327.993 504.832 330.823 505.944 332.005 505.864C333.098 503.433 339.546 501.401 339.763 498.146C340.278 490.341 330.646 496.603 326.835 504.144V504.152Z" fill="#E42626"/>
<path d="M319.945 493.868C332.519 489.093 329.866 503.865 312.186 502.441C320.202 505.752 324.865 500.546 325.549 500.729C327.261 501.169 326.682 504.065 326.843 504.16C330.654 496.611 340.294 490.357 339.771 498.162C341.05 490.325 336.789 493.076 331.152 495.587C327.132 498.834 331.49 489.677 320.379 492.156C319.639 492.324 320.041 493.836 319.945 493.868Z" fill="#4E1D23"/>
<path d="M300.118 495.579C300.367 495.859 300.777 499.722 304.862 500.722C308.263 501.553 307.627 499.194 308.737 499.01C310.956 497.578 305.119 495.379 300.118 495.579Z" fill="#B92126"/>
<path d="M332.013 505.872C336.74 505.576 339.096 502.305 339.771 498.154C339.554 501.409 333.106 503.441 332.013 505.872Z" fill="#4E1D23"/>
<path d="M350.111 505.008C350.272 503.017 347.635 501.057 348.39 499.01C347.16 501.873 347.442 503.089 350.111 505.008Z" fill="#242426"/>
<path d="M301.839 555.601C299.467 556.625 300.102 561.911 287.616 560.743C275.837 576.235 284.126 577.514 299.684 571.892C305.963 601.083 309.147 584.344 320.371 586.472C325.444 587.431 329.11 598.828 339.337 591.614C341.629 593.342 335.534 618.91 334.167 623.341C328.974 617.446 309.179 614.087 302.707 619.91C302.683 620.469 302.795 621.077 302.707 621.621C311.157 638.072 294.594 626.58 291.499 610.904C283.531 613.232 306.437 637.56 309.597 645.198C317.388 664.024 303.093 652.212 301.412 662.777C285.557 671.582 302.104 660.481 283.314 661.065C278.329 662.313 281.69 673.789 300.552 670.494C308.592 669.087 318.658 655.403 304.862 672.206C293.204 668.711 298.767 686.098 285.035 673.062C282.687 672.51 276.44 675.541 275.982 672.63C275.877 671.966 277.67 672.278 277.702 672.198V670.486C269.477 670.079 271.407 667.639 267.363 671.342C269.429 673.741 269.405 676.261 275.982 677.772C276.931 681.603 271.238 676.613 271.672 682.059C272.428 691.496 283.387 680.963 277.702 695.775C274.829 695.204 271.956 694.634 269.083 694.063C273.65 686.506 269.341 676.437 263.914 680.771C264.653 687.265 261.14 677.348 251.42 668.767C243.098 669.207 233.177 652.932 231.167 664.48C242.913 669.095 235.468 672.662 240.22 673.909C244.119 674.941 242.246 669.447 244.963 670.91C245.438 671.166 248.638 678.524 250.133 680.339C252.408 683.099 256.589 683.962 257.031 684.626C260.987 690.624 255.367 693.432 252.288 691.056C249.402 688.833 255.504 681.091 235.91 681.627C234.728 681.659 227.541 687.865 221.688 676.909C223.778 672.966 232.091 674.629 231.167 668.335C230.459 663.465 224.928 665.48 223.408 665.336C223.304 665.328 223.979 667.399 222.114 667.047C221.398 666.984 221.768 665.344 221.68 665.336C218.472 664.872 202.89 663.201 203.581 658.906C204.779 651.42 229.816 664.232 227.718 656.331C226.705 652.532 217.483 661.265 211.774 649.901C186.143 658.81 200.582 663.713 201.861 665.76C202.255 666.384 203.991 669.991 203.155 670.478C192.792 670.582 189.334 664.496 188.498 664.48C187.823 664.464 181.222 669.999 181.174 670.91C180.659 680.324 205.809 681.123 197.117 685.914C196.016 686.522 180.852 688.361 176.43 689.345C172.563 686.298 186.496 681.955 170.4 673.909C168.913 673.166 169.427 676.173 167.811 675.621C166.943 670.806 156.756 667.975 158.758 671.766C171.389 677.812 148.371 680.819 137.637 676.485V683.347C111.394 676.125 122.377 693.328 110.92 694.495C107.399 694.855 98.8199 690.217 97.9918 690.209C83.0695 690.089 107.704 703.037 99.7123 705.644C93.6341 707.619 89.4613 698.518 79.0254 703.932C63.0177 691.888 51.5606 709.755 36.7911 707.363C25.2054 705.492 12.2932 695.303 28.6064 687.217C10.1947 685.154 25.2537 677.98 24.2969 674.357C23.5975 671.694 16.0559 672.382 15.678 670.926C12.3655 658.242 34.4113 665.992 35.0706 658.498C48.8914 661.529 48.1758 655.883 50.5878 655.067C53.4099 654.115 60.662 655.171 67.8256 648.205C75.9059 646.206 98.9084 656.667 94.1165 640.919C113.614 628.435 94.4301 618.83 82.9087 637.92L81.6142 639.632C71.2185 636.801 66.1292 644.022 65.2367 643.918C57.5344 630.211 87.3307 633.746 83.769 624.628C82.1208 620.414 73.6707 627.467 72.9954 627.627C63.6127 629.883 72.3924 615.767 59.6328 623.341C64.7222 633.705 58.1213 627.411 57.0439 633.202C62.0368 658.306 52.4692 640.815 38.5117 643.063C35.1188 636.321 30.3832 638.968 25.1492 642.207C25.0527 642.439 25.2296 642.791 25.1492 643.063C25.1009 643.231 27.4728 644.614 24.715 646.494C12.3093 634.785 13.1374 672.006 10.4922 645.638C10.0259 654.195 7.0993 655.763 7.04302 656.355C5.9737 667.607 15.9675 695.551 20.8317 706.94C21.3784 708.219 23.1954 708.155 23.4205 708.651C23.4768 708.779 21.8769 709.739 22.5603 711.226C32.7711 733.468 49.1728 753.374 50.1456 755.813C50.4109 756.485 50.0893 757.196 49.2853 757.1C99.3988 820.761 189.238 846.226 261.751 876.281L262.185 877.992C276.263 877.992 290.341 877.992 304.419 877.992C301.621 872.562 309.951 873.809 310.449 877.992C374.52 878.016 438.591 878.032 502.662 877.992C477.835 852.072 488.295 868.563 483.27 870.274C480.231 871.306 468.428 852.464 468.613 868.563C456.432 861.845 447.218 867.395 446.205 866.851C444.557 865.964 455.95 845.378 420.348 866.851C416.546 864.58 434.169 855.271 418.628 857.422C415.653 857.83 408.851 861.869 405.7 863.42C393.575 840.475 393.286 866.899 391.911 866.851C379.176 851.92 383.421 865.612 380.703 866.851C376.016 868.995 363.61 853.048 363.465 847.985C346.943 854.335 355.803 858.67 351.397 861.701C341.966 847.601 340.157 866.987 335.02 853.128C332.093 856.742 298.164 842.675 308.303 839.412C321.038 835.309 340.286 857.406 338.043 842.411C337.673 839.939 334.328 831.526 332.013 828.695C348.889 828.487 342.216 823.017 343.221 820.977C347.731 811.764 354.308 820.769 359.164 817.978C360.563 817.178 361.536 812.22 363.039 810.692C378.581 794.969 379.594 806.622 380.711 806.837C382.279 807.141 387.433 793.905 397.089 797.408C407.862 775.247 420.574 777.622 422.085 776.831C423.564 776.055 426.346 766.706 436.742 770.832C448.561 749.031 448.682 760.092 449.67 760.547C450.772 761.059 452.702 758.196 455.7 757.972C456.287 757.932 458.9 764.786 462.599 753.685C464.038 756.285 470.896 757.06 472.938 756.261C477.802 754.357 463.628 751.222 488.456 746.832V745.12C485.154 744.693 481.849 744.264 478.542 743.832C494.437 735.147 471.66 715.545 472.512 727.541C472.609 728.941 477.473 736.955 474.667 737.402C469.553 729.525 467.222 740.074 449.67 748.551C453.184 734.027 441.253 745.96 435.882 748.551C435.761 748.607 434.7 746.975 433.293 747.695C431.709 748.503 430.302 752.262 429.844 751.982C428.348 751.078 431.275 746.064 426.395 751.126C419.818 741.809 404.333 741.953 421.651 754.125C409.02 753.182 408.723 759.7 407.428 759.7C406.487 759.7 401.784 752.11 400.53 751.982C399.726 751.902 390.504 760.819 386.741 758.844C385.471 758.172 389.547 752.022 386.741 751.126C381.805 749.559 375.051 760.283 372.084 750.27C344.266 764.618 359.719 753.829 353.986 751.982C352.676 751.558 347.522 757.108 347.088 757.124C343.904 757.244 346.091 750.934 342.778 751.126C341.773 751.182 340.953 756.884 330.71 754.557C331.474 768.081 326.192 762.067 325.541 762.275C322.743 763.147 322.389 768.097 322.091 768.273C313.866 773.16 311.085 759.66 307.434 757.988C295.913 752.694 288.291 765.498 273.819 753.701C270.225 755.669 284.464 761.499 284.593 764.418C285.099 775.903 252.537 763.626 255.287 755.845C255.801 754.381 279.568 734.467 250.543 749.415C228.208 733.156 253.88 755.077 235.026 749.415C226.367 758.244 223.746 747.471 219.509 746.84C206.034 744.832 205.085 765.002 190.203 751.126C185.982 758.908 196.86 755.141 198.388 759.268C202.785 771.136 167.731 766.13 166.493 763.554C163.084 756.453 178.472 757.228 179.421 754.981C182.806 746.975 161.444 749.607 199.674 735.691C221.446 736.675 215.746 731.404 217.772 730.548C220.369 729.453 228.441 731.564 228.98 731.404C231.263 730.74 231.545 722.831 255.697 719.4C250.23 732.1 262.893 725.07 270.354 714.257L269.494 721.975C291.925 692.28 326.634 663.657 338.019 627.235C342.706 612.232 352.901 547.963 353.536 532.064C353.6 530.361 353.48 528.369 351.815 527.345C351.63 530.601 348.889 539.238 350.095 550.067C337.544 563.591 317.139 550.411 314.325 550.499C313.649 550.515 303.728 554.825 301.83 555.641L301.839 555.601Z" fill="#E42626"/>
<path d="M223.408 665.344C224.928 665.488 230.459 663.481 231.167 668.343C232.083 674.637 223.778 672.974 221.688 676.917C227.541 687.873 234.729 681.667 235.91 681.635C255.504 681.107 249.402 688.841 252.288 691.064C255.359 693.44 260.987 690.632 257.032 684.634C256.589 683.97 252.408 683.107 250.133 680.348C248.638 678.532 245.438 671.174 244.963 670.918C242.254 669.463 244.127 674.949 240.22 673.917C235.468 672.662 242.921 669.103 231.167 664.488C226.295 662.577 227.549 663.736 223.408 665.344Z" fill="#20343A"/>
<path d="M221.679 665.344C221.768 665.36 221.398 666.991 222.114 667.055C223.979 667.407 223.296 665.328 223.408 665.344C223.086 665.472 222.282 665.28 221.687 665.344H221.679Z" fill="#20343A"/>
<path d="M71.7008 724.502C64.3603 725.974 80.6735 726.989 69.9803 730.5C68.3964 733.707 62.0367 734.115 59.2066 733.076C60.7985 739.402 72.2073 736.755 76.4444 730.5C78.9851 730.644 78.4625 732.812 78.5992 733.076C79.1941 732.74 79.773 734.531 80.3197 733.507C79.9097 730.156 81.0916 730.636 81.18 730.508C88.9145 719.816 83.5358 722.999 71.7008 724.51V724.502Z" fill="#0D3649"/>
<path d="M206.596 715.073C199.819 714.833 190.605 719.736 202.287 721.935C213.229 723.99 224.767 715.729 206.596 715.073Z" fill="#0D3649"/>
<path d="M309.171 572.748C301.059 571.86 306.863 592.142 315.635 581.753C315.941 581.393 313.907 579.122 319.945 574.035C307.909 575.499 309.758 572.812 309.171 572.748Z" fill="#0D3649"/>
<path d="M342.786 571.028C332.262 567.485 319.969 596.373 336.756 574.459C342.931 581.009 347.385 572.58 342.786 571.028Z" fill="#20343A"/>
<path d="M185.909 714.217C184.334 713.465 173.271 714.065 175.136 718.072C176.961 721.999 193.692 717.904 185.909 714.217Z" fill="#0D3649"/>
<path d="M41.9688 711.642C28.7027 720.447 49.044 719.016 48.433 714.641C47.9586 711.21 42.6039 716.201 41.9688 711.642Z" fill="#1E4851"/>
<path d="M30.3268 718.504C34.3468 727.085 46.6079 738.138 48.4249 735.227C42.3895 729.655 36.3568 724.081 30.3268 718.504Z" fill="#542F2C"/>
<path d="M320.371 623.333C315.048 623.213 317.589 626.748 321.665 629.763C319.768 638.48 330.204 623.557 320.371 623.333Z" fill="#3C3C3E"/>
<path d="M325.548 634.481C321.585 634.161 319.768 638.792 321.239 639.624C324.905 641.703 332.825 635.065 325.548 634.481Z" fill="#354148"/>
<path d="M152.294 687.633C141.4 683.738 153.58 698.598 154.449 690.632C154.465 690.448 152.72 687.785 152.294 687.633Z" fill="#1E4851"/>
<path d="M69.9803 730.508C80.6816 726.997 64.3604 725.982 71.7009 724.51C71.4838 724.534 68.1391 722.159 67.3914 724.942C66.7562 727.301 72.0225 726.366 69.9803 730.516V730.508Z" fill="#20343A"/>
<path d="M229.004 696.207C226.648 696.695 225.659 701.581 229.864 701.349C233.563 701.141 233.008 695.375 229.004 696.207Z" fill="#1E4851"/>
<path d="M152.728 704.78C152.945 704.428 160.865 702.605 158.758 706.492C163.052 702.733 156.435 701.413 152.728 704.78Z" fill="#B92126"/>
<path d="M158.758 706.5C158.356 707.243 150.461 708.515 152.728 704.788C151.482 705.916 150.099 708.435 151.434 709.075C154.473 707.139 155.204 709.619 158.758 706.5Z" fill="#B92126"/>
<path d="M30.3269 718.504L29.0325 715.929C27.529 717.512 30.2626 718.368 30.3269 718.504Z" fill="#542F2C"/>
<path d="M152.728 704.78C150.469 708.515 158.364 707.235 158.758 706.492C160.857 702.597 152.937 704.42 152.728 704.78Z" fill="#3A3E38"/>
<path d="M396.655 3.97885e-06L433.719 45.0105C436.131 51.6965 432.915 114.734 432.425 128.609C418.99 117.005 405.756 105.256 395.794 90.4528C395.658 88.3334 395.987 86.1341 395.794 84.0227C375.67 97.1308 390.255 96.1791 392.345 103.313C392.49 103.809 391.413 113.094 391.485 113.598C391.557 114.094 398.094 120.892 392.779 120.884C389.057 120.884 388.373 110.191 383.3 112.31C380.526 117.501 373.403 113.422 368.217 121.739C368.161 130.969 365.845 140.302 366.496 149.603C368.852 150.715 370.581 165.358 370.806 169.325C371.948 189.311 371.111 209.401 373.395 229.339L374.689 230.627C405.684 210.865 396.18 198.948 397.531 193.334C397.684 192.694 398.673 192.894 399.252 192.902C398.737 169.477 397.684 146.028 398.817 122.595L429.418 170.181C431.018 176.827 430.037 183.617 430.278 190.327C433.542 200.036 433.944 208.081 431.999 219.046C439.733 214.959 433.406 236.553 442.772 226.332C449.486 230.003 450.571 224.436 452.686 227.62C453.481 228.819 454.085 231.986 453.12 233.194C451.134 235.681 444.332 226.788 446.656 236.193C446.72 236.457 450.265 240.024 450.531 240.048C459.399 241.064 456.111 212.336 457.855 207.042C459.166 203.083 462.88 202.691 463.025 201.044C463.186 199.252 456.625 196.677 465.614 192.902C464.971 168.341 464.247 143.733 463.893 119.164C460.629 118.636 461.948 127.746 460.878 128.593C451.857 117.437 446.993 130.265 438.897 122.163C439.162 90.3009 437.136 58.4064 437.176 26.56C436.107 26.624 436.308 27.7836 435.456 26.9919C432.063 23.8408 419.922 6.10217 414.769 -0.0159912C408.739 -0.0159912 402.701 -0.0159912 396.671 -0.0159912L396.655 3.97885e-06Z" fill="#242426"/>
<path d="M438.029 0C437.289 8.87733 437.176 17.6827 437.168 26.576C437.136 58.4224 439.162 90.3168 438.889 122.179C446.985 130.281 451.841 117.453 460.87 128.609C461.94 127.754 460.621 118.652 463.885 119.18C463.668 104.353 460.967 16.0112 462.165 10.7168C463.065 6.73397 469.626 3.35899 471.644 0C460.436 0 449.236 0 438.029 0Z" fill="#3C3C3E"/>
<path d="M476.814 0C495.257 14.0758 508.684 44.9625 511.289 67.3078C512.391 76.7449 511.337 79.84 511.289 86.598C514.73 87.1898 511.941 79.864 513.444 73.7378C516.057 89.741 516.266 90.0529 527.667 100.314C532.073 104.281 552.35 117.269 553.524 121.747C573.68 113.638 557.278 100.906 556.973 99.4581C542.284 91.7324 527.586 75.6013 526.807 58.3025C522.304 51.8964 520.833 40.02 517.327 31.7265C512.326 19.898 504.753 9.11726 495.78 0C489.461 0 483.141 0 476.814 0Z" fill="#242426"/>
<path d="M519.916 0C519.053 10.5728 518.19 21.1483 517.327 31.7265C520.833 40.02 522.312 51.8964 526.806 58.3025C526.509 51.7205 527.434 46.3141 531.116 41.1556C534.654 33.7818 531.229 25.4004 533.705 18.0026C533.415 11.9991 533.129 5.9982 532.845 0C528.535 0 524.226 0 519.916 0Z" fill="#58575B"/>
<path d="M511.297 86.5979C511.048 119.26 506.996 152.098 506.128 184.768C497.38 202.819 497.163 223.133 491.471 242.215C490.425 261.681 485.77 280.788 483.712 300.086C483.133 305.524 481.839 310.866 481.991 316.377C481.702 319.235 481.415 322.092 481.131 324.95C480.375 343.241 479.941 361.523 479.411 379.822C479.274 384.652 477.754 385.604 477.69 389.251C477.642 391.818 477.706 394.393 477.69 396.969C477.594 412.844 478.518 441.627 488.029 454.839C498.996 470.067 515.936 452.704 519.056 459.126C521.211 463.557 512.801 473.346 501.818 472.842C507.092 493.236 502.879 490.349 500.098 473.274C498.297 490.133 506.224 487.989 506.996 488.709C500.918 466.972 504.447 476.961 513.026 471.562C520.173 467.068 519.852 461.693 520.35 461.277C522.24 459.702 537.09 462.629 551.811 455.279C551.827 453.879 551.964 450.784 551.811 450.56C551.015 449.409 547.703 451.056 547.502 449.273C543.634 447.138 547.678 452.384 539.743 450.984C539.59 450.96 539.124 452.888 537.154 449.273C533.046 453.943 529.958 453.624 525.086 449.705C548.828 432.798 533.697 422.193 532.845 420.553C527.048 409.405 538.955 424.04 541.029 424.408C542.412 424.656 543.883 422.745 544.044 422.697C520.785 413.412 524.346 367.338 522.497 345.528C521.822 337.578 521.267 329.485 520.776 321.519C518.091 278.132 511.957 232.706 526.806 190.767C527.691 183.665 525.946 175.555 525.946 168.901C525.93 146.116 524.499 123.067 527.667 100.306C516.266 90.0369 516.057 89.725 513.444 73.7298C511.94 79.864 514.73 87.1817 511.289 86.5899L511.297 86.5979Z" fill="#242426"/>
<path d="M537.154 449.281C539.188 446.97 538.368 434.381 556.12 443.283C561.604 440.228 557.889 437.389 567.328 438.14C571.372 435.933 575.802 439.156 571.638 433.854C571.22 433.806 570.231 431.19 563.453 432.142C557.511 432.974 552.526 442.907 553.54 422.713L551.819 421.001C549.922 418.314 544.47 422.593 544.06 422.713C543.891 422.761 542.428 424.672 541.045 424.424C538.971 424.057 527.056 409.421 532.861 420.57C533.713 422.209 548.844 432.814 525.102 449.721C529.974 453.64 533.062 453.968 537.17 449.289L537.154 449.281Z" fill="#E42626"/>
<path d="M474.233 396.977C476.211 422.961 476.098 454.591 500.089 471.138V473.282C502.871 490.357 507.084 493.244 501.81 472.85C512.793 473.354 521.203 463.565 519.048 459.134C515.928 452.712 498.98 470.067 488.021 454.847C478.502 441.635 477.577 412.852 477.682 396.977H474.233Z" fill="#B92126"/>
<path d="M531.116 505.872C536.849 516.293 544.358 531.696 557.833 531.169C558.396 524.339 565.937 514.102 558.693 511.023C558.468 511.199 557.19 515.797 554.818 515.309C554.279 515.197 548.716 507.208 547.059 507.592C542.879 508.559 552.921 515.037 531.116 505.88V505.872Z" fill="#E42626"/>
<path d="M509.569 491.292C515.173 496.307 522.401 506.128 530.256 505.008C525.826 499.762 515.245 492.804 509.569 491.292Z" fill="#4E1D23"/>
<path d="M475.093 390.978C475.117 391.282 473.871 392.266 474.233 396.977H477.682C477.698 394.409 477.634 391.834 477.682 389.259C476.819 389.829 475.956 390.4 475.093 390.97V390.978Z" fill="#A29196"/>
<path d="M561.29 50.5928C558.339 56.7109 556.474 97.0588 556.981 99.4661C557.286 100.922 573.688 113.646 553.531 121.755C551.128 156.289 544.945 190.359 540.603 224.644C536.736 255.211 533.335 285.842 529.395 316.385C527.892 328.037 526.332 349.375 522.497 345.536C524.346 367.338 520.784 413.42 544.044 422.705C544.454 422.577 549.905 418.298 551.803 420.993L553.523 422.705C552.51 442.899 557.495 432.966 563.437 432.134C570.223 431.19 571.211 433.798 571.622 433.845C573.736 434.093 573.76 435.245 575.071 433.414C575.553 425.632 575.336 417.586 575.931 409.837C574.323 408.109 569.853 403.847 569.901 403.407C569.965 402.727 573.559 401.295 575.071 399.552C576.349 398.072 577.378 399.024 577.66 398.264C579.597 392.994 580.996 328.973 581.109 317.241C576.196 325.23 574.773 308.131 573.35 299.238C569.483 275.133 569.772 250.685 569.901 226.356C570.166 176.067 576.904 126.474 579.38 76.313C571.445 67.4517 568.438 56.599 561.282 50.5928H561.29Z" fill="#58575B"/>
<path d="M540.169 390.978C538.28 390.954 533.906 391.778 533.705 393.978C533.287 398.616 552.543 400.863 553.958 404.694C564.787 402.567 547.405 391.058 540.169 390.978Z" fill="#B92126"/>
<path d="M513.018 471.57C520.101 477.233 535.972 475.489 543.184 470.715C547.107 468.115 551.755 460.11 551.803 455.279C537.082 462.629 522.232 459.71 520.342 461.277C519.836 461.693 520.157 467.068 513.018 471.562V471.57Z" fill="#242426"/>
<path d="M537.154 449.281C539.124 452.904 539.59 450.969 539.743 450.993C541.198 447.426 543.321 443.019 547.501 444.131C548.804 443.971 549.745 446.818 556.12 443.275C538.376 434.382 539.188 446.962 537.154 449.273V449.281Z" fill="#20343A"/>
<path d="M543.184 470.715C535.972 475.497 520.101 477.233 513.018 471.57C504.439 476.977 500.91 466.988 506.988 488.717C507.872 489.533 508.604 490.421 509.577 491.292C515.253 492.804 525.834 499.762 530.264 505.008C530.304 505.056 531.22 504.824 531.124 505.864C552.937 515.029 542.895 508.551 547.067 507.575C548.724 507.192 554.287 515.181 554.826 515.293C557.206 515.781 558.476 511.182 558.701 511.006C561.555 508.751 562.938 513.43 563.871 511.438C566.122 506.624 564.024 492.716 560.856 487.861C557.6 488.461 555.357 486.486 552.671 485.286C550.09 484.678 549.166 488.093 546.641 483.575C544.422 479.592 547.14 482.383 550.951 481.863C550.854 481.831 551.288 480.432 550.517 480.152C549.439 479.752 548.925 481.463 547.928 481.008C533.448 474.377 548.925 474.721 543.184 470.723V470.715Z" fill="#242426"/>
<path d="M535.86 481.863C535.208 481.511 521.91 483.351 521.203 483.575C505.203 488.725 531.59 498.21 534.991 497.291C541.037 495.651 527.578 493.596 529.387 488.285C529.58 487.71 539.22 483.663 535.851 481.855L535.86 481.863Z" fill="#E42626"/>
<path d="M556.112 443.275C549.737 446.826 548.796 443.979 547.493 444.131C549.286 446.442 552.526 449.537 547.493 449.273C547.694 451.057 551.007 449.409 551.803 450.561C551.956 450.785 551.819 453.88 551.803 455.279C551.755 460.11 547.107 468.108 543.184 470.715C548.925 474.714 533.439 474.378 547.928 481C548.925 481.455 549.439 479.744 550.516 480.144C551.28 480.424 550.854 481.831 550.951 481.855C575.537 489.797 562.593 473.37 563.879 469.851C565.214 466.22 568.389 469.331 569.909 467.708C570.93 466.62 573.905 439.252 572.924 438.125C572.739 437.917 571.38 438.444 567.32 438.125C557.881 437.381 561.596 440.22 556.112 443.267V443.275Z" fill="#3C3C3E"/>
<path d="M450.097 574.459C448.891 574.659 446.278 574.587 444.927 574.459C438.543 573.867 439.202 572.34 434.153 571.028C433.647 571.428 434.427 582.433 434.587 583.888C435.809 595.285 436.742 596.389 457.863 602.323C467.945 584.608 451.214 614.767 484.58 610.041C454.309 599.028 474.281 599.14 475.527 598.468C476.339 598.028 475.825 596.828 475.961 596.757C495.097 573.348 496.455 592.75 503.112 590.758C508.853 589.039 505.516 586.712 507.856 579.61C508.162 578.674 509.151 577.874 508.716 575.323C507.51 575.347 506.819 577.722 506.127 576.611C504.238 564.03 497.002 575.315 487.161 569.325C486.88 569.301 486.582 569.349 486.301 569.325C483.961 569.133 477.457 567.277 475.527 565.894C470.486 568.069 464.737 569.573 459.15 569.325C455.893 571.94 454.47 573.731 450.097 574.467V574.459Z" fill="#242426"/>
<path d="M627.66 390.123C622.635 458.374 607.979 525.642 591.456 592.038L590.162 593.326C558.581 580.433 548.683 597.26 589.302 596.757C588.401 613.176 585.555 604.074 579.822 604.474C577.595 604.626 555.373 617.094 536.728 607.905C532.844 605.994 528.012 600.483 530.264 596.333C530.826 595.293 552.824 593.35 540.177 583.041C529.564 574.395 523.92 586.935 522.939 587.327C521.918 587.735 509.987 586.472 502.252 593.326C498.313 594.173 496.013 585.328 489.324 586.464C487.812 586.72 483.591 592.238 475.961 596.749C475.825 596.828 476.339 598.028 475.527 598.46C474.273 599.14 454.31 599.028 484.58 610.033C451.214 614.759 467.937 584.6 457.863 602.315C436.75 596.381 435.809 595.277 434.587 583.88C430.246 572.7 433.759 540.421 427.689 546.588C430.801 609.193 443.624 657.058 482.852 706.923C488.182 722.503 481.107 734.499 490.176 733.931C500.7 733.267 489.308 718.072 491.897 717.64C500.885 721.087 507.502 725.606 513.444 733.076C567.682 707.971 591.786 617.062 605.245 562.023C610.857 539.078 620.963 484.566 624.211 460.853C625.876 448.657 626.438 436.213 627.66 423.984C627.677 423.833 629.365 421.569 629.381 421.409C630.635 408.957 629.912 392.906 630.241 389.259C629.378 389.547 628.515 389.832 627.652 390.115L627.66 390.123Z" fill="#E42626"/>
<path d="M468.195 636.193C470.494 636.041 474.176 635.617 473.799 639.624C470.164 639.032 454.72 643.75 463.025 637.912C452.283 640.559 442.346 635.385 454.84 643.055C476.958 636.856 526.26 645.974 529.829 644.766C534.589 643.167 528.776 636.625 528.535 636.193C537.837 651.268 498.795 636.409 477.248 639.624C475.045 629.683 491.149 633.002 498.369 631.906C492.049 631.479 485.727 631.05 479.402 630.618C486.295 628.619 493.191 626.62 500.089 624.62L489.316 615.615C480.898 615.703 471.925 616.679 465.18 610.472C460.042 615.479 449.059 602.907 438.463 600.188C436.284 601.867 443.447 633.09 449.67 634.481C459.817 636.753 477.079 629.339 468.203 636.193H468.195Z" fill="#242426"/>
<path d="M498.369 631.906C491.149 633.002 475.053 629.683 477.248 639.624C498.795 636.409 537.837 651.268 528.535 636.193C518.38 618.174 511.619 629.891 498.369 631.906Z" fill="#20343A"/>
<path d="M521.203 649.909C509.544 647.389 519.804 662.225 526.372 657.626C530.336 654.851 521.749 650.029 521.203 649.909Z" fill="#1E4851"/>
<path d="M531.55 676.493C526.356 675.813 519.345 681.675 526.38 683.355C532.298 684.762 540.298 677.636 531.55 676.493Z" fill="#0D3649"/>
<path d="M478.968 668.775C475.64 667.991 471.395 670.958 471.21 671.35C467.27 679.58 490.514 671.486 478.968 668.775Z" fill="#0D3649"/>
<path d="M497.935 653.339C496.954 653.012 487.836 657.298 488.021 658.058C488.206 658.826 496.254 665.504 497.935 653.339Z" fill="#20343A"/>
<path d="M491.036 643.055C476.524 649.853 487.748 646.366 488.447 646.486C493.255 647.285 503.981 653.907 491.036 643.055Z" fill="#1E4851"/>
<path d="M506.554 646.478C504.278 645.83 503.386 648.637 498.369 648.621C508.716 656.115 510.646 647.645 506.554 646.478Z" fill="#1E4851"/>
<path d="M501.384 606.186C500.162 605.874 495.563 606.826 495.354 607.041C487.933 614.695 510.598 608.561 501.384 606.186Z" fill="#20343A"/>
<path d="M463.025 637.904C465.469 637.304 465.381 638.368 468.195 636.193C465.147 636.393 465.525 636.145 463.025 637.904Z" fill="#242426"/>
<path d="M468.195 636.193C465.381 638.368 465.461 637.304 463.025 637.904C454.728 643.742 470.164 639.024 473.798 639.616C474.176 635.609 470.494 636.041 468.195 636.185V636.193Z" fill="#20343A"/>
</g>
<defs>
<clipPath id="clip0_108_2436">
<rect width="638" height="878" fill="white" transform="matrix(-1 0 0 1 638 0)"/>
</clipPath>
</defs>
</svg>
