<svg width="188" height="92" viewBox="0 0 188 92" fill="none" xmlns="http://www.w3.org/2000/svg">
<path d="M61.3259 28.8842C61.3259 20.0394 61.3259 11.1945 61.3259 2.34969C61.3259 0.262826 61.5299 0.0496655 63.5668 0.0365075C65.3155 0.025981 67.0642 0.0286126 68.8129 0.0338758C71.1537 0.0404549 71.5129 0.39967 71.5129 2.67996C71.5103 9.24978 71.5419 15.8209 71.4826 22.3907C71.4708 23.6868 71.8261 24.2171 73.1656 24.1394C74.7498 24.0487 76.3498 24.0171 77.9314 24.1236C79.3262 24.2184 79.7722 23.75 79.7551 22.3407C79.6814 15.8775 79.7104 9.41426 79.6933 2.9497C79.6867 0.197036 79.8985 -0.0174406 82.6933 0.00098069C84.3354 0.0115071 85.9789 0.00492811 87.621 0.00624391C89.7474 0.00755972 90.3053 0.56283 90.3092 2.75759C90.3197 9.22215 90.3197 15.6854 90.3184 22.1499C90.3158 33.0646 90.3092 43.9792 90.3052 54.8938C90.3052 57.4938 90.1526 57.6543 87.4986 57.6688C85.592 57.6793 83.6815 57.5978 81.7788 57.682C80.2762 57.7478 79.7091 57.1859 79.7209 55.6662C79.7709 49.2555 79.7459 42.8449 79.738 36.433C79.7354 34.2067 79.7209 34.2067 77.4577 34.2027C75.9735 34.2001 74.488 34.2501 73.0077 34.179C71.8155 34.1225 71.4734 34.5948 71.4813 35.7606C71.5287 42.2778 71.5063 48.795 71.5024 55.3122C71.5011 57.5017 71.3971 57.6122 69.1339 57.6385C67.2273 57.6596 65.3142 57.5438 63.4141 57.6583C61.8115 57.7557 61.2746 57.1556 61.2891 55.5819C61.3431 49.3845 61.3062 43.187 61.3036 36.9883C61.3036 34.2869 61.3036 31.5856 61.3036 28.8829C61.3115 28.8829 61.318 28.8829 61.3259 28.8829V28.8842ZM63.1812 38.912C63.1812 42.0857 63.1931 44.9265 63.1747 47.7687C63.1681 48.7569 63.5365 48.8582 64.2931 48.3542C64.5273 48.1976 64.7997 47.8411 65.1049 48.1792C65.351 48.4529 65.1918 48.8003 65.001 49.0516C64.5562 49.6398 64.0694 50.195 63.6141 50.774C63.351 51.1095 63.0233 51.5306 63.4575 51.8779C63.8062 52.1569 64.147 51.7701 64.3957 51.5161C65.1326 50.7595 65.8339 49.9687 66.5694 49.2121C66.801 48.974 67.0286 48.4766 67.4484 48.8411C67.8326 49.174 67.6879 49.6056 67.3734 49.9608C66.3957 51.0661 65.5589 52.299 64.4102 53.2543C63.8997 53.6793 63.4352 54.1464 63.3602 55.1148C64.9378 54.2096 66.0378 53.0819 67.276 52.1398C67.5865 51.9029 67.9576 51.4306 68.3563 51.8845C68.7563 52.3398 68.4326 52.7714 68.0366 53.0951C67.301 53.6977 66.551 54.2832 65.8194 54.8898C65.6181 55.0569 65.4023 55.2806 65.5392 55.5662C65.6655 55.8306 65.9576 55.853 66.2273 55.8438C67.2839 55.8083 69.7353 53.3227 69.7484 52.2201C69.7774 49.8398 69.6984 47.4568 69.8037 45.0805C69.8603 43.7871 69.4984 43.1989 68.1497 43.3436C67.5589 43.4068 67.0576 43.0765 66.5181 42.8476C64.8431 42.137 64.3681 40.462 63.1825 38.912H63.1812ZM88.1947 4.30893C88.2302 2.47733 88.1329 2.43917 86.546 2.95628C85.1131 3.42339 83.9473 4.30893 82.7183 5.1221C81.6683 5.81684 81.563 6.79185 81.6262 7.89845C81.6775 8.80241 81.9854 8.83925 82.7065 8.40898C84.1065 7.57081 85.5039 6.68396 87.0065 6.07606C88.0079 5.67079 88.3197 5.14315 88.1947 4.31024V4.30893ZM63.176 19.8236C63.0628 20.6986 63.3852 21.271 64.4734 21.1762C65.6536 21.0736 66.7589 21.4131 67.8892 21.6934C68.505 21.846 69.4905 22.3131 69.7116 21.1973C69.8839 20.3236 70.0839 19.3446 68.8747 18.7736C67.63 18.1854 66.2931 18.3459 65.0181 18.0433C63.5562 17.6959 63.1615 18.1591 63.176 19.8236ZM81.9617 36.5396C83.1288 34.9001 83.8012 33.4527 82.5328 31.6948C81.5433 30.3224 80.5657 29.1066 78.6262 29.2803C77.6288 29.3698 76.213 29.2987 76.2182 30.4224C76.2248 31.8224 77.7275 31.554 78.742 31.554C80.7446 31.554 81.6591 32.4659 81.5894 34.5172C81.5683 35.1462 81.4486 35.7751 81.963 36.5396H81.9617ZM63.1628 30.654C63.1628 30.654 63.1733 30.654 63.1786 30.654C63.1786 31.4974 63.1628 32.3409 63.1852 33.1843C63.1957 33.6014 63.2878 33.8975 63.8589 33.6369C65.6155 32.8343 66.0944 30.904 67.3944 29.7027C67.4734 29.629 67.4365 29.3961 67.4076 29.2461C67.1773 28.025 65.8049 27.254 64.176 27.3658C62.651 27.4697 63.3089 28.6316 63.1747 29.3921C63.1023 29.8014 63.1615 30.2329 63.1615 30.6553L63.1628 30.654ZM69.7366 13.9169C69.7366 12.5643 70.0524 11.1156 69.6747 9.87742C68.7287 6.77475 66.4642 4.46288 64.3523 2.09574C64.072 1.78258 63.7247 1.66811 63.3707 1.94443C63.0075 2.22996 63.2852 2.50891 63.4536 2.76549C63.6273 3.02997 63.7957 3.30365 64.0036 3.54181C66.6484 6.57212 68.6089 9.96163 69.7366 13.9156V13.9169ZM86.8157 15.7604C87.5855 15.813 88.0644 15.7959 88.1579 15.1499C88.246 14.5341 88.1236 14.0722 87.4894 13.713C86.0526 12.8998 84.3802 13.1814 82.8986 12.6143C82.3907 12.4196 81.7591 12.2867 81.6933 13.0814C81.6328 13.8064 81.2946 14.917 82.4499 14.992C84.0354 15.0933 85.5828 15.2538 86.8157 15.7604ZM85.6657 49.8674C85.6657 49.3884 85.6039 48.9319 85.3394 48.5095C84.9407 47.874 84.3381 47.7161 83.6946 47.9082C82.7052 48.2042 83.5657 48.7305 83.6249 49.1345C83.7183 49.7819 83.7499 50.3779 83.3012 50.924C82.8354 51.4911 82.3933 52.0793 81.9578 52.6701C81.7696 52.9253 81.5867 53.2438 81.7736 53.5438C81.9828 53.8793 82.342 53.7003 82.6381 53.6398C84.2249 53.3161 85.6933 51.4819 85.667 49.8661L85.6657 49.8674ZM68.0879 15.3999C67.955 12.0893 66.2484 9.42741 64.5773 6.7537C64.2931 6.29974 64.0115 5.48789 63.3536 5.94711C62.8983 6.26422 63.0575 7.03528 63.4786 7.52344C65.4944 9.86426 66.7457 12.6446 68.0879 15.4012V15.3999ZM85.8789 39.2909C86.0184 39.3002 86.5473 39.3186 87.0736 39.3699C87.8039 39.4423 88.1736 39.1396 88.1776 38.3949C88.1802 37.7778 88.1355 37.1712 87.3355 37.1291C86.2802 37.0738 85.1881 36.9883 84.2104 37.4304C83.6289 37.6936 82.8038 38.0804 83.0157 38.8975C83.2104 39.6502 84.0117 39.2015 84.5407 39.2817C84.8512 39.3278 85.1736 39.2896 85.8802 39.2896L85.8789 39.2909ZM63.7799 10.0682C63.0365 10.3827 63.0273 10.988 63.1602 11.313C63.8668 13.0393 64.6602 14.7314 65.4563 16.4183C65.5878 16.6986 65.9247 16.9117 66.2536 16.7301C66.5747 16.5525 66.5168 16.2064 66.4392 15.8867C66.0036 14.0893 65.1773 12.4551 64.3273 10.8327C64.1826 10.5577 63.9641 10.3222 63.7799 10.0682ZM82.6367 18.7683C82.1907 18.6881 81.7749 18.6986 81.6986 19.2854C81.6196 19.8933 81.9683 20.2052 82.5104 20.2091C84.1078 20.221 85.6394 20.4947 87.1184 21.1131C87.4263 21.242 87.8986 21.4184 88.0881 20.9526C88.2855 20.467 87.9486 20.167 87.5171 19.992C85.9486 19.3552 84.3289 18.9183 82.6367 18.7683ZM82.9433 23.6421C82.4104 23.7118 81.9091 23.5947 81.7472 24.1144C81.6657 24.3789 81.888 24.6487 82.163 24.6934C83.9446 24.9802 85.4723 25.9631 87.1671 26.4816C87.4552 26.5697 87.8026 26.7711 87.9723 26.3553C88.1144 26.0092 87.8486 25.6789 87.596 25.5697C86.0249 24.8842 84.4302 24.2513 82.9433 23.6421ZM68.8431 27.525C69.1458 28.6895 70.2589 28.4803 70.859 29.0606C71.9919 30.1553 73.3077 31.0606 74.5432 32.0501C74.7945 32.2514 75.0616 32.5303 75.3406 32.1777C75.5406 31.9251 75.284 31.6882 75.0998 31.5093C74.23 30.6632 73.4537 29.6685 72.4498 29.0303C71.3984 28.3619 70.28 27.6263 68.8431 27.525ZM66.2221 38.0909C65.647 38.1251 65.0852 38.0212 64.9878 38.6725C64.9076 39.2107 65.376 39.3712 65.7734 39.4988C66.7707 39.8199 67.7787 40.1081 68.7787 40.4212C69.0734 40.5133 69.3879 40.741 69.6353 40.416C69.9221 40.0396 69.6734 39.7396 69.3984 39.4633C68.4892 38.5515 67.2536 38.437 66.2207 38.0896L66.2221 38.0909ZM63.9483 24.6052C67.2839 25.221 70.3918 26.4474 73.4761 27.7526C70.5537 25.9197 67.655 24.0197 63.9483 24.6052ZM81.9802 21.9605C83.7946 22.7592 85.8065 22.9263 87.4578 24.0776C87.6657 24.2223 88.0039 24.15 88.1289 23.8644C88.2776 23.5236 88.0973 23.2592 87.8105 23.0671C86.0394 21.871 84.042 21.7776 81.9802 21.9618V21.9605ZM81.6486 26.2158C81.5854 26.8053 81.9854 26.8974 82.2854 27.1013C83.8815 28.1816 85.9341 28.1395 87.525 29.2342C87.6921 29.3487 87.95 29.3461 88.0908 29.1369C88.271 28.8698 88.1776 28.575 87.9263 28.4645C85.892 27.5737 83.9552 26.3855 81.6472 26.2158H81.6486ZM66.4497 1.92864C67.5287 3.22339 68.5037 4.39577 69.551 5.65237C70.1155 3.01154 68.855 1.50363 66.4497 1.92864ZM88.0026 7.65897C85.7934 8.31687 83.8446 9.42347 82.2051 11.0577C84.6157 10.7432 86.2684 9.13267 88.0026 7.65897ZM81.892 43.6476C83.8644 43.6476 85.3841 43.6568 86.9052 43.641C87.3052 43.6371 87.9079 43.7186 87.9315 43.187C87.9592 42.5581 87.3131 42.5726 86.8592 42.537C85.267 42.412 83.7275 42.5884 81.8933 43.6476H81.892ZM82.0762 16.9709C83.9183 17.3644 85.7644 17.6604 87.4631 18.4999C87.7039 18.6183 88.0065 18.5841 88.1013 18.2552C88.1921 17.9394 87.9421 17.7801 87.7197 17.638C85.9697 16.5104 84.0618 16.5012 82.0762 16.9722V16.9709ZM76.384 25.9881C77.313 26.9434 78.2169 27.4974 79.2301 27.8724C79.5604 27.9948 79.9828 28.0737 80.2196 27.6895C80.4143 27.3724 80.1459 27.1158 79.992 26.8461C79.1433 25.3645 77.8683 25.8053 76.384 25.9881ZM87.6526 41.2133C85.9394 40.8949 84.2446 40.8081 82.5446 41.0239C82.242 41.062 81.813 41.1436 81.8459 41.512C81.8894 42.0081 82.3644 41.9883 82.7104 41.8883C84.3289 41.4186 86.0039 41.4818 87.6526 41.2133ZM83.7749 29.6066C85.1578 30.4816 86.4605 31.5001 88.0868 31.8277C87.1236 30.1171 85.3447 30.0527 83.7749 29.6066ZM72.4445 32.4211C71.6248 31.1461 70.7484 30.625 69.9063 30.0606C69.5642 29.8316 69.2142 29.7132 68.9458 30.0856C68.6484 30.4974 68.955 30.7816 69.2971 30.9501C70.2089 31.3987 71.1366 31.8132 72.4445 32.4211ZM87.5789 45.5305C85.7565 45.1029 83.9052 44.7042 81.9551 45.7581C83.9802 46.5134 85.7289 45.1463 87.5789 45.5305ZM69.4971 23.7894C68.1076 22.8065 66.3168 23.0578 64.897 22.217C64.8352 22.1802 64.5734 22.3302 64.5326 22.4407C64.4036 22.7828 64.6905 22.9526 64.9339 22.9868C66.4589 23.2026 67.9813 23.4236 69.4984 23.7908L69.4971 23.7894ZM88.0486 34.5725C87.1263 33.4659 86.0736 32.5803 84.2631 32.1395C85.4249 33.6172 86.7999 34.008 88.0486 34.5725ZM65.5852 34.5698C66.9063 34.4883 67.9958 35.6225 69.576 35.3014C68.2142 34.3712 66.9813 33.9948 65.5852 34.5698ZM67.4839 36.862C67.4997 36.7778 67.5155 36.6935 67.5313 36.608C67.0247 36.358 66.5339 36.0699 66.0076 35.8725C65.6049 35.7212 65.0905 35.7198 64.9707 36.2291C64.826 36.8488 65.3865 36.833 65.7839 36.8541C66.3484 36.8843 66.9168 36.862 67.4826 36.862H67.4839ZM85.6223 54.1385C86.3894 54.5398 86.9526 55.3596 87.9394 55.2504C88.171 55.2254 88.2447 54.9385 88.0868 54.7596C87.4407 54.028 86.6092 53.8411 85.6223 54.1385ZM85.6012 11.8985C86.596 11.4472 87.5105 11.3801 88.0605 10.5327C88.1881 10.3366 88.1223 10.0669 87.896 10.0366C86.9394 9.91031 86.5157 10.8287 85.792 11.1761C85.7105 11.2156 85.7157 11.4393 85.6012 11.8985Z" fill="white"/>
<path d="M122.947 28.7013C122.947 33.625 123.016 38.5501 122.925 43.4725C122.849 47.5884 121.523 51.2213 118.32 54.0253C111.967 59.5912 102.071 59.0767 97.062 50.8661C95.5106 48.3226 94.8212 45.6555 94.8146 42.7594C94.7935 33.3343 94.6659 23.9078 94.8462 14.4866C94.9712 7.96814 97.9857 3.31677 103.934 1.08648C111.911 -1.90435 118.421 1.66017 121.935 9.00368C122.66 10.5195 123.003 12.2814 122.97 14.088C122.882 18.9578 122.94 23.8302 122.94 28.7013C122.941 28.7013 122.944 28.7013 122.945 28.7013H122.947ZM112.342 29.0408H112.299C112.299 23.8486 112.356 18.6551 112.273 13.4643C112.237 11.2458 110.665 9.98396 108.384 10.0234C106.673 10.0537 104.849 11.834 104.844 13.6445C104.816 23.6591 104.809 33.6737 104.842 43.6883C104.849 45.7028 106.879 47.6686 108.819 47.4226C110.963 47.1502 112.419 46.3963 112.369 43.666C112.281 38.7922 112.344 33.9158 112.344 29.0408H112.342ZM121.02 13.4182C120.831 13.1945 120.562 12.8761 120.294 12.5603C116.627 8.24052 111.704 5.71549 106.848 3.0694C105.441 2.3036 104.273 2.4286 103.009 3.18519C102.727 3.35493 102.448 3.50098 102.486 3.88257C102.517 4.19705 102.773 4.28652 103.034 4.36284C107.131 5.55101 110.65 7.77341 113.983 10.3669C115.644 11.6603 117.424 12.7985 119.141 14.0209C119.627 14.3669 120.12 14.3748 120.64 14.1669C120.899 14.063 121.073 13.8735 121.02 13.4182ZM114.329 34.1658C114.348 34.1658 114.367 34.1658 114.386 34.1658C114.386 35.2211 114.485 36.2882 114.367 37.3304C114.024 40.3778 114.599 43.112 116.82 45.3581C117.596 46.1436 118.387 46.9134 119.16 47.7029C119.452 48.0015 119.727 48.4844 120.183 48.1331C120.654 47.77 120.466 47.2976 120.108 46.8949C117.778 44.2712 116.462 41.1751 115.671 37.779C114.239 31.6277 115.212 26.1776 119.983 21.7144C120.402 21.3223 120.896 20.9749 121.035 20.3644C121.094 20.1051 121.123 19.792 120.87 19.6525C120.731 19.5762 120.453 19.6499 120.285 19.742C117.242 21.413 114.6 24.3118 114.353 27.9868C114.215 30.0395 114.328 32.1079 114.328 34.1698L114.329 34.1658ZM120.783 22.9354C120.223 23.0473 120.008 23.4394 119.746 23.7618C117.937 25.9947 117.071 28.5868 116.731 31.4145C116.162 36.1159 117.295 40.4041 119.724 44.3976C119.953 44.7739 120.229 45.416 120.777 45.112C121.358 44.7883 120.895 44.3094 120.671 43.9015C119.429 41.6383 118.249 39.333 117.774 36.7751C117.2 33.6829 117.011 30.6369 118.704 27.7105C119.391 26.5236 120.066 25.3381 120.866 24.2262C121.225 23.7276 121.265 23.3078 120.785 22.9354H120.783ZM112.111 55.3385C111.925 54.4161 111.258 54.149 110.827 53.7687C107.965 51.2555 106.115 47.7081 102.594 45.8555C101.063 45.0502 99.6423 44.0331 97.9633 43.5357C97.5462 43.412 96.9514 43.0989 96.7212 43.7225C96.4646 44.4147 97.1554 44.4028 97.5646 44.5673C98.8765 45.0936 100.287 45.3936 101.409 46.3449C104.303 48.7989 107.256 51.1832 109.936 53.8819C110.498 54.4477 111 55.1858 112.112 55.3385H112.111ZM97.8791 32.729C97.533 32.8395 96.708 32.3356 96.5975 33.3948C96.5093 34.2343 96.7488 34.8843 97.658 35.054C99.2225 35.3461 100.703 35.8974 102.18 36.458C102.645 36.6343 102.902 36.5119 102.966 36.0343C103.092 35.1027 103.115 34.1448 102.032 33.775C100.74 33.3343 99.4988 32.6619 97.8791 32.729ZM102.784 18.3406C103.263 16.8025 102.544 15.5446 102.996 14.3156C103.124 13.9682 103.107 13.3893 102.621 13.2116C102.048 13.0011 101.969 13.5485 101.778 13.9116C101.361 14.7011 100.728 15.0261 99.9791 14.4169C98.9896 13.613 98.0093 13.5708 97.1317 14.4222C96.1304 15.3919 96.6843 16.5393 96.9041 17.6854C97.1317 16.1577 98.0857 15.7998 99.3804 15.6235C101.324 15.359 101.929 16.738 102.786 18.3406H102.784ZM113.844 46.2015C114.744 47.8436 115.9 49.4923 117.553 50.7608C117.961 51.0739 118.407 51.5858 118.836 50.8582C119.146 50.3305 119.462 49.745 118.745 49.1884C117.366 48.1173 116.304 46.7318 115.15 45.4384C114.908 45.1673 114.69 44.7212 114.295 44.8673C113.846 45.0344 113.908 45.5607 113.842 46.2015H113.844ZM109.373 55.9095C109.459 55.8161 109.546 55.7227 109.634 55.6293C109.45 55.3819 109.303 55.0924 109.077 54.8924C106.706 52.7911 104.316 50.7121 101.945 48.6108C100.904 47.6884 99.716 47.0068 98.4751 46.412C98.1067 46.2357 97.608 46.0028 97.3607 46.516C97.087 47.0831 97.5159 47.3186 98.0028 47.5463C99.9699 48.4647 101.691 49.7581 103.425 51.0555C105.477 52.5898 107.487 54.1687 109.373 55.9095ZM114.731 22.3867C116.277 20.5775 118.285 19.4104 120.216 18.1525C120.804 17.7696 121.158 17.3393 121.119 16.6183C121.087 16.0459 120.968 15.6406 120.277 16.0117C117.636 17.4288 115.764 19.5301 114.731 22.3867ZM97.8238 28.3039C97.2014 28.2579 96.808 28.221 96.6659 28.6868C96.5541 29.0579 96.608 29.4132 96.8883 29.7132C98.1396 31.0513 102.423 30.0737 102.991 28.3079C103.124 27.8947 103.098 27.4355 102.812 27.1065C102.609 26.8736 102.324 27.0855 102.124 27.2539C100.784 28.3829 99.3081 28.8908 97.8238 28.3026V28.3039ZM105.203 54.4424C103.144 52.4371 100.975 50.6003 98.3159 49.391C98.562 50.1108 98.7975 51.0503 99.3199 51.2516C101.426 52.0661 103.274 53.3029 105.203 54.4424ZM99.9975 7.00498C99.5765 7.06945 99.1475 6.88261 98.9738 7.35366C98.8646 7.65104 99.0594 7.92341 99.3054 7.97736C101.151 8.37605 102.938 8.95368 104.712 9.59317C105.088 9.72869 105.4 9.39185 105.574 9.04316C105.688 8.81158 105.546 8.61815 105.334 8.55631C103.536 8.02341 101.732 7.50761 99.9975 7.00498ZM104.015 11.2761C102.119 9.60764 100.286 9.22869 98.3212 9.24579C98.0383 9.24842 97.7988 9.4129 97.7712 9.70896C97.737 10.084 98.0067 10.3326 98.3291 10.355C100.09 10.4787 101.717 11.3958 104.015 11.2761ZM97.9672 38.7356C97.4449 38.8462 96.8488 38.4856 96.7883 39.1356C96.7409 39.6528 97.2659 39.7541 97.6922 39.8278C99.1488 40.0804 100.512 40.6304 101.871 41.1804C102.213 41.3186 102.582 41.5936 102.829 41.1396C103.048 40.7383 102.746 40.4514 102.413 40.2409C101.007 39.3527 99.3633 39.208 97.9659 38.7356H97.9672ZM107.767 8.04841C105.883 6.27075 103.537 5.61943 101.126 5.12337C100.899 5.076 100.696 5.12732 100.621 5.36811C100.541 5.62469 100.703 5.75759 100.928 5.81812C103.246 6.43918 105.499 7.26024 107.769 8.04841H107.767ZM103.002 20.9841C102.916 20.8565 102.804 20.6196 102.63 20.4446C101.782 19.588 100.195 19.6749 99.3738 20.6051C99.1278 20.8841 98.8265 21.1644 99.1133 21.5565C99.3383 21.8631 99.6896 21.7986 99.9699 21.6433C100.762 21.2065 101.532 21.1262 102.365 21.5644C102.724 21.7538 102.944 21.492 103.002 20.9841ZM121.065 26.9986C119.471 28.4658 118.735 31.0066 119.437 32.7935C119.483 30.5974 121.273 29.2618 121.065 26.9986ZM102.795 43.8068C102.387 42.8475 97.9094 40.837 97.0936 41.1343C96.8646 41.2186 96.7041 41.3778 96.7593 41.5817C96.8054 41.7528 97.008 42.0041 97.1475 42.008C99.1659 42.0646 100.853 43.2107 102.795 43.8068ZM103.116 39.0712C102 37.3264 98.6804 36.3317 96.7199 36.9632C98.8265 37.8133 100.94 37.8725 103.116 39.0712ZM108.942 49.4621C110.494 51.1911 111.824 53.1753 114.04 54.1266C112.448 52.445 110.987 50.6213 108.942 49.4621ZM115.09 3.88388C114.941 3.03782 114.249 3.07072 113.746 2.97729C113.031 2.84571 112.525 3.26809 112.394 3.96941C112.292 4.51284 112.7 4.96811 113.161 4.97074C113.963 4.97337 114.574 4.45231 115.089 3.88388H115.09ZM102.438 30.9158C102.133 31.2737 101.29 30.9974 101.319 31.7355C101.333 32.1132 101.77 32.2829 102.162 32.2816C102.657 32.279 102.946 32.0119 102.949 31.5105C102.95 31.2079 102.958 30.8447 102.438 30.9158Z" fill="white"/>
<path d="M128.765 29.0646C128.765 20.3776 128.765 11.6907 128.765 3.00371C128.765 0.297093 129.015 0.0484052 131.799 0.0536684C138.58 0.0681422 145.359 0.0799845 152.139 0.107616C154.235 0.115511 154.509 0.404989 154.522 2.51949C154.534 4.26688 154.522 6.01558 154.522 7.76297C154.522 10.0406 154.311 10.2906 151.965 10.3183C148.311 10.3617 144.656 10.3393 141.002 10.3604C138.843 10.3735 138.835 10.388 138.83 12.5854C138.823 15.7631 138.872 18.9421 138.809 22.1184C138.782 23.4434 139.247 23.8632 140.577 23.8079C143.007 23.7053 145.445 23.7803 147.88 23.7974C149.714 23.8105 150.253 24.2948 150.295 26.1237C150.34 28.1356 150.281 30.1488 150.286 32.1606C150.289 33.4778 149.688 34.083 148.342 34.0646C145.694 34.0291 143.044 34.1041 140.397 34.0501C139.245 34.0265 138.794 34.3975 138.812 35.5936C138.868 39.0884 138.855 42.5858 138.807 46.0806C138.793 47.1806 139.189 47.5714 140.289 47.5608C144.209 47.524 148.128 47.5529 152.048 47.5687C153.999 47.5766 154.528 48.0951 154.538 49.9885C154.547 51.8951 154.521 53.803 154.543 55.7083C154.559 57.0057 154.057 57.6399 152.66 57.632C145.244 57.5899 137.83 57.5768 130.414 57.6175C128.998 57.6254 128.75 56.9544 128.754 55.757C128.779 46.8582 128.768 37.9594 128.768 29.0619L128.765 29.0646ZM134.383 20.3881C133.356 20.6131 132.344 20.9645 131.27 20.85C130.916 20.8118 130.577 20.8131 130.551 21.2289C130.473 22.4539 130.24 23.6974 130.772 25.2092C130.928 24.7303 131.052 24.5448 131.035 24.3737C130.887 22.8671 131.548 21.9934 133.002 21.575C133.577 21.4092 134.227 21.1329 134.349 20.371C135.14 20.3697 135.701 19.921 136.302 19.4697C137.282 18.7355 137.507 17.7131 136.851 16.8855C136.256 16.1368 135.27 16.5144 134.428 16.9947C135.991 18.1407 135.976 18.5513 134.382 20.3881H134.383ZM132.454 1.705C132.297 1.705 132.135 1.68658 131.979 1.70895C131.486 1.78001 130.795 1.46553 130.566 2.09843C130.268 2.92344 131.147 2.94055 131.573 3.24318C133.678 4.73662 135.837 6.15901 137.886 7.72745C138.887 8.49325 139.906 8.80509 141.112 8.67878C141.514 8.63667 142.041 8.83799 142.251 8.35903C142.49 7.80771 141.987 7.50113 141.651 7.19191C139.462 5.18268 136.873 3.73792 134.441 2.06948C133.822 1.64448 133.137 1.7129 132.456 1.70632L132.454 1.705ZM142.352 49.4885C145.073 51.9346 147.824 53.4701 151.099 53.9557C151.747 54.0517 152.671 54.6043 152.778 53.3214C152.861 52.3319 153.032 51.3359 151.494 51.1148C149.631 50.8464 147.73 50.5385 146.032 49.6609C144.907 49.0793 143.845 49.2385 142.353 49.4872L142.352 49.4885ZM130.689 34.6896C130.427 35.7357 130.076 36.8765 130.798 37.4831C132.751 39.1199 134.42 40.9989 136.097 42.8897C136.511 43.3582 136.98 43.2858 137.049 42.5595C137.098 42.0463 137.247 41.4831 136.905 41.02C135.157 38.6594 133.279 36.4252 130.69 34.6883L130.689 34.6896ZM151.865 3.00502C148.826 3.20239 146.166 4.32741 143.582 5.67347C143.256 5.84321 142.886 6.11559 143.064 6.53664C143.282 7.05375 143.73 7.1327 144.26 6.92744C146.853 5.92611 149.455 4.94452 152.049 3.94582C152.33 3.83793 152.717 3.73003 152.596 3.31424C152.481 2.92344 152.097 3.01028 151.865 3.00502ZM137.339 30.7212C137.543 31.1054 136.573 32.2909 138.041 32.4356C139.559 32.5857 139.345 31.4422 139.352 30.5172C139.361 29.3014 139.394 28.0961 139.822 26.9329C139.997 26.4566 140.039 25.9514 139.369 25.829C138.823 25.729 138.244 25.7829 138.109 26.4514C137.839 27.7856 137.094 29.0198 137.337 30.7212H137.339ZM141.487 54.9675C140.131 53.5635 138.46 52.553 137.105 51.1675C135.194 49.2161 133.247 47.3003 131.307 45.3779C131.116 45.1884 130.954 44.7424 130.579 45.1134C130.319 45.37 130.372 45.7003 130.595 45.97C130.762 46.1713 130.966 46.3424 131.157 46.524C133.261 48.5082 135.294 50.5753 137.499 52.4412C138.685 53.4438 139.872 54.578 141.487 54.9675ZM146.715 8.74588C148.464 8.18009 150.306 7.60245 152.131 6.97875C152.538 6.83928 152.871 6.4748 152.755 5.99585C152.603 5.37479 152.034 5.41295 151.588 5.50505C149.678 5.89848 147.867 6.56559 146.215 7.62087C145.923 7.80771 145.405 7.9064 145.523 8.35114C145.665 8.88799 146.228 8.63009 146.715 8.74588ZM136.945 23.4447C134.973 25.8435 134.258 33.6659 135.828 35.7423C135.322 31.4001 136.461 27.4553 136.945 23.4447ZM135.307 22.3487C132.657 24.6066 131.611 32.5817 133.666 34.7041C133.512 32.5699 133.304 30.5238 133.689 28.4698C134.076 26.4 134.491 24.3474 135.307 22.3487ZM144.92 30.883C145.014 31.4817 144.669 32.2396 145.555 32.3449C146.465 32.4528 146.51 31.7212 146.599 31.0817C146.798 29.6593 147.16 28.2935 147.949 27.0685C148.173 26.7224 148.889 26.4053 148.242 25.9395C147.743 25.579 147.235 25.9211 146.864 26.354C145.73 27.6816 145.189 29.258 144.92 30.8843V30.883ZM149.738 1.94843C146.69 1.33395 144.061 2.41817 141.547 3.94187C141.209 4.14714 140.941 4.43793 141.182 4.85241C141.43 5.27742 141.807 5.13663 142.153 4.96426C144.59 3.74845 147.088 2.69054 149.738 1.94843ZM137.922 54.8293C135.151 52.9267 133.215 50.149 130.698 47.8477C130.348 49.7714 134.345 53.6201 137.922 54.8293ZM136.894 10.3775C135.341 8.93667 133.41 8.1235 131.648 7.06954C131.381 6.91033 130.84 6.22611 130.553 7.11297C130.361 7.70508 130.595 8.04719 131.226 8.29588C132.828 8.93009 134.523 9.3801 135.914 10.4854C136.149 10.6722 136.494 10.7512 136.895 10.3775H136.894ZM140.544 30.8606C140.598 31.3462 140.202 32.1067 140.966 32.1751C141.782 32.2475 141.537 31.4277 141.528 30.9751C141.497 29.5764 141.697 28.2435 142.288 26.9645C142.436 26.6422 142.552 26.179 142.094 26.0027C141.548 25.7921 141.312 26.229 141.235 26.6593C140.981 28.058 140.772 29.4632 140.545 30.8619L140.544 30.8606ZM143.31 31.2198C143.63 29.6448 144.218 28.2014 144.989 26.829C145.17 26.5066 145.449 26.1645 144.993 25.8803C144.495 25.5711 144.236 25.904 144.023 26.3237C143.238 27.8659 142.936 29.4856 143.31 31.2198ZM135.177 47.2766C135.277 47.1832 135.376 47.0911 135.476 46.9977C134.065 45.4029 132.654 43.8082 131.24 42.216C131.073 42.0279 130.876 41.7713 130.604 42.0384C130.364 42.2766 130.266 42.616 130.539 42.8779C132.074 44.3542 133.628 45.8121 135.177 47.2766ZM135.176 11.6946C133.903 10.9959 132.629 10.2985 131.36 9.59589C131.068 9.43405 130.764 9.2801 130.569 9.6801C130.412 10.0025 130.508 10.3867 130.853 10.4591C132.324 10.7722 133.512 11.9091 135.176 11.6933V11.6946ZM136.557 46.1398C135.751 44.0358 133.443 41.6305 132.254 41.1923C133.703 42.8568 135.13 44.499 136.557 46.1398ZM130.457 32.6146C130.682 32.6106 130.907 32.6067 131.131 32.6028C131.131 31.3725 131.137 30.1422 131.126 28.9119C131.123 28.6659 131.133 28.3422 130.785 28.3093C130.39 28.2711 130.187 28.6172 130.189 28.8961C130.19 30.1422 130.093 31.412 130.457 32.6146ZM133.569 6.47085C132.754 5.72216 131.951 4.91557 130.743 4.8261C131.441 5.76558 132.394 6.28796 133.569 6.47085ZM139.362 3.54582C140.322 3.04976 141.28 2.5537 142.581 1.88001C140.753 1.57606 140.015 2.48001 139.362 3.54582ZM130.839 51.3438C130.741 51.4556 130.643 51.5688 130.545 51.6806C131.158 52.9293 132.41 53.4372 133.677 53.928C132.731 53.0662 131.785 52.2043 130.84 51.3438H130.839ZM138.86 50.5003C139.753 52.1451 140.37 52.5859 141.487 52.603C140.53 51.8372 139.695 51.1688 138.86 50.5003ZM134.008 13.3591C133.143 12.3222 131.789 12.3986 130.698 11.8736C131.673 12.6604 132.749 13.2196 134.008 13.3591Z" fill="white"/>
<path d="M30.3585 28.5526C30.5033 23.767 30.3085 18.3156 30.4783 12.8603C30.6572 7.11418 35.8546 1.93517 40.8389 0.644364C47.9719 -1.20303 54.018 2.83518 56.7404 8.31551C57.5102 9.86422 58.076 11.5156 58.0154 13.3287C57.947 15.3919 58.0023 17.4617 58.0286 19.5275C58.0444 20.7157 57.5049 21.292 56.3062 21.2828C54.1338 21.2657 51.9614 21.2749 49.789 21.267C48.4337 21.2617 47.739 20.6565 47.789 19.2196C47.8469 17.5788 47.8087 15.9353 47.8061 14.2932C47.8048 13.0682 47.339 11.9853 46.5008 11.1563C44.5126 9.18921 41.085 10.184 40.3415 12.9353C39.6389 15.538 40.0692 18.2117 40.0402 20.8472C39.96 27.996 39.9876 35.1461 40.0205 42.2949C40.0271 43.7094 40.0389 45.2081 41.135 46.312C42.2613 47.4449 43.6732 47.87 45.2205 47.3805C46.7008 46.912 47.7772 45.2344 47.7982 43.5278C47.8232 41.408 47.8508 39.2883 47.8061 37.1698C47.7785 35.8869 48.2824 35.3527 49.5877 35.3843C51.864 35.4409 54.1443 35.4264 56.422 35.3751C57.5931 35.3487 58.0418 35.8606 58.0247 36.9869C57.9799 40.0054 58.2378 43.0554 57.8865 46.0357C57.3733 50.3884 54.8299 53.5977 51.1469 55.8806C44.9126 59.7451 35.9362 57.4977 32.0862 50.67C30.4875 47.8357 30.4467 44.9199 30.3809 41.933C30.2888 37.6975 30.3572 33.4579 30.3572 28.5526H30.3585ZM41.6258 55.5253C42.4968 55.6029 43.0337 55.1398 43.5929 54.7753C44.6561 54.0845 45.6877 53.3424 46.7508 52.649C47.0732 52.4384 47.4587 51.9595 47.8403 52.445C48.1772 52.8726 47.7153 53.2279 47.4679 53.5371C47.0982 53.999 46.6706 54.4135 46.2666 54.8477C47.9824 54.27 49.4022 53.3279 50.6496 52.1213C50.9904 51.7924 51.3377 51.445 51.8956 51.5832C52.6575 51.7713 51.8233 52.4555 52.3259 52.7924C53.6996 51.8687 54.5088 50.5384 55.2338 49.1358C54.7351 48.7923 54.5194 49.0134 54.2786 49.0844C52.3048 49.6752 50.3825 50.3555 48.2745 49.3937C46.1495 48.4239 43.6916 48.8318 41.7955 49.5016C39.8863 50.1752 38.0691 51.0845 36.0073 51.3266C35.6612 51.3674 35.2428 51.4897 35.1823 51.9476C35.1257 52.374 35.4454 52.5976 35.7349 52.8411C36.2678 53.2871 36.7757 53.4371 37.4678 53.0924C38.5994 52.5279 39.7836 52.07 40.9508 51.5792C41.2942 51.4345 41.7284 51.2726 41.9705 51.6371C42.2613 52.074 41.8126 52.3003 41.5139 52.4845C40.8876 52.8687 40.2021 53.1648 39.61 53.5924C39.2928 53.8213 38.4718 53.8648 38.8652 54.5345C39.1599 55.0358 39.6192 54.5516 39.981 54.4056C41.3666 53.8463 42.5495 52.9437 43.7876 52.1319C44.064 51.9503 44.4245 51.5753 44.7508 52.0095C45.0034 52.3463 44.8548 52.7476 44.5561 53.0082C44.1205 53.3884 43.6245 53.699 43.1863 54.0753C42.6837 54.5069 41.8718 54.5819 41.6284 55.5253H41.6258ZM56.1181 13.5919C56.3904 5.80627 46.8521 0.421993 42.8903 2.23912C48.9456 4.10757 51.9943 9.20237 56.1181 13.5919ZM51.1048 19.4328C52.9667 19.7236 54.2114 18.9946 55.522 18.6722C56.5812 18.4117 56.2641 17.3104 56.2365 16.4972C56.2181 15.9735 55.8996 15.7946 55.368 15.8814C53.8614 16.1275 52.3167 16.2853 50.9759 17.063C50.3167 17.4459 49.2561 17.7314 49.6324 18.8893C49.9588 19.8959 50.8785 19.3749 51.1035 19.4314L51.1048 19.4328ZM50.2798 40.4685C50.2798 41.1922 50.368 41.8791 51.2298 42.0791C52.068 42.2738 52.3114 41.6922 52.5601 41.058C52.918 40.1409 53.5957 39.5396 54.4457 39.0067C55.0457 38.6304 56.4352 38.9054 56.1615 37.7922C55.8733 36.6211 54.6299 37.2422 53.818 37.2093C51.7483 37.1238 50.2798 38.5343 50.2798 40.4699V40.4685ZM36.5691 5.47863C36.1454 5.50364 35.281 5.02731 35.2178 6.03522C35.1652 6.87865 36.0336 6.66549 36.5468 6.75497C37.1218 6.85628 37.6586 7.04708 38.2113 7.21287C39.3692 7.56024 40.4047 8.27341 41.6416 8.3642C42.0034 8.39051 42.46 8.43657 42.6284 8.04972C42.831 7.58129 42.3376 7.40366 42.0495 7.26287C40.3547 6.42602 38.6797 5.51285 36.5691 5.47732V5.47863ZM34.1665 11.5156C33.1941 11.6156 32.2125 11.2761 32.1349 12.5103C32.0506 13.8577 33.1072 13.4485 33.8138 13.5169C34.9678 13.6274 36.1257 13.6893 37.2823 13.7827C37.6665 13.8143 38.0639 13.8498 38.1902 13.384C38.3231 12.8971 38.0757 12.5393 37.6139 12.4116C36.3994 12.0735 35.1757 11.7748 34.1665 11.5156ZM34.7783 20.1486C34.9204 20.4841 35.0441 21.0959 35.3941 21.5223C35.7823 21.9959 36.7099 21.8933 36.5625 21.3354C36.0928 19.5578 37.0494 18.5696 38.1323 17.5235C38.2705 17.3906 38.2823 16.9748 38.1797 16.7827C38.0376 16.5169 37.6981 16.6669 37.4507 16.7156C36.2191 16.9564 34.7533 18.7222 34.7783 20.1486ZM36.906 27.2289C37.5362 27.396 37.8849 27.5158 38.0402 27.125C38.227 26.6565 37.9639 26.3223 37.5823 26.0763C36.5244 25.3934 33.0217 26.0381 32.3178 27.0526C32.1007 27.3658 31.9599 27.7394 32.2362 28.0671C32.5085 28.3908 32.8428 28.1723 33.0638 27.9763C34.3191 26.8671 35.7652 27.0565 36.906 27.2289ZM52.5246 44.0581C52.5483 43.512 52.3114 43.3962 52.0338 43.3752C51.3759 43.3265 50.7483 43.3817 50.4377 44.1015C50.2088 44.6318 49.9324 45.1502 49.7772 45.7015C49.539 46.5436 47.9443 47.2923 48.8785 47.9752C49.5285 48.4502 50.3575 46.9515 50.9838 46.2199C51.5943 45.5068 52.0825 44.6896 52.5246 44.0581ZM46.3929 8.06683C44.2797 5.41285 39.4271 3.20887 37.7941 4.12072C40.9613 4.91679 43.5389 6.77076 46.3929 8.06683ZM35.8796 24.7644C36.4757 24.8039 36.9494 24.8591 37.4231 24.8591C37.8205 24.8591 38.1665 24.7131 38.1915 24.2407C38.2126 23.8433 37.9126 23.6618 37.5928 23.6302C35.852 23.4565 34.1059 23.2881 32.5691 24.4262C32.3059 24.621 32.0243 24.8315 32.177 25.1894C32.3743 25.6499 32.7849 25.6026 33.1007 25.367C33.9836 24.7065 35.0323 24.9486 35.8783 24.7644H35.8796ZM36.6639 15.4682C35.5073 14.6143 34.2717 14.5564 33.0112 14.6051C32.3809 14.6287 32.0375 14.9327 32.0401 15.5906C32.0428 16.2643 32.4349 16.5064 33.0401 16.5604C34.3441 16.6775 35.5336 16.4301 36.6652 15.4669L36.6639 15.4682ZM40.306 9.6879C38.3139 8.12209 36.3178 8.08656 34.4296 7.72998C34.1573 7.67866 33.8967 7.8234 33.8349 8.12998C33.7586 8.50499 33.9783 8.81683 34.3073 8.82736C36.1823 8.89315 37.9047 9.98395 40.306 9.6879ZM37.4336 33.7619C37.4283 32.479 37.1494 31.5763 36.5783 30.929C35.8402 30.0921 35.0388 30.1724 34.2362 30.8276C34.0283 30.9974 33.9059 31.2619 34.0244 31.5342C34.123 31.7605 34.3625 31.6882 34.5652 31.7184C36.4073 31.9961 36.6915 32.4066 36.4204 34.3369C36.381 34.6185 36.0941 34.9961 36.5454 35.1251C36.9836 35.2501 37.2099 34.8711 37.3231 34.5119C37.4152 34.2172 37.4165 33.8922 37.4336 33.7632V33.7619ZM38.0613 42.0001C38.0191 41.5067 37.7455 41.358 37.4086 41.4291C36.5191 41.6159 35.6665 41.9357 35.1875 42.7673C34.9138 43.2423 34.5165 43.887 35.1454 44.3133C35.7533 44.7252 36.0744 44.1489 36.3152 43.6646C36.5468 43.2002 37.0691 43.1133 37.4007 42.7896C37.656 42.5409 37.8626 42.2396 38.0599 42.0001H38.0613ZM33.1665 48.1002C35.0336 48.595 36.8073 48.3673 38.5165 47.5805C38.781 47.4594 39.256 47.5423 39.1836 47.112C39.1073 46.6568 38.6626 46.6068 38.2941 46.7515C36.6454 47.4015 34.977 47.9634 33.1651 48.1002H33.1665ZM56.0457 40.3172C54.9272 42.8883 53.2128 44.8962 51.7114 47.4331C53.943 45.6831 56.3128 41.8172 56.0457 40.3172ZM52.2693 14.2787C52.3956 14.1801 52.522 14.0827 52.6483 13.984C51.3219 11.9392 49.4403 10.4274 47.385 9.08C49.0127 10.8129 50.6417 12.5458 52.2693 14.2787ZM33.1665 29.5553C34.7573 29.3263 35.977 29.2447 37.2836 29.5579C36.3678 27.8579 35.1612 27.8223 33.1665 29.5553ZM35.0033 37.5606C34.7296 36.8988 34.077 36.6119 33.5322 36.2119C33.1007 35.8948 32.4335 35.4672 32.2322 36.1672C31.9256 37.2303 33.1599 37.2238 33.7217 37.6659C34.0428 37.9185 34.5283 38.2633 34.9731 37.7461C35.002 37.7119 34.9915 37.6435 35.0033 37.5606ZM32.0138 38.7606C33.6678 40.2106 34.3178 40.3712 35.806 39.6185C34.3086 39.8514 33.5296 38.6606 32.0138 38.7606ZM37.9705 49.3555C36.9349 49.1134 35.9323 49.1397 35.0125 49.666C36.0652 50.1016 37.0547 50.0634 37.9705 49.3555ZM32.6099 10.28C33.9928 10.63 34.9296 10.655 35.8639 10.2774C34.9217 10.0011 33.9928 9.55369 32.6099 10.28ZM32.8507 41.0054C32.427 40.9751 32.073 41.0607 32.0756 41.5396C32.0783 42.0633 32.4862 42.2146 32.9178 42.2515C33.2809 42.2817 33.7257 42.2567 33.7678 41.8041C33.8257 41.1804 33.2665 41.1304 32.8507 41.0041V41.0054Z" fill="white"/>
<path d="M0.342317 28.8671C0.342317 20.1815 0.337054 11.4972 0.346265 2.81155C0.347581 0.737837 0.78706 0.241778 2.79498 0.227304C9.78586 0.175988 16.7767 0.186514 23.7663 0.12204C25.2018 0.108881 25.8018 0.703626 25.7834 2.0997C25.7584 4.05893 25.7979 6.01817 25.7795 7.9774C25.7597 10.0603 25.5058 10.2893 23.3544 10.2787C19.6478 10.2603 15.9386 10.3024 12.2346 10.188C10.7096 10.1406 10.1477 10.6288 10.1845 12.163C10.2622 15.4446 10.2569 18.7302 10.1924 22.0131C10.1622 23.5355 10.6964 24.0671 12.253 23.9723C14.5754 23.8315 16.9109 23.896 19.2412 23.9197C21.2728 23.9408 21.5728 24.25 21.5939 26.2039C21.6136 28.0579 21.6163 29.9119 21.6031 31.7645C21.5913 33.6027 21.2268 33.979 19.3452 33.9935C16.803 34.0146 14.2609 34.0198 11.7188 33.9672C10.6332 33.9448 10.1885 34.3435 10.199 35.4435C10.2319 38.9923 10.2385 42.541 10.1964 46.0884C10.1819 47.2647 10.6451 47.6582 11.8017 47.6397C15.6675 47.5792 19.5333 47.5924 23.4005 47.5897C25.2847 47.5897 25.7545 48.0358 25.7834 49.924C25.8137 51.8819 25.765 53.8411 25.7887 55.8004C25.8045 57.1372 25.24 57.6438 23.861 57.6267C16.553 57.5359 9.24506 57.5017 1.93707 57.5017C0.471266 57.5017 0.339686 56.6859 0.341002 55.5556C0.356791 46.6581 0.348896 37.7607 0.348896 28.8645C0.346265 28.8645 0.343633 28.8645 0.341002 28.8645L0.342317 28.8671ZM11.999 8.76688C12.6293 8.63794 13.5899 9.17084 13.8583 8.43925C14.1478 7.65108 13.1662 7.28266 12.6569 6.78133C11.1411 5.28789 9.19901 4.37472 7.57925 3.03392C6.23581 1.92075 4.76737 1.43785 3.04893 1.62469C2.58313 1.67601 2.01602 1.56022 1.82523 2.12206C1.59891 2.79444 2.20024 3.01155 2.62656 3.30629C4.79369 4.80104 6.98977 6.25764 9.10953 7.81819C10.0003 8.47346 10.8372 9.02873 11.9977 8.76557L11.999 8.76688ZM15.8201 49.1516C14.982 49.2542 14.1728 48.895 13.9293 49.4621C13.6359 50.1437 14.5504 50.2832 14.9491 50.6214C17.0781 52.4345 19.5702 53.4951 22.2965 54.0293C23.0544 54.178 23.9873 54.5425 24.061 53.253C24.1163 52.2885 24.3308 51.1727 22.7834 51.0306C21.1557 50.8806 19.5636 50.4766 18.0465 49.8885C17.2228 49.57 16.5149 48.9424 15.8201 49.1529V49.1516ZM8.64505 42.2805C8.62137 41.8673 8.77269 41.4239 8.4911 41.0515C6.87003 38.9015 5.15159 36.8383 3.01867 35.1633C2.70156 34.9146 2.08708 34.5527 1.97786 35.0764C1.79102 35.9685 1.16075 37.0409 2.20287 37.8344C4.10684 39.2804 5.66475 41.066 7.24109 42.837C7.51872 43.1489 7.81083 43.616 8.23847 43.5068C8.85821 43.3463 8.5411 42.7107 8.64505 42.2805ZM7.48188 37.258C7.51477 37.162 7.58846 37.058 7.57399 36.9699C6.88056 32.7159 7.31477 28.5566 8.61479 24.4684C8.82269 23.8158 8.86874 23.1789 8.2332 22.4539C5.79238 27.3855 5.37527 32.2224 7.48188 37.2593V37.258ZM3.53578 31.2198C3.48578 32.2027 3.82657 33.1027 4.07789 34.0198C4.195 34.4462 4.38579 34.933 4.87 34.8685C5.54896 34.7791 5.1858 34.208 5.14501 33.8475C4.73448 30.2566 5.2858 26.7921 6.43976 23.3934C6.5766 22.9907 7.27924 22.4776 6.71213 22.1776C6.00555 21.8039 5.77923 22.6631 5.53054 23.1289C4.18447 25.6553 3.88973 28.4474 3.53578 31.2185V31.2198ZM14.5635 56.2543C14.2491 55.7069 14.2056 55.5333 14.0964 55.4569C10.0319 52.649 6.46739 49.2871 3.14762 45.645C2.83709 45.3042 2.46076 44.5884 1.88181 45.1015C1.25154 45.6608 1.86207 46.1239 2.25418 46.5437C4.60421 49.0608 7.23451 51.2714 9.88586 53.453C11.1767 54.5148 12.6162 55.3543 14.5635 56.2543ZM23.7979 3.42603C23.7044 3.02865 23.3926 2.97734 23.0676 2.99576C20.0662 3.17339 17.3544 4.2642 14.757 5.68395C14.3872 5.88659 14.0583 6.2708 14.4109 6.72607C14.653 7.03792 14.9438 7.42608 15.4636 7.16292C17.9478 5.90632 20.5886 5.04578 23.1873 4.07867C23.486 3.96814 23.7623 3.79972 23.7979 3.4234V3.42603ZM5.36343 17.113C6.23318 17.5223 6.8674 17.8933 6.58713 18.8433C6.34239 19.6736 5.86739 20.2605 5.0108 20.4302C4.28973 20.5723 3.5542 20.6526 2.8213 20.7091C2.3805 20.7434 1.90155 20.7368 1.83444 21.2684C1.68444 22.4644 1.58312 23.671 2.19234 24.9381C2.03181 22.6394 3.70289 22.0855 5.19764 21.2736C6.29502 20.6776 7.34898 19.9644 8.2582 19.0644C8.58716 18.7394 8.74242 18.4486 8.73584 17.9775C8.70953 16.2104 7.69372 15.8841 5.36343 17.113ZM13.5938 53.2688C13.2398 52.8938 12.9319 52.4543 12.524 52.1516C10.0385 50.3174 7.89504 48.1503 5.98186 45.7292C5.03448 44.5305 3.9621 43.4265 2.91472 42.3107C2.65287 42.0318 2.30155 41.5844 1.85549 42.0449C1.42654 42.487 1.59496 42.8581 2.06602 43.2199C3.37393 44.2252 4.36605 45.5529 5.53317 46.7003C7.99899 49.1227 10.0661 52.0266 13.5938 53.2688ZM8.53452 30.9264C8.50558 31.6909 8.27926 32.504 9.48059 32.5185C10.5227 32.5317 10.8372 32.0277 10.8161 31.0501C10.7898 29.7921 10.774 28.5263 11.1793 27.2974C11.3543 26.7645 11.928 26.0421 10.9438 25.7303C10.0648 25.4513 9.44506 25.7987 9.15164 26.754C8.72663 28.1316 8.76479 29.5645 8.53584 30.9264H8.53452ZM10.6648 56.5372C10.753 55.6912 10.424 55.3977 10.1674 55.2214C7.36477 53.2964 5.15685 50.749 2.8213 48.3319C2.57919 48.0819 2.16866 47.7292 1.90813 48.2042C1.64628 48.6832 1.35812 49.3569 1.94628 49.7937C3.55946 50.9898 4.83974 52.549 6.45818 53.7517C7.76609 54.7227 9.50296 54.9333 10.6648 56.5385V56.5372ZM18.0623 8.84057C19.732 8.29583 21.5794 7.72477 23.4005 7.07739C23.8623 6.91291 24.14 6.43001 23.9189 5.89974C23.6808 5.33132 23.1242 5.39579 22.6794 5.505C20.8873 5.94185 19.1478 6.54186 17.5583 7.49976C17.1978 7.71687 16.5017 7.79582 16.7359 8.45109C16.907 8.92741 17.4688 8.72478 18.0623 8.84189V8.84057ZM16.2149 30.9895C16.3596 31.4566 15.932 32.2422 16.8162 32.3672C17.7307 32.4974 17.9175 31.8185 18.0517 31.0724C18.3057 29.6685 18.5939 28.2684 19.3873 27.0355C19.6123 26.6855 20.2873 26.3368 19.6689 25.875C19.1768 25.5079 18.6202 25.8066 18.2623 26.2316C17.1162 27.5934 16.3478 29.1303 16.2149 30.9895ZM21.207 2.00101C18.2478 1.1181 15.7109 2.35759 13.1977 3.62866C12.7846 3.83788 12.0806 4.12077 12.4109 4.78657C12.7806 5.53132 13.3898 5.11026 13.9056 4.86947C16.2688 3.76287 18.6491 2.70234 21.2057 2.00233L21.207 2.00101ZM8.53189 10.3801C8.42531 10.2643 8.31347 10.0774 8.14899 9.97348C6.46345 8.91689 4.77921 7.85503 3.06735 6.84186C2.71077 6.63133 2.16602 6.25633 1.89102 6.96555C1.6897 7.48529 1.71339 8.0524 2.31997 8.31556C4.1371 9.10636 6.00818 9.77479 7.72136 10.7959C8.07794 11.009 8.43847 11.0024 8.53321 10.3787L8.53189 10.3801ZM2.21208 39.337C1.66602 39.5146 1.70549 39.8002 1.99892 40.0528C4.11868 41.891 5.7687 44.166 7.72136 46.1581C7.92136 46.3621 8.15162 46.7424 8.48452 46.3989C8.74374 46.1318 8.59242 45.816 8.35821 45.5621C6.54239 43.5884 4.93053 41.4199 2.80419 39.7423C2.6055 39.5844 2.38445 39.4541 2.21208 39.3383V39.337ZM7.11345 56.3648C7.38451 56.3741 7.66872 56.3635 7.75688 56.0491C7.88452 55.5964 7.57925 55.3596 7.23319 55.1938C5.72528 54.4688 4.65684 53.203 3.42262 52.1411C3.10551 51.8687 2.76998 51.5714 2.38971 51.4306C1.85023 51.2319 1.66207 51.7108 1.50154 52.1003C1.36338 52.4359 1.40286 52.6911 1.85286 52.7832C3.66078 53.1569 4.76474 54.5885 6.0937 55.6727C6.41871 55.9385 6.65819 56.3017 7.11477 56.3662L7.11345 56.3648ZM11.8148 30.6935C11.8148 30.904 11.8056 31.1145 11.8161 31.3237C11.8411 31.7935 11.8004 32.3764 12.474 32.3567C13.1662 32.3356 13.0412 31.729 13.0504 31.2777C13.0806 29.8079 13.0701 28.3421 13.7359 26.9658C13.9333 26.5566 14.0951 25.9671 13.4135 25.8145C12.8069 25.6789 12.5793 26.1803 12.5188 26.6724C12.3543 28.0263 11.778 29.3066 11.8148 30.6948V30.6935ZM3.26077 26.8145C1.33838 28.1869 0.660742 30.5066 1.39101 32.4264C1.50944 32.7382 1.65681 33.0382 2.03444 33.0146C2.42655 32.9896 2.53708 32.6619 2.54103 32.3317C2.5634 30.5487 2.5384 28.7645 3.26077 26.8145ZM8.18847 13.1827C8.27926 13.0169 8.37005 12.8511 8.46084 12.6854C6.58845 11.6011 4.72132 10.5064 2.8384 9.44058C2.50024 9.24847 2.10155 9.26163 1.89628 9.68795C1.70286 10.0906 1.85418 10.4143 2.25024 10.588C4.22658 11.459 6.2095 12.3182 8.18847 13.1814V13.1827ZM14.5307 31.7738C15.3241 30.2803 15.3728 28.5513 16.2412 27.1053C16.4741 26.7171 17.1938 26.2474 16.4609 25.8158C15.803 25.4276 15.3886 26.0868 15.132 26.5803C14.2872 28.2119 14.1412 29.9579 14.5293 31.7738H14.5307ZM8.0161 14.8854C7.96478 14.5775 7.98452 14.4446 7.92925 14.3985C6.33713 13.0748 4.37131 12.4577 2.54103 11.5853C2.29497 11.4682 2.00681 11.5603 1.93313 11.888C1.86602 12.184 2.0226 12.4248 2.27524 12.5301C4.14894 13.3104 6.02923 14.0722 8.0161 14.8854ZM6.27397 7.23792C5.43185 6.12606 4.21868 5.50105 3.08577 4.77341C2.79103 4.58394 2.34761 4.36025 2.08181 4.70894C1.69497 5.21552 2.29234 5.43526 2.5555 5.68263C3.57788 6.64975 4.99237 6.76028 6.27529 7.23792H6.27397ZM13.9701 2.01548C12.2661 1.54574 11.2464 2.07075 10.5556 3.75366C11.7319 3.15497 12.728 2.64707 13.9701 2.01548ZM4.42263 56.0069C4.47263 55.6201 2.57656 53.8885 2.1555 53.9424C1.90549 53.974 1.71076 54.2385 1.81997 54.3648C2.45682 55.1056 3.0213 55.9477 3.98315 56.3188C4.17526 56.3925 4.40553 56.2938 4.42132 56.0056L4.42263 56.0069ZM1.81076 14.042C2.73445 14.9762 3.73446 15.0196 4.57395 15.4064C4.81343 15.517 5.10422 15.4709 5.21211 15.1525C5.28712 14.9288 5.20159 14.6709 4.99106 14.6393C4.01473 14.4933 3.14498 13.7735 1.81076 14.042ZM2.75419 15.938C2.3805 15.9196 1.93181 15.9249 1.97128 16.417C2.02392 17.0946 2.58708 17.3196 3.18051 17.3867C3.59236 17.4341 3.91736 17.2446 3.8792 16.7801C3.82394 16.1104 3.27262 16.0341 2.75551 15.938H2.75419Z" fill="white"/>
<path d="M173.541 57.5122C165.698 58.0714 161.414 52.4451 159.823 46.87C159.376 45.3016 158.843 43.7436 158.988 42.0541C159.048 41.3423 159.182 40.9107 159.996 40.7186C162.127 40.2146 164.289 40.1568 166.456 40.0673C167.618 40.0199 168.131 40.487 168.35 41.6647C168.725 43.6739 169.009 45.7516 170.629 47.2911C172.889 49.4411 176.126 48.6976 177.296 45.7845C178.608 42.5199 177.214 39.8923 175.341 37.4344C173.63 35.1909 171.205 33.6593 169.234 31.6619C166.04 28.4263 162.536 25.3658 160.918 20.9868C158.531 14.5262 159.21 6.24449 166.417 1.95496C168.31 0.828635 170.329 0.71416 172.36 0.583895C180.684 0.0549415 185.025 4.50763 186.95 12.1761C187.247 13.3591 186.987 14.1749 185.504 14.6262C183.399 15.267 181.174 14.9485 179.109 15.7328C178.358 16.0183 178.012 15.3893 177.814 14.6999C177.525 13.6854 177.383 12.6196 176.847 11.684C175.796 9.84848 174.421 9.04584 172.904 9.37874C171.36 9.7169 170.027 11.3906 169.788 13.2025C169.514 15.2749 169.956 17.2196 170.929 19.0131C172.412 21.7486 174.597 23.8316 177.051 25.7579C182.191 29.7922 186.414 34.5698 187.205 41.4133C187.749 46.1147 186.722 50.42 183.287 53.9806C181.13 56.2162 178.368 56.9359 175.51 57.4912C174.796 57.6307 174.031 57.5122 173.539 57.5122H173.541ZM176.996 55.6951C178.209 55.578 183.525 51.9951 183.927 51.1069C184.222 50.4569 184.054 50.0556 183.297 50.0806C182.399 50.1108 181.393 50.4898 180.624 50.2056C178.12 49.2819 175.671 49.5292 173.162 50.0174C172.655 50.1161 172.138 50.0411 171.669 50.3714C169.929 51.6029 167.871 51.874 165.848 52.2451C165.521 52.3056 165.069 52.1451 164.939 52.6674C165.78 53.9832 166.755 54.5859 168.372 53.7648C169.488 53.1977 170.75 52.9201 171.86 52.2885C172.21 52.0898 172.722 51.8898 172.98 52.3872C173.21 52.8293 172.731 53.0477 172.438 53.2174C171.666 53.6674 170.858 54.0569 170.069 54.4793C169.805 54.6214 169.377 54.7135 169.505 55.1122C169.656 55.5859 170.094 55.4793 170.444 55.3517C170.939 55.1714 171.434 54.9767 171.896 54.728C172.823 54.228 173.784 53.7819 174.598 53.0832C174.868 52.8516 175.292 52.6201 175.587 52.9964C175.902 53.4017 175.487 53.6872 175.221 53.903C174.65 54.3675 174.05 54.8004 173.434 55.2043C173.004 55.4872 172.241 55.6977 172.623 56.3083C173.094 57.0609 173.684 56.3899 174.047 56.0293C175.192 54.899 176.658 54.228 177.896 53.2385C178.1 53.0753 178.358 52.9056 178.589 53.1806C178.802 53.4332 178.633 53.6582 178.468 53.878C178.035 54.4622 177.297 54.7911 176.993 55.6912L176.996 55.6951ZM185.195 12.4446C186.275 7.25108 178.572 1.0168 172.837 2.44708C178.097 4.26157 181.687 8.11162 185.195 12.4446ZM181.121 40.8818C181.133 41.9397 181.418 42.6555 182.18 42.9252C182.977 43.2068 183.241 42.3884 183.589 41.9173C184.085 41.2449 184.537 40.5686 185.143 39.9581C186.079 39.0159 184.825 38.2686 184.614 37.4225C184.492 36.9304 183.916 36.9409 183.552 37.2304C182.287 38.2396 181.401 39.5054 181.12 40.8818H181.121ZM182.26 13.3735C182.293 13.2038 182.363 13.059 182.322 13.0156C179.629 10.0866 176.748 7.36424 173.114 5.63791C171.206 4.73132 169.097 4.36421 167.039 3.89841C166.754 3.83394 166.34 3.67867 166.238 4.11157C166.138 4.53658 166.567 4.59184 166.856 4.66421C167.472 4.81816 168.097 4.93263 168.717 5.06816C171.294 5.6287 173.96 6.02344 175.442 8.6511C175.509 8.76952 175.696 8.85505 175.843 8.88795C178.064 9.37743 179.395 11.0682 180.874 12.5709C181.25 12.9525 181.575 13.5025 182.26 13.3762V13.3735ZM174.064 34.0106C174.446 31.9067 173.789 30.3685 173.302 28.8435C172.337 25.8184 168.964 23.7421 166.01 24.2237C165.614 24.2881 165.05 24.2605 165.154 24.8842C165.221 25.2842 165.611 25.4289 166.031 25.375C169.185 24.9697 170.855 26.7816 172.177 29.3171C172.904 30.7106 172.921 32.3606 174.064 34.0106ZM178.659 33.608C178.341 32.2251 177.897 30.4408 177.531 28.6408C177.392 27.9553 177.427 27.1026 176.446 27.3105C175.435 27.5237 175.808 28.4198 175.997 29.0066C176.826 31.5698 177.621 34.1238 177.16 36.8751C177.108 37.1922 177.085 37.5594 177.502 37.6251C177.805 37.6725 177.938 37.387 178.01 37.1265C178.292 36.112 178.627 35.1093 178.659 33.6093V33.608ZM164.86 14.3551V14.4156C165.651 14.4156 166.442 14.413 167.231 14.4156C167.708 14.4183 168.069 14.2617 168.117 13.7327C168.156 13.2985 167.894 13.0604 167.512 12.9209C165.843 12.313 164.126 12.1867 162.379 12.4261C161.75 12.5117 161.472 12.9196 161.514 13.5367C161.554 14.1341 161.965 14.338 162.488 14.3499C163.279 14.3683 164.069 14.3551 164.859 14.3551H164.86ZM165.129 5.93528C164.99 5.95238 164.215 5.66817 163.948 6.44449C163.743 7.0445 164.369 7.30898 164.802 7.32214C166.555 7.37214 168.185 8.00241 169.887 8.28268C170.284 8.34847 170.719 8.26952 171.122 8.18267C171.429 8.11688 171.746 7.91557 171.766 7.56819C171.788 7.17608 171.417 7.1274 171.123 7.00371C169.352 6.25765 167.476 6.06949 165.129 5.93659V5.93528ZM164.175 15.2683V15.263C163.593 15.263 163.01 15.263 162.429 15.263C161.656 15.263 161.442 15.7091 161.476 16.4012C161.506 17.013 161.692 17.4262 162.402 17.3999C163.406 17.3631 164.426 17.4433 165.41 17.288C166.111 17.1775 167.14 16.8051 167.109 16.1301C167.071 15.3157 166.017 15.3354 165.286 15.2736C164.918 15.242 164.546 15.2683 164.176 15.2683H164.175ZM182.717 43.8936C182.025 43.8265 181.549 44.2647 181.281 44.8515C180.866 45.766 180.306 46.5792 179.756 47.4082C179.538 47.7371 179.167 48.1476 179.587 48.5266C180.054 48.9477 180.508 48.5713 180.82 48.249C181.801 47.2318 182.735 46.1779 183.467 44.9463C184.041 43.9818 183.553 43.8765 182.717 43.895V43.8936ZM165.817 20.771C165.827 21.346 166.088 22.1197 166.897 22.6092C167.134 22.7526 167.405 22.7657 167.642 22.5973C167.892 22.4184 167.954 22.1394 167.787 21.9039C166.915 20.6789 167.643 19.8315 168.456 19.017C168.83 18.642 169.093 18.2565 168.677 17.7946C168.263 17.3354 167.781 17.5696 167.396 17.8525C166.522 18.496 165.821 19.2697 165.817 20.7723V20.771ZM167.522 26.5276C167.44 26.5724 167.202 26.625 167.118 26.7671C166.964 27.0276 167.131 27.3342 167.334 27.4566C168.697 28.2803 169.725 29.3685 170.437 30.8185C170.579 31.1093 171.26 31.7132 171.75 31.308C172.248 30.8948 171.819 30.3724 171.504 29.9329C171.046 29.2948 170.667 28.5974 170.179 27.9855C169.538 27.1803 168.69 26.6697 167.521 26.5276H167.522ZM162.781 8.4511C162.751 8.60373 162.721 8.75768 162.69 8.91031C164.711 9.35243 166.73 9.80375 168.755 10.2301C169.031 10.288 169.281 10.1209 169.347 9.8248C169.397 9.5998 169.272 9.40901 169.054 9.33006C167.018 8.59978 164.967 7.98136 162.781 8.4511ZM180.55 34.8488C180.567 34.5962 180.599 34.079 180.091 33.8277C179.767 33.6672 179.596 33.9883 179.598 34.2501C179.613 35.9185 178.937 37.4501 178.68 39.0633C178.63 39.3765 178.57 39.7778 178.922 39.8923C179.45 40.0633 179.438 39.5238 179.609 39.2304C180.363 37.9449 180.304 36.4804 180.549 34.8488H180.55ZM182.438 48.2463C184.125 47.4884 184.971 45.97 185.897 44.5292C186.043 44.3015 186.137 44.0107 185.903 43.8094C185.58 43.5305 185.225 43.7818 185.096 44.0134C184.287 45.4673 182.988 46.6003 182.437 48.2463H182.438ZM178.98 45.4121C178.991 45.2858 178.877 45.6647 179.204 45.8358C179.554 46.0187 179.776 45.6726 179.973 45.445C180.281 45.0871 180.585 44.72 180.838 44.3226C181.302 43.5936 180.637 43.1726 180.334 42.6581C180.202 42.4357 180.033 42.1291 179.747 42.3041C179.292 42.5831 179.337 43.1186 179.267 43.5818C179.197 44.0489 179.122 44.5147 178.983 45.4121H178.98ZM182.131 10.9524C180.909 8.64847 178.497 6.55502 176.712 6.12739C178.572 7.78398 180.352 9.36821 182.131 10.9524ZM172.922 25.6605C172.231 24.0737 171.344 23.296 170.359 22.6C170.005 22.35 169.609 22.0434 169.269 22.4947C168.94 22.9315 169.275 23.2605 169.658 23.5105C170.615 24.1368 171.569 24.7697 172.922 25.6605ZM163.101 45.3108C163.497 45.2818 163.913 45.3844 164.108 44.9779C164.181 44.8252 164.159 44.4871 164.054 44.4094C163.186 43.7844 162.109 43.8121 161.126 43.541C160.925 43.4857 160.73 43.7884 160.821 43.9805C161.28 44.9489 162.231 45.0937 163.101 45.3094V45.3108ZM181.516 35.8528C181.556 36.2462 181.409 36.7317 181.929 36.7738C182.385 36.812 182.489 36.3751 182.554 36.0133C182.655 35.4475 182.727 34.8764 182.809 34.3067C182.879 33.8212 182.902 33.2225 182.301 33.2014C181.762 33.1817 181.893 33.8238 181.814 34.2054C181.697 34.7672 181.609 35.3356 181.517 35.8528H181.516ZM166.617 11.184L166.643 10.9524C165.322 10.7367 164.002 10.5051 162.676 10.3195C162.368 10.2761 162.002 10.4195 162.025 10.8169C162.042 11.1222 162.364 11.1801 162.631 11.1801C163.96 11.1867 165.288 11.1827 166.617 11.1827V11.184ZM163.085 48.6542C164.735 49.0687 166.361 48.6279 168 48.499C168.342 48.4726 168.892 48.495 168.843 48.0253C168.779 47.3976 168.183 47.5924 167.837 47.7187C166.305 48.2792 164.773 48.7805 163.085 48.6542ZM170.534 49.4687C168.944 49.5977 167.429 50.1029 165.869 50.4082C167.585 50.9858 169.065 50.2503 170.534 49.4687ZM167.368 44.0989C167.217 43.6621 167.162 43.0607 166.565 43.091C165.888 43.1265 165.859 43.7647 165.81 44.2765C165.767 44.7344 165.934 45.1739 166.459 45.1581C167.075 45.1397 167.359 44.7081 167.367 44.0989H167.368Z" fill="white"/>
<path d="M10.0978 70.3248V71.7517H6.43412V83.7648H4.67941V71.7517H0.996429V70.3248H10.0978ZM20.2022 80.776H14.3403L13.2605 83.7648H11.4093L16.2686 70.4019H18.2932L23.1332 83.7648H21.282L20.2022 80.776ZM19.7009 79.3491L17.2712 72.5616L14.8416 79.3491H19.7009ZM27.0057 82.3379H31.7106V83.7648H25.2509V70.3248H27.0057V82.3379ZM35.3288 71.7517V76.2446H40.2266V77.6907H35.3288V82.3186H40.8051V83.7648H33.5741V70.3055H40.8051V71.7517H35.3288ZM47.7217 83.8997C46.8347 83.8997 46.0376 83.7455 45.3306 83.437C44.6364 83.1156 44.0901 82.6785 43.6916 82.1257C43.2931 81.5601 43.0874 80.9109 43.0745 80.1782H44.945C45.0092 80.8081 45.2663 81.3416 45.7163 81.7787C46.179 82.2029 46.8475 82.415 47.7217 82.415C48.5572 82.415 49.2128 82.2093 49.6885 81.7979C50.177 81.3737 50.4212 80.8338 50.4212 80.1782C50.4212 79.664 50.2798 79.2462 49.997 78.9248C49.7142 78.6035 49.3607 78.3592 48.9365 78.1921C48.5122 78.025 47.9402 77.845 47.2203 77.6522C46.3333 77.4208 45.6198 77.1894 45.0799 76.958C44.5529 76.7266 44.0965 76.3667 43.7109 75.8782C43.3381 75.3768 43.1517 74.7084 43.1517 73.8728C43.1517 73.1401 43.3381 72.4909 43.7109 71.9252C44.0837 71.3596 44.6043 70.9226 45.2728 70.614C45.9541 70.3055 46.7318 70.1513 47.606 70.1513C48.8658 70.1513 49.8942 70.4662 50.6912 71.0961C51.501 71.726 51.9574 72.5616 52.0602 73.6028H50.132C50.0677 73.0886 49.7977 72.6387 49.3221 72.2531C48.8465 71.8545 48.2166 71.6553 47.4324 71.6553C46.6997 71.6553 46.1019 71.8481 45.6391 72.2338C45.1763 72.6066 44.945 73.1336 44.945 73.8149C44.945 74.3034 45.0799 74.7019 45.3499 75.0105C45.6327 75.319 45.9734 75.5568 46.3719 75.7239C46.7832 75.8782 47.3553 76.0582 48.088 76.2638C48.975 76.5081 49.6885 76.7523 50.2284 76.9966C50.7683 77.228 51.2311 77.5943 51.6167 78.0957C52.0024 78.5842 52.1952 79.2526 52.1952 80.1011C52.1952 80.7567 52.0217 81.3737 51.6746 81.9522C51.3275 82.5307 50.8133 82.9999 50.132 83.3598C49.4507 83.7198 48.6472 83.8997 47.7217 83.8997ZM66.0115 83.8997C64.7646 83.8997 63.6269 83.6105 62.5985 83.032C61.5701 82.4407 60.7538 81.6244 60.1496 80.5831C59.5583 79.529 59.2626 78.3464 59.2626 77.0351C59.2626 75.7239 59.5583 74.5477 60.1496 73.5064C60.7538 72.4523 61.5701 71.636 62.5985 71.0575C63.6269 70.4662 64.7646 70.1705 66.0115 70.1705C67.2713 70.1705 68.4154 70.4662 69.4438 71.0575C70.4722 71.636 71.2821 72.4459 71.8734 73.4871C72.4647 74.5284 72.7604 75.7111 72.7604 77.0351C72.7604 78.3592 72.4647 79.5419 71.8734 80.5831C71.2821 81.6244 70.4722 82.4407 69.4438 83.032C68.4154 83.6105 67.2713 83.8997 66.0115 83.8997ZM66.0115 82.3764C66.9499 82.3764 67.7919 82.1579 68.5375 81.7208C69.296 81.2837 69.8873 80.6603 70.3115 79.8504C70.7486 79.0405 70.9671 78.1021 70.9671 77.0351C70.9671 75.9553 70.7486 75.0169 70.3115 74.2199C69.8873 73.41 69.3024 72.7865 68.5568 72.3495C67.8112 71.9124 66.9628 71.6939 66.0115 71.6939C65.0602 71.6939 64.2118 71.9124 63.4662 72.3495C62.7206 72.7865 62.1293 73.41 61.6922 74.2199C61.268 75.0169 61.0559 75.9553 61.0559 77.0351C61.0559 78.1021 61.268 79.0405 61.6922 79.8504C62.1293 80.6603 62.7206 81.2837 63.4662 81.7208C64.2246 82.1579 65.0731 82.3764 66.0115 82.3764ZM82.6742 70.3248V71.7517H76.8316V76.2831H81.5751V77.71H76.8316V83.7648H75.0769V70.3248H82.6742ZM94.1957 83.8997C93.3087 83.8997 92.5117 83.7455 91.8047 83.437C91.1105 83.1156 90.5642 82.6785 90.1657 82.1257C89.7672 81.5601 89.5615 80.9109 89.5486 80.1782H91.419C91.4833 80.8081 91.7404 81.3416 92.1903 81.7787C92.6531 82.2029 93.3216 82.415 94.1957 82.415C95.0313 82.415 95.6869 82.2093 96.1626 81.7979C96.6511 81.3737 96.8953 80.8338 96.8953 80.1782C96.8953 79.664 96.7539 79.2462 96.4711 78.9248C96.1883 78.6035 95.8348 78.3592 95.4105 78.1921C94.9863 78.025 94.4143 77.845 93.6944 77.6522C92.8074 77.4208 92.0939 77.1894 91.554 76.958C91.027 76.7266 90.5706 76.3667 90.185 75.8782C89.8122 75.3768 89.6258 74.7084 89.6258 73.8728C89.6258 73.1401 89.8122 72.4909 90.185 71.9252C90.5578 71.3596 91.0784 70.9226 91.7468 70.614C92.4282 70.3055 93.2059 70.1513 94.08 70.1513C95.3398 70.1513 96.3682 70.4662 97.1653 71.0961C97.9751 71.726 98.4315 72.5616 98.5343 73.6028H96.6061C96.5418 73.0886 96.2718 72.6387 95.7962 72.2531C95.3206 71.8545 94.6907 71.6553 93.9065 71.6553C93.1738 71.6553 92.576 71.8481 92.1132 72.2338C91.6504 72.6066 91.419 73.1336 91.419 73.8149C91.419 74.3034 91.554 74.7019 91.824 75.0105C92.1068 75.319 92.4475 75.5568 92.846 75.7239C93.2573 75.8782 93.8294 76.0582 94.5621 76.2638C95.4491 76.5081 96.1626 76.7523 96.7025 76.9966C97.2424 77.228 97.7052 77.5943 98.0908 78.0957C98.4765 78.5842 98.6693 79.2526 98.6693 80.1011C98.6693 80.7567 98.4958 81.3737 98.1487 81.9522C97.8016 82.5307 97.2874 82.9999 96.6061 83.3598C95.9247 83.7198 95.1213 83.8997 94.1957 83.8997ZM102.968 70.3248V78.8284C102.968 80.0239 103.257 80.9109 103.835 81.4894C104.427 82.0679 105.243 82.3571 106.284 82.3571C107.313 82.3571 108.116 82.0679 108.695 81.4894C109.286 80.9109 109.582 80.0239 109.582 78.8284V70.3248H111.336V78.8091C111.336 79.9275 111.111 80.8724 110.661 81.6437C110.212 82.4021 109.601 82.9678 108.83 83.3406C108.071 83.7134 107.216 83.8997 106.265 83.8997C105.314 83.8997 104.452 83.7134 103.681 83.3406C102.923 82.9678 102.318 82.4021 101.869 81.6437C101.431 80.8724 101.213 79.9275 101.213 78.8091V70.3248H102.968ZM121.861 70.3248V71.7517H116.018V76.2831H120.762V77.71H116.018V83.7648H114.264V70.3248H121.861ZM131.577 70.3248V71.7517H125.735V76.2831H130.478V77.71H125.735V83.7648H123.98V70.3248H131.577ZM135.451 71.7517V76.2446H140.349V77.6907H135.451V82.3186H140.928V83.7648H133.697V70.3055H140.928V71.7517H135.451ZM150.66 83.7648L147.459 78.2692H145.338V83.7648H143.583V70.3248H147.921C148.937 70.3248 149.792 70.4983 150.486 70.8454C151.193 71.1925 151.72 71.6617 152.067 72.2531C152.414 72.8444 152.588 73.5193 152.588 74.2777C152.588 75.2033 152.318 76.0196 151.778 76.7266C151.251 77.4336 150.454 77.9029 149.387 78.1342L152.761 83.7648H150.66ZM145.338 76.8616H147.921C148.873 76.8616 149.586 76.6302 150.062 76.1674C150.537 75.6918 150.775 75.0619 150.775 74.2777C150.775 73.4807 150.537 72.8637 150.062 72.4266C149.599 71.9895 148.886 71.771 147.921 71.771H145.338V76.8616ZM157.069 70.3248V83.7648H155.314V70.3248H157.069ZM170.627 83.7648H168.872L161.814 73.0629V83.7648H160.06V70.3055H161.814L168.872 80.9881V70.3055H170.627V83.7648ZM183.799 74.2199C183.426 73.4357 182.886 72.8315 182.179 72.4073C181.472 71.9702 180.65 71.7517 179.711 71.7517C178.773 71.7517 177.924 71.9702 177.166 72.4073C176.42 72.8315 175.829 73.4486 175.392 74.2584C174.968 75.0555 174.755 75.981 174.755 77.0351C174.755 78.0893 174.968 79.0148 175.392 79.8118C175.829 80.6089 176.42 81.2259 177.166 81.663C177.924 82.0872 178.773 82.2993 179.711 82.2993C181.022 82.2993 182.102 81.9072 182.951 81.1231C183.799 80.3389 184.294 79.2784 184.435 77.9414H179.075V76.5145H186.306V77.8643C186.203 78.9698 185.856 79.9854 185.264 80.9109C184.673 81.8237 183.895 82.55 182.931 83.0899C181.967 83.6169 180.894 83.8805 179.711 83.8805C178.464 83.8805 177.326 83.5912 176.298 83.0127C175.27 82.4214 174.453 81.6051 173.849 80.5639C173.258 79.5226 172.962 78.3464 172.962 77.0351C172.962 75.7239 173.258 74.5477 173.849 73.5064C174.453 72.4523 175.27 71.636 176.298 71.0575C177.326 70.4662 178.464 70.1705 179.711 70.1705C181.138 70.1705 182.398 70.524 183.49 71.2311C184.596 71.9381 185.399 72.9344 185.901 74.2199H183.799Z" fill="#B62937"/>
</svg>
